M48
; DRILL file {KiCad 8.0.6} date 2025-02-06T10:41:58-0800
; FORMAT={-:-/ absolute / inch / decimal}
; #@! TF.CreationDate,2025-02-06T10:41:58-08:00
; #@! TF.GenerationSoftware,Kicad,Pcbnew,8.0.6
; #@! TF.FileFunction,Plated,1,2,PTH
FMAT,2
INCH
; #@! TA.AperFunction,Plated,PTH,ViaDrill
T1C0.0118
; #@! TA.AperFunction,Plated,PTH,ComponentDrill
T2C0.0276
; #@! TA.AperFunction,Plated,PTH,ComponentDrill
T3C0.0354
; #@! TA.AperFunction,Plated,PTH,ComponentDrill
T4C0.0433
%
G90
G05
T1
X3.937Y-3.7598
X4.4094Y-3.5827
X4.8228Y-2.6969
X5.0394Y-2.7362
X5.4528Y-2.7362
X5.6102Y-2.7362
X5.6693Y-2.874
X5.748Y-2.9528
T2
X3.8067Y-4.3504
X4.1067Y-4.3504
X4.5425Y-4.4685
X4.7Y-2.5787
X4.8425Y-4.4685
X5.0Y-2.5787
X5.5465Y-4.0354
X5.8343Y-2.2441
X5.8465Y-4.0354
X6.1343Y-2.2441
X6.2673Y-2.4606
X6.5673Y-2.4606
X6.9957Y-2.8346
X7.2122Y-4.3898
X7.2197Y-2.2441
X7.2957Y-2.8346
X7.5122Y-4.3898
X7.5197Y-2.2441
T3
X4.8606Y-2.3819
X4.9606Y-2.3819
X4.9787Y-4.4685
X5.0787Y-4.4685
X5.7465Y-3.8386
X5.8465Y-3.8386
X6.3567Y-2.6575
X6.4567Y-2.6575
X7.1638Y-3.0118
X7.2638Y-3.0118
X7.3819Y-4.1929
X7.4819Y-4.1929
T4
X3.8839Y-4.148
X4.065Y-4.148
X4.252Y-4.1339
X4.252Y-4.3898
X4.4291Y-4.1339
X4.4291Y-4.3898
M30
