%TF.GenerationSoftware,KiCad,Pcbnew,8.0.6*%
%TF.CreationDate,2025-02-06T10:41:56-08:00*%
%TF.ProjectId,Decorative PCB for Amaia,4465636f-7261-4746-9976-652050434220,V2*%
%TF.SameCoordinates,Original*%
%TF.FileFunction,Legend,Top*%
%TF.FilePolarity,Positive*%
%FSLAX46Y46*%
G04 Gerber Fmt 4.6, Leading zero omitted, Abs format (unit mm)*
G04 Created by KiCad (PCBNEW 8.0.6) date 2025-02-06 10:41:56*
%MOMM*%
%LPD*%
G01*
G04 APERTURE LIST*
%ADD10C,1.500000*%
%ADD11C,0.300000*%
%ADD12C,0.150000*%
%ADD13C,0.100000*%
%ADD14C,0.000000*%
%ADD15C,0.120000*%
G04 APERTURE END LIST*
D10*
G36*
X138903244Y-90790000D02*
G01*
X142564200Y-78190976D01*
X145151953Y-78190976D01*
X148812909Y-90790000D01*
X146939567Y-90790000D01*
X143939043Y-79718227D01*
X143777110Y-79718227D01*
X140776587Y-90790000D01*
X138903244Y-90790000D01*
G37*
G36*
X140598778Y-87741849D02*
G01*
X140598778Y-86065366D01*
X147028471Y-86065366D01*
X147028471Y-87741849D01*
X140598778Y-87741849D01*
G37*
G36*
X156979413Y-90790000D02*
G01*
X156979413Y-83455387D01*
X156858364Y-82809869D01*
X156291077Y-82459361D01*
X156245952Y-82458387D01*
X155645661Y-82676906D01*
X155363172Y-83266518D01*
X155318806Y-83782428D01*
X154674249Y-82407585D01*
X155407711Y-82407585D01*
X155584747Y-81797707D01*
X155849057Y-81442337D01*
X156407079Y-81113709D01*
X156995289Y-81035917D01*
X157657607Y-81110930D01*
X158238437Y-81388062D01*
X158424110Y-81569344D01*
X158730153Y-82161895D01*
X158850384Y-82803980D01*
X158871807Y-83293454D01*
X158871807Y-90790000D01*
X156979413Y-90790000D01*
G37*
G36*
X150156001Y-90790000D02*
G01*
X150156001Y-81239127D01*
X151835659Y-81239127D01*
X152048394Y-83258527D01*
X152048394Y-90790000D01*
X150156001Y-90790000D01*
G37*
G36*
X153709002Y-90790000D02*
G01*
X153709002Y-83274403D01*
X153521667Y-82662391D01*
X152959665Y-82458387D01*
X152336726Y-82711817D01*
X152080431Y-83332461D01*
X152048394Y-83782428D01*
X151495917Y-82407585D01*
X152102372Y-82407585D01*
X152274612Y-81744523D01*
X152727568Y-81262296D01*
X153370649Y-81057349D01*
X153728053Y-81035917D01*
X154389279Y-81164511D01*
X154893335Y-81550293D01*
X155198727Y-82149728D01*
X155308419Y-82798055D01*
X155318806Y-83112470D01*
X155318806Y-90790000D01*
X153709002Y-90790000D01*
G37*
G36*
X167117690Y-90878904D02*
G01*
X166990683Y-88033963D01*
X166743021Y-87224298D01*
X166743021Y-84700048D01*
X166649255Y-84042196D01*
X166302840Y-83459802D01*
X166076238Y-83271228D01*
X165485510Y-82987250D01*
X164854758Y-82840647D01*
X164179445Y-82778694D01*
X164098115Y-82775903D01*
X161831053Y-82712400D01*
X162008862Y-81035917D01*
X163920307Y-81064494D01*
X164624112Y-81099051D01*
X165269004Y-81180895D01*
X165965108Y-81341526D01*
X166576375Y-81570249D01*
X167182297Y-81923153D01*
X167406629Y-82102770D01*
X167850782Y-82584256D01*
X168185845Y-83153561D01*
X168411817Y-83810685D01*
X168518681Y-84443831D01*
X168546510Y-85020739D01*
X168546510Y-89062714D01*
X170153140Y-89259574D01*
X170153140Y-90790000D01*
X167117690Y-90878904D01*
G37*
G36*
X163777424Y-90993210D02*
G01*
X163077898Y-90947567D01*
X162391031Y-90787103D01*
X161810154Y-90511107D01*
X161481786Y-90262923D01*
X161053140Y-89747270D01*
X160783251Y-89113169D01*
X160676090Y-88441205D01*
X160668946Y-88195896D01*
X160722579Y-87558980D01*
X160915222Y-86914423D01*
X161247969Y-86358770D01*
X161720819Y-85892022D01*
X161789776Y-85839930D01*
X162407940Y-85480145D01*
X163043576Y-85249657D01*
X163767639Y-85097873D01*
X164458644Y-85030414D01*
X164955408Y-85017564D01*
X165613825Y-85034857D01*
X166254909Y-85092159D01*
X166466782Y-85122344D01*
X167096257Y-85250144D01*
X167651116Y-85430334D01*
X167260572Y-86719448D01*
X166631026Y-86609121D01*
X166088939Y-86563866D01*
X165437932Y-86545894D01*
X164920481Y-86541639D01*
X164210660Y-86579856D01*
X163517682Y-86726608D01*
X162928169Y-87036927D01*
X162543181Y-87575017D01*
X162456559Y-88106992D01*
X162590176Y-88748398D01*
X162878855Y-89116692D01*
X163468020Y-89401674D01*
X164079064Y-89469134D01*
X164750623Y-89417256D01*
X165366008Y-89245351D01*
X165558688Y-89154794D01*
X166105317Y-88772417D01*
X166447732Y-88354654D01*
X166694287Y-87763923D01*
X166743021Y-87348129D01*
X166743021Y-86278101D01*
X167295498Y-88764249D01*
X166546161Y-88764249D01*
X166847801Y-88472135D01*
X166784918Y-89109672D01*
X166556084Y-89730688D01*
X166466782Y-89875554D01*
X166011147Y-90366910D01*
X165442689Y-90699232D01*
X165399930Y-90716971D01*
X164751813Y-90905806D01*
X164119858Y-90983498D01*
X163777424Y-90993210D01*
G37*
G36*
X175503279Y-90790000D02*
G01*
X175503279Y-81782079D01*
X177398848Y-81782079D01*
X177398848Y-90790000D01*
X175503279Y-90790000D01*
G37*
G36*
X171896301Y-90790000D02*
G01*
X171896301Y-89215122D01*
X175684263Y-89215122D01*
X175684263Y-90790000D01*
X171896301Y-90790000D01*
G37*
G36*
X177217864Y-90790000D02*
G01*
X177217864Y-89215122D01*
X180307292Y-89215122D01*
X180307292Y-90790000D01*
X177217864Y-90790000D01*
G37*
G36*
X172432903Y-82814005D02*
G01*
X172432903Y-81239127D01*
X177398848Y-81239127D01*
X177398848Y-82814005D01*
X172432903Y-82814005D01*
G37*
G36*
X176389148Y-79715052D02*
G01*
X175767264Y-79563736D01*
X175452477Y-79327683D01*
X175119581Y-78779968D01*
X175065108Y-78394187D01*
X175216424Y-77769326D01*
X175452477Y-77457515D01*
X176001432Y-77127348D01*
X176389148Y-77073321D01*
X177014009Y-77223397D01*
X177325819Y-77457515D01*
X177655986Y-78003493D01*
X177710013Y-78394187D01*
X177559938Y-79013342D01*
X177325819Y-79327683D01*
X176779841Y-79660578D01*
X176389148Y-79715052D01*
G37*
G36*
X188429344Y-90878904D02*
G01*
X188302337Y-88033963D01*
X188054675Y-87224298D01*
X188054675Y-84700048D01*
X187960909Y-84042196D01*
X187614494Y-83459802D01*
X187387892Y-83271228D01*
X186797164Y-82987250D01*
X186166412Y-82840647D01*
X185491099Y-82778694D01*
X185409769Y-82775903D01*
X183142707Y-82712400D01*
X183320516Y-81035917D01*
X185231960Y-81064494D01*
X185935766Y-81099051D01*
X186580658Y-81180895D01*
X187276762Y-81341526D01*
X187888029Y-81570249D01*
X188493951Y-81923153D01*
X188718283Y-82102770D01*
X189162436Y-82584256D01*
X189497499Y-83153561D01*
X189723471Y-83810685D01*
X189830335Y-84443831D01*
X189858164Y-85020739D01*
X189858164Y-89062714D01*
X191464794Y-89259574D01*
X191464794Y-90790000D01*
X188429344Y-90878904D01*
G37*
G36*
X185089078Y-90993210D02*
G01*
X184389552Y-90947567D01*
X183702685Y-90787103D01*
X183121808Y-90511107D01*
X182793440Y-90262923D01*
X182364794Y-89747270D01*
X182094905Y-89113169D01*
X181987744Y-88441205D01*
X181980600Y-88195896D01*
X182034233Y-87558980D01*
X182226876Y-86914423D01*
X182559622Y-86358770D01*
X183032473Y-85892022D01*
X183101430Y-85839930D01*
X183719593Y-85480145D01*
X184355229Y-85249657D01*
X185079292Y-85097873D01*
X185770298Y-85030414D01*
X186267062Y-85017564D01*
X186925479Y-85034857D01*
X187566563Y-85092159D01*
X187778436Y-85122344D01*
X188407911Y-85250144D01*
X188962770Y-85430334D01*
X188572226Y-86719448D01*
X187942679Y-86609121D01*
X187400593Y-86563866D01*
X186749586Y-86545894D01*
X186232135Y-86541639D01*
X185522314Y-86579856D01*
X184829336Y-86726608D01*
X184239823Y-87036927D01*
X183854835Y-87575017D01*
X183768213Y-88106992D01*
X183901830Y-88748398D01*
X184190509Y-89116692D01*
X184779674Y-89401674D01*
X185390718Y-89469134D01*
X186062276Y-89417256D01*
X186677662Y-89245351D01*
X186870341Y-89154794D01*
X187416971Y-88772417D01*
X187759385Y-88354654D01*
X188005941Y-87763923D01*
X188054675Y-87348129D01*
X188054675Y-86278101D01*
X188607152Y-88764249D01*
X187857815Y-88764249D01*
X188159455Y-88472135D01*
X188096572Y-89109672D01*
X187867738Y-89730688D01*
X187778436Y-89875554D01*
X187322801Y-90366910D01*
X186754343Y-90699232D01*
X186711584Y-90716971D01*
X186063467Y-90905806D01*
X185431512Y-90983498D01*
X185089078Y-90993210D01*
G37*
D11*
G36*
X104164340Y-128301946D02*
G01*
X103596991Y-128286729D01*
X103040136Y-128241077D01*
X102493776Y-128164989D01*
X102385764Y-128146120D01*
X101815966Y-128026232D01*
X101288710Y-127877138D01*
X100846301Y-127716252D01*
X101117655Y-125685129D01*
X101636885Y-125887678D01*
X102153492Y-126058744D01*
X102718730Y-126210551D01*
X102769958Y-126222463D01*
X103318715Y-126329536D01*
X103884050Y-126395653D01*
X104285240Y-126410530D01*
X104838485Y-126370104D01*
X105380214Y-126205873D01*
X105523796Y-126123056D01*
X105882718Y-125691352D01*
X105953663Y-125295561D01*
X105807783Y-124772820D01*
X105414164Y-124373723D01*
X105069748Y-124177906D01*
X103527599Y-123433698D01*
X103053648Y-123176612D01*
X102571810Y-122851944D01*
X102153781Y-122494365D01*
X101759769Y-122052749D01*
X101457164Y-121576704D01*
X101253594Y-121073457D01*
X101149058Y-120543008D01*
X101133775Y-120236559D01*
X101178257Y-119653331D01*
X101311704Y-119130784D01*
X101573151Y-118607891D01*
X101950796Y-118164254D01*
X102063363Y-118065729D01*
X102576349Y-117729559D01*
X103104278Y-117514200D01*
X103706000Y-117372379D01*
X104280497Y-117309347D01*
X104693614Y-117297341D01*
X105241680Y-117324756D01*
X105773593Y-117407001D01*
X106345665Y-117562692D01*
X106568911Y-117643921D01*
X107105038Y-117890707D01*
X107601810Y-118197837D01*
X108059226Y-118565313D01*
X108145987Y-118646050D01*
X106770411Y-120223126D01*
X106345594Y-119856975D01*
X105885124Y-119546958D01*
X105719923Y-119457424D01*
X105200052Y-119255924D01*
X104698988Y-119188757D01*
X104141202Y-119251333D01*
X103664619Y-119473545D01*
X103345997Y-119924821D01*
X103293859Y-120290293D01*
X103452920Y-120821461D01*
X103554466Y-120961960D01*
X103967331Y-121334106D01*
X104298674Y-121534221D01*
X105749476Y-122278429D01*
X106220690Y-122545231D01*
X106698456Y-122873131D01*
X107111406Y-123225547D01*
X107498499Y-123651318D01*
X107797208Y-124101530D01*
X108014450Y-124622702D01*
X108111002Y-125165914D01*
X108116434Y-125333175D01*
X108067195Y-125925035D01*
X107919477Y-126454671D01*
X107630073Y-126983777D01*
X107212043Y-127431612D01*
X107087438Y-127530872D01*
X106596775Y-127831320D01*
X106022803Y-128057974D01*
X105464521Y-128193514D01*
X104845033Y-128274838D01*
X104282039Y-128301193D01*
X104164340Y-128301946D01*
G37*
G36*
X114486531Y-128301946D02*
G01*
X113828152Y-128275316D01*
X113218181Y-128195424D01*
X112656617Y-128062271D01*
X112143460Y-127875857D01*
X111591569Y-127581856D01*
X111109385Y-127211158D01*
X110703992Y-126767668D01*
X110382473Y-126257306D01*
X110144828Y-125680070D01*
X110010862Y-125147957D01*
X109935142Y-124569404D01*
X109916503Y-124073126D01*
X109943003Y-123472705D01*
X110022501Y-122915706D01*
X110187857Y-122304624D01*
X110429532Y-121756071D01*
X110747524Y-121270046D01*
X111001919Y-120980767D01*
X111442732Y-120605504D01*
X111949096Y-120307882D01*
X112521011Y-120087900D01*
X113047680Y-119963891D01*
X113619870Y-119893799D01*
X114110397Y-119876545D01*
X114708853Y-119907274D01*
X115262979Y-119999460D01*
X115833383Y-120176631D01*
X116238241Y-120368206D01*
X116696150Y-120675345D01*
X117109226Y-121091884D01*
X117421552Y-121587658D01*
X117495603Y-121751842D01*
X116012561Y-122947411D01*
X115664540Y-122491004D01*
X115235053Y-122144400D01*
X115171632Y-122106482D01*
X114669298Y-121894356D01*
X114124460Y-121812103D01*
X114048604Y-121810949D01*
X113506599Y-121866571D01*
X112963556Y-122080161D01*
X112600488Y-122380523D01*
X112286147Y-122873317D01*
X112125451Y-123443865D01*
X112084647Y-123995212D01*
X112126626Y-124540942D01*
X112274210Y-125072195D01*
X112562817Y-125559784D01*
X112756315Y-125763042D01*
X113232884Y-126081822D01*
X113756014Y-126267777D01*
X114295951Y-126352785D01*
X114669225Y-126367543D01*
X115209918Y-126354781D01*
X115751953Y-126316496D01*
X116287273Y-126253360D01*
X116807815Y-126171416D01*
X117017376Y-128076266D01*
X116475508Y-128176838D01*
X115917184Y-128243469D01*
X115754640Y-128256273D01*
X115191908Y-128287495D01*
X114641519Y-128301233D01*
X114486531Y-128301946D01*
G37*
G36*
X123911374Y-128130000D02*
G01*
X123911374Y-123226824D01*
X123854293Y-122691715D01*
X123631501Y-122202332D01*
X123613154Y-122179023D01*
X123169037Y-121871695D01*
X122761479Y-121810949D01*
X122161630Y-121913669D01*
X121709112Y-122221831D01*
X121403925Y-122735434D01*
X121259601Y-123339179D01*
X121222016Y-123957599D01*
X120754535Y-121496608D01*
X121418143Y-121496608D01*
X121548489Y-120942608D01*
X121816117Y-120444304D01*
X121968911Y-120279546D01*
X122439005Y-120004057D01*
X122980285Y-119890713D01*
X123298813Y-119876545D01*
X123898109Y-119925241D01*
X124425200Y-120071329D01*
X124931871Y-120352091D01*
X125262770Y-120655680D01*
X125599142Y-121144735D01*
X125805722Y-121664732D01*
X125925320Y-122264993D01*
X125958618Y-122856064D01*
X125958618Y-128130000D01*
X123911374Y-128130000D01*
G37*
G36*
X119174773Y-128130000D02*
G01*
X119174773Y-116781500D01*
X121222016Y-116781500D01*
X121222016Y-128130000D01*
X119174773Y-128130000D01*
G37*
G36*
X133389951Y-128130000D02*
G01*
X133389951Y-122614263D01*
X133310138Y-122066316D01*
X132906350Y-121767962D01*
X132450967Y-122100414D01*
X132361488Y-122652966D01*
X132360956Y-122710983D01*
X131818248Y-121037187D01*
X132497976Y-121037187D01*
X132663647Y-120500598D01*
X132917096Y-120185512D01*
X133412709Y-119927537D01*
X133841311Y-119876545D01*
X134386622Y-119940018D01*
X134896119Y-120197875D01*
X135023447Y-120327906D01*
X135280570Y-120829296D01*
X135381582Y-121372599D01*
X135399581Y-121786769D01*
X135399581Y-128130000D01*
X133389951Y-128130000D01*
G37*
G36*
X127766748Y-128130000D02*
G01*
X127766748Y-120048492D01*
X129604431Y-120048492D01*
X129784438Y-121757215D01*
X129784438Y-128130000D01*
X127766748Y-128130000D01*
G37*
G36*
X130842986Y-128130000D02*
G01*
X130842986Y-122458436D01*
X130706501Y-121919677D01*
X130359385Y-121767962D01*
X129894486Y-122066340D01*
X129786684Y-122596789D01*
X129784438Y-122710983D01*
X129316957Y-121037187D01*
X129891905Y-121037187D01*
X130054223Y-120476135D01*
X130443092Y-120039760D01*
X130978432Y-119881079D01*
X131106280Y-119876545D01*
X131657305Y-119999382D01*
X132025122Y-120311786D01*
X132266174Y-120819000D01*
X132352756Y-121367585D01*
X132360956Y-121633628D01*
X132360956Y-128130000D01*
X130842986Y-128130000D01*
G37*
G36*
X140109316Y-128130000D02*
G01*
X140109316Y-120502540D01*
X142148499Y-120502540D01*
X142148499Y-128130000D01*
X140109316Y-128130000D01*
G37*
G36*
X137145917Y-128130000D02*
G01*
X137145917Y-126238583D01*
X140259769Y-126238583D01*
X140259769Y-128130000D01*
X137145917Y-128130000D01*
G37*
G36*
X141998046Y-128130000D02*
G01*
X141998046Y-126238583D01*
X144520830Y-126238583D01*
X144520830Y-128130000D01*
X141998046Y-128130000D01*
G37*
G36*
X137599965Y-121939909D02*
G01*
X137599965Y-120048492D01*
X142148499Y-120048492D01*
X142148499Y-121939909D01*
X137599965Y-121939909D01*
G37*
G36*
X141038904Y-118973824D02*
G01*
X140481635Y-118871460D01*
X140093196Y-118611123D01*
X139799918Y-118131206D01*
X139730495Y-117662728D01*
X139832859Y-117105459D01*
X140093196Y-116717020D01*
X140570940Y-116421570D01*
X141038904Y-116351632D01*
X141594077Y-116454754D01*
X141981926Y-116717020D01*
X142275203Y-117194764D01*
X142344626Y-117662728D01*
X142242262Y-118220755D01*
X141981926Y-118611123D01*
X141505031Y-118904400D01*
X141038904Y-118973824D01*
G37*
G36*
X151315422Y-128301946D02*
G01*
X150696884Y-128281350D01*
X150134231Y-128219562D01*
X149532815Y-128091043D01*
X149011874Y-127903207D01*
X148505819Y-127609095D01*
X148322470Y-127458332D01*
X147963398Y-127040654D01*
X147692519Y-126525784D01*
X147530531Y-126007109D01*
X147433339Y-125417028D01*
X147401842Y-124870747D01*
X147400942Y-124755540D01*
X147400942Y-123696992D01*
X149442812Y-123696992D01*
X149442812Y-124570160D01*
X149488727Y-125108019D01*
X149665039Y-125621845D01*
X149912979Y-125940362D01*
X150397826Y-126216945D01*
X150965315Y-126340844D01*
X151468562Y-126367543D01*
X152015635Y-126344874D01*
X152210083Y-126327243D01*
X152748887Y-126264064D01*
X153115491Y-126217090D01*
X153295498Y-128121939D01*
X152743136Y-128208081D01*
X152322923Y-128256273D01*
X151771411Y-128293204D01*
X151315422Y-128301946D01*
G37*
G36*
X147400942Y-124175219D02*
G01*
X147400942Y-117641235D01*
X149442812Y-117641235D01*
X149442812Y-124175219D01*
X147400942Y-124175219D01*
G37*
G36*
X145482658Y-121939909D02*
G01*
X145482658Y-120048492D01*
X152994591Y-120048492D01*
X152994591Y-121939909D01*
X145482658Y-121939909D01*
G37*
G36*
X158142254Y-128130000D02*
G01*
X158142254Y-120502540D01*
X160181437Y-120502540D01*
X160181437Y-128130000D01*
X158142254Y-128130000D01*
G37*
G36*
X155178855Y-128130000D02*
G01*
X155178855Y-126238583D01*
X158292707Y-126238583D01*
X158292707Y-128130000D01*
X155178855Y-128130000D01*
G37*
G36*
X160030983Y-128130000D02*
G01*
X160030983Y-126238583D01*
X162553768Y-126238583D01*
X162553768Y-128130000D01*
X160030983Y-128130000D01*
G37*
G36*
X155632903Y-121939909D02*
G01*
X155632903Y-120048492D01*
X160181437Y-120048492D01*
X160181437Y-121939909D01*
X155632903Y-121939909D01*
G37*
G36*
X159071842Y-118973824D02*
G01*
X158514573Y-118871460D01*
X158126133Y-118611123D01*
X157832856Y-118131206D01*
X157763433Y-117662728D01*
X157865797Y-117105459D01*
X158126133Y-116717020D01*
X158603878Y-116421570D01*
X159071842Y-116351632D01*
X159627015Y-116454754D01*
X160014863Y-116717020D01*
X160308141Y-117194764D01*
X160377564Y-117662728D01*
X160275200Y-118220755D01*
X160014863Y-118611123D01*
X159537969Y-118904400D01*
X159071842Y-118973824D01*
G37*
G36*
X164490858Y-131697899D02*
G01*
X164415631Y-129892456D01*
X166984089Y-129817229D01*
X167533406Y-129758951D01*
X168079537Y-129574589D01*
X168518178Y-129231535D01*
X168807961Y-128740755D01*
X168947279Y-128219216D01*
X168993255Y-127662343D01*
X168993719Y-127595352D01*
X168993719Y-121746468D01*
X169144173Y-120048492D01*
X171040963Y-120048492D01*
X171040963Y-127364298D01*
X171016431Y-128006804D01*
X170942836Y-128594342D01*
X170820178Y-129126915D01*
X170608225Y-129693445D01*
X170325621Y-130180824D01*
X170036147Y-130526510D01*
X169617405Y-130876113D01*
X169114787Y-131159221D01*
X168528295Y-131375834D01*
X167975481Y-131505550D01*
X167364421Y-131589089D01*
X166833635Y-131622672D01*
X164490858Y-131697899D01*
G37*
G36*
X166855129Y-128301946D02*
G01*
X166235573Y-128249879D01*
X165679269Y-128093677D01*
X165186218Y-127833340D01*
X164756419Y-127468868D01*
X164539218Y-127213845D01*
X164216786Y-126692804D01*
X164003447Y-126174570D01*
X163848292Y-125590219D01*
X163763442Y-125052753D01*
X163718996Y-124469373D01*
X163711723Y-124097306D01*
X163731926Y-123489919D01*
X163792533Y-122927135D01*
X163918597Y-122310669D01*
X164102844Y-121758433D01*
X164345274Y-121270424D01*
X164539218Y-120980767D01*
X164933644Y-120550509D01*
X165392866Y-120225928D01*
X165916882Y-120007025D01*
X166505693Y-119893799D01*
X166871249Y-119876545D01*
X167447193Y-119924165D01*
X167993606Y-120103233D01*
X168257571Y-120279546D01*
X168608066Y-120710043D01*
X168820253Y-121253454D01*
X168872819Y-121499295D01*
X169463886Y-121499295D01*
X168993719Y-124097306D01*
X168969371Y-123542340D01*
X168870457Y-122961505D01*
X168651326Y-122430048D01*
X168604152Y-122359030D01*
X168187686Y-121984365D01*
X167665593Y-121824329D01*
X167430076Y-121810949D01*
X166879093Y-121909828D01*
X166410689Y-122237476D01*
X166274808Y-122410076D01*
X166025955Y-122928184D01*
X165906314Y-123464994D01*
X165866832Y-124029777D01*
X165866434Y-124097306D01*
X165897674Y-124688040D01*
X166005666Y-125241222D01*
X166237076Y-125761659D01*
X166261374Y-125797969D01*
X166680778Y-126187326D01*
X167198233Y-126353637D01*
X167430076Y-126367543D01*
X167969368Y-126303732D01*
X168473916Y-126037940D01*
X168649825Y-125827522D01*
X168859385Y-125331076D01*
X168960136Y-124777684D01*
X168993383Y-124171058D01*
X168993719Y-124097306D01*
X169539113Y-126679197D01*
X168827145Y-126679197D01*
X168682065Y-127230678D01*
X168402106Y-127699358D01*
X168198464Y-127896259D01*
X167692740Y-128173584D01*
X167157757Y-128287684D01*
X166855129Y-128301946D01*
G37*
G36*
X178139148Y-128205226D02*
G01*
X177964515Y-125797969D01*
X177934961Y-124717927D01*
X177934961Y-123095177D01*
X177814533Y-122549041D01*
X177420600Y-122139575D01*
X177386880Y-122119916D01*
X176853770Y-121914551D01*
X176324202Y-121818733D01*
X175758757Y-121778709D01*
X173711514Y-121724975D01*
X173861967Y-119876545D01*
X175608304Y-119900725D01*
X176261015Y-119929966D01*
X176859023Y-119999219D01*
X177402326Y-120108483D01*
X177982080Y-120292415D01*
X178483060Y-120533964D01*
X178840369Y-120779267D01*
X179252831Y-121186678D01*
X179563986Y-121668398D01*
X179773835Y-122224426D01*
X179873074Y-122760165D01*
X179898918Y-123248318D01*
X179898918Y-126281570D01*
X181011200Y-126450830D01*
X181011200Y-128130000D01*
X178139148Y-128205226D01*
G37*
G36*
X175425610Y-128301946D02*
G01*
X174822788Y-128261814D01*
X174290491Y-128141418D01*
X173775957Y-127910031D01*
X173437473Y-127659832D01*
X173063438Y-127205774D01*
X172845251Y-126706943D01*
X172739275Y-126122678D01*
X172728192Y-125835582D01*
X172772674Y-125264494D01*
X172932447Y-124687070D01*
X173208419Y-124189909D01*
X173600589Y-123773014D01*
X173657780Y-123726545D01*
X174171270Y-123404480D01*
X174700466Y-123198158D01*
X175304227Y-123062287D01*
X175881085Y-123001900D01*
X176296092Y-122990397D01*
X176836270Y-123003768D01*
X177371757Y-123051792D01*
X177432554Y-123060251D01*
X177976132Y-123159616D01*
X178402442Y-123269811D01*
X178071981Y-124863007D01*
X177531803Y-124759917D01*
X177201500Y-124728674D01*
X176654185Y-124711704D01*
X176392812Y-124709867D01*
X175854113Y-124744059D01*
X175309223Y-124896024D01*
X174906747Y-125256940D01*
X174807676Y-125682442D01*
X174954797Y-126205091D01*
X175092463Y-126351423D01*
X175613457Y-126559913D01*
X175933391Y-126582477D01*
X176472394Y-126532595D01*
X176986388Y-126353428D01*
X177042986Y-126321870D01*
X177474166Y-125984483D01*
X177711967Y-125660949D01*
X177903603Y-125148802D01*
X177934961Y-124833454D01*
X177934961Y-124312240D01*
X178222435Y-126415903D01*
X177580321Y-126415903D01*
X177843614Y-126168729D01*
X177780924Y-126708184D01*
X177596189Y-127233659D01*
X177526587Y-127356238D01*
X177171946Y-127772001D01*
X176699092Y-128068206D01*
X176154333Y-128235979D01*
X175607716Y-128298294D01*
X175425610Y-128301946D01*
G37*
G36*
X186876203Y-128301946D02*
G01*
X186338638Y-128272666D01*
X185786448Y-128164491D01*
X185254236Y-127943260D01*
X184781544Y-127569933D01*
X184694626Y-127469078D01*
X184403122Y-126989004D01*
X184216378Y-126466732D01*
X184093399Y-125849068D01*
X184038743Y-125243717D01*
X184028332Y-124801214D01*
X184028332Y-116781500D01*
X186067515Y-116781500D01*
X186067515Y-124715240D01*
X186108445Y-125268527D01*
X186172295Y-125531988D01*
X186508465Y-125961310D01*
X186580669Y-126002156D01*
X187105255Y-126134831D01*
X187480704Y-126152609D01*
X188027526Y-126112183D01*
X188558248Y-126016733D01*
X189094224Y-125882822D01*
X189157187Y-125865136D01*
X189390928Y-127982233D01*
X188837820Y-128110500D01*
X188302196Y-128203799D01*
X188152372Y-128224033D01*
X187614545Y-128277294D01*
X187044834Y-128300729D01*
X186876203Y-128301946D01*
G37*
G36*
X181760781Y-118672916D02*
G01*
X181760781Y-116781500D01*
X184162665Y-116781500D01*
X184162665Y-118672916D01*
X181760781Y-118672916D01*
G37*
D12*
X123991905Y-56954819D02*
X123991905Y-55954819D01*
X123991905Y-55954819D02*
X124230000Y-55954819D01*
X124230000Y-55954819D02*
X124372857Y-56002438D01*
X124372857Y-56002438D02*
X124468095Y-56097676D01*
X124468095Y-56097676D02*
X124515714Y-56192914D01*
X124515714Y-56192914D02*
X124563333Y-56383390D01*
X124563333Y-56383390D02*
X124563333Y-56526247D01*
X124563333Y-56526247D02*
X124515714Y-56716723D01*
X124515714Y-56716723D02*
X124468095Y-56811961D01*
X124468095Y-56811961D02*
X124372857Y-56907200D01*
X124372857Y-56907200D02*
X124230000Y-56954819D01*
X124230000Y-56954819D02*
X123991905Y-56954819D01*
X125420476Y-55954819D02*
X125230000Y-55954819D01*
X125230000Y-55954819D02*
X125134762Y-56002438D01*
X125134762Y-56002438D02*
X125087143Y-56050057D01*
X125087143Y-56050057D02*
X124991905Y-56192914D01*
X124991905Y-56192914D02*
X124944286Y-56383390D01*
X124944286Y-56383390D02*
X124944286Y-56764342D01*
X124944286Y-56764342D02*
X124991905Y-56859580D01*
X124991905Y-56859580D02*
X125039524Y-56907200D01*
X125039524Y-56907200D02*
X125134762Y-56954819D01*
X125134762Y-56954819D02*
X125325238Y-56954819D01*
X125325238Y-56954819D02*
X125420476Y-56907200D01*
X125420476Y-56907200D02*
X125468095Y-56859580D01*
X125468095Y-56859580D02*
X125515714Y-56764342D01*
X125515714Y-56764342D02*
X125515714Y-56526247D01*
X125515714Y-56526247D02*
X125468095Y-56431009D01*
X125468095Y-56431009D02*
X125420476Y-56383390D01*
X125420476Y-56383390D02*
X125325238Y-56335771D01*
X125325238Y-56335771D02*
X125134762Y-56335771D01*
X125134762Y-56335771D02*
X125039524Y-56383390D01*
X125039524Y-56383390D02*
X124991905Y-56431009D01*
X124991905Y-56431009D02*
X124944286Y-56526247D01*
X126991905Y-109994819D02*
X126991905Y-108994819D01*
X126991905Y-108994819D02*
X127230000Y-108994819D01*
X127230000Y-108994819D02*
X127372857Y-109042438D01*
X127372857Y-109042438D02*
X127468095Y-109137676D01*
X127468095Y-109137676D02*
X127515714Y-109232914D01*
X127515714Y-109232914D02*
X127563333Y-109423390D01*
X127563333Y-109423390D02*
X127563333Y-109566247D01*
X127563333Y-109566247D02*
X127515714Y-109756723D01*
X127515714Y-109756723D02*
X127468095Y-109851961D01*
X127468095Y-109851961D02*
X127372857Y-109947200D01*
X127372857Y-109947200D02*
X127230000Y-109994819D01*
X127230000Y-109994819D02*
X126991905Y-109994819D01*
X128515714Y-109994819D02*
X127944286Y-109994819D01*
X128230000Y-109994819D02*
X128230000Y-108994819D01*
X128230000Y-108994819D02*
X128134762Y-109137676D01*
X128134762Y-109137676D02*
X128039524Y-109232914D01*
X128039524Y-109232914D02*
X127944286Y-109280533D01*
X100616666Y-102564819D02*
X100616666Y-103279104D01*
X100616666Y-103279104D02*
X100569047Y-103421961D01*
X100569047Y-103421961D02*
X100473809Y-103517200D01*
X100473809Y-103517200D02*
X100330952Y-103564819D01*
X100330952Y-103564819D02*
X100235714Y-103564819D01*
X101616666Y-103564819D02*
X101045238Y-103564819D01*
X101330952Y-103564819D02*
X101330952Y-102564819D01*
X101330952Y-102564819D02*
X101235714Y-102707676D01*
X101235714Y-102707676D02*
X101140476Y-102802914D01*
X101140476Y-102802914D02*
X101045238Y-102850533D01*
X119333333Y-63954819D02*
X119000000Y-63478628D01*
X118761905Y-63954819D02*
X118761905Y-62954819D01*
X118761905Y-62954819D02*
X119142857Y-62954819D01*
X119142857Y-62954819D02*
X119238095Y-63002438D01*
X119238095Y-63002438D02*
X119285714Y-63050057D01*
X119285714Y-63050057D02*
X119333333Y-63145295D01*
X119333333Y-63145295D02*
X119333333Y-63288152D01*
X119333333Y-63288152D02*
X119285714Y-63383390D01*
X119285714Y-63383390D02*
X119238095Y-63431009D01*
X119238095Y-63431009D02*
X119142857Y-63478628D01*
X119142857Y-63478628D02*
X118761905Y-63478628D01*
X119809524Y-63954819D02*
X120000000Y-63954819D01*
X120000000Y-63954819D02*
X120095238Y-63907200D01*
X120095238Y-63907200D02*
X120142857Y-63859580D01*
X120142857Y-63859580D02*
X120238095Y-63716723D01*
X120238095Y-63716723D02*
X120285714Y-63526247D01*
X120285714Y-63526247D02*
X120285714Y-63145295D01*
X120285714Y-63145295D02*
X120238095Y-63050057D01*
X120238095Y-63050057D02*
X120190476Y-63002438D01*
X120190476Y-63002438D02*
X120095238Y-62954819D01*
X120095238Y-62954819D02*
X119904762Y-62954819D01*
X119904762Y-62954819D02*
X119809524Y-63002438D01*
X119809524Y-63002438D02*
X119761905Y-63050057D01*
X119761905Y-63050057D02*
X119714286Y-63145295D01*
X119714286Y-63145295D02*
X119714286Y-63383390D01*
X119714286Y-63383390D02*
X119761905Y-63478628D01*
X119761905Y-63478628D02*
X119809524Y-63526247D01*
X119809524Y-63526247D02*
X119904762Y-63573866D01*
X119904762Y-63573866D02*
X120095238Y-63573866D01*
X120095238Y-63573866D02*
X120190476Y-63526247D01*
X120190476Y-63526247D02*
X120238095Y-63478628D01*
X120238095Y-63478628D02*
X120285714Y-63383390D01*
X155333333Y-59454819D02*
X155000000Y-58978628D01*
X154761905Y-59454819D02*
X154761905Y-58454819D01*
X154761905Y-58454819D02*
X155142857Y-58454819D01*
X155142857Y-58454819D02*
X155238095Y-58502438D01*
X155238095Y-58502438D02*
X155285714Y-58550057D01*
X155285714Y-58550057D02*
X155333333Y-58645295D01*
X155333333Y-58645295D02*
X155333333Y-58788152D01*
X155333333Y-58788152D02*
X155285714Y-58883390D01*
X155285714Y-58883390D02*
X155238095Y-58931009D01*
X155238095Y-58931009D02*
X155142857Y-58978628D01*
X155142857Y-58978628D02*
X154761905Y-58978628D01*
X156285714Y-59454819D02*
X155714286Y-59454819D01*
X156000000Y-59454819D02*
X156000000Y-58454819D01*
X156000000Y-58454819D02*
X155904762Y-58597676D01*
X155904762Y-58597676D02*
X155809524Y-58692914D01*
X155809524Y-58692914D02*
X155714286Y-58740533D01*
X183833333Y-59454819D02*
X183500000Y-58978628D01*
X183261905Y-59454819D02*
X183261905Y-58454819D01*
X183261905Y-58454819D02*
X183642857Y-58454819D01*
X183642857Y-58454819D02*
X183738095Y-58502438D01*
X183738095Y-58502438D02*
X183785714Y-58550057D01*
X183785714Y-58550057D02*
X183833333Y-58645295D01*
X183833333Y-58645295D02*
X183833333Y-58788152D01*
X183833333Y-58788152D02*
X183785714Y-58883390D01*
X183785714Y-58883390D02*
X183738095Y-58931009D01*
X183738095Y-58931009D02*
X183642857Y-58978628D01*
X183642857Y-58978628D02*
X183261905Y-58978628D01*
X184214286Y-58550057D02*
X184261905Y-58502438D01*
X184261905Y-58502438D02*
X184357143Y-58454819D01*
X184357143Y-58454819D02*
X184595238Y-58454819D01*
X184595238Y-58454819D02*
X184690476Y-58502438D01*
X184690476Y-58502438D02*
X184738095Y-58550057D01*
X184738095Y-58550057D02*
X184785714Y-58645295D01*
X184785714Y-58645295D02*
X184785714Y-58740533D01*
X184785714Y-58740533D02*
X184738095Y-58883390D01*
X184738095Y-58883390D02*
X184166667Y-59454819D01*
X184166667Y-59454819D02*
X184785714Y-59454819D01*
X144523333Y-104954819D02*
X144190000Y-104478628D01*
X143951905Y-104954819D02*
X143951905Y-103954819D01*
X143951905Y-103954819D02*
X144332857Y-103954819D01*
X144332857Y-103954819D02*
X144428095Y-104002438D01*
X144428095Y-104002438D02*
X144475714Y-104050057D01*
X144475714Y-104050057D02*
X144523333Y-104145295D01*
X144523333Y-104145295D02*
X144523333Y-104288152D01*
X144523333Y-104288152D02*
X144475714Y-104383390D01*
X144475714Y-104383390D02*
X144428095Y-104431009D01*
X144428095Y-104431009D02*
X144332857Y-104478628D01*
X144332857Y-104478628D02*
X143951905Y-104478628D01*
X144856667Y-103954819D02*
X145523333Y-103954819D01*
X145523333Y-103954819D02*
X145094762Y-104954819D01*
X162833333Y-61034819D02*
X162500000Y-60558628D01*
X162261905Y-61034819D02*
X162261905Y-60034819D01*
X162261905Y-60034819D02*
X162642857Y-60034819D01*
X162642857Y-60034819D02*
X162738095Y-60082438D01*
X162738095Y-60082438D02*
X162785714Y-60130057D01*
X162785714Y-60130057D02*
X162833333Y-60225295D01*
X162833333Y-60225295D02*
X162833333Y-60368152D01*
X162833333Y-60368152D02*
X162785714Y-60463390D01*
X162785714Y-60463390D02*
X162738095Y-60511009D01*
X162738095Y-60511009D02*
X162642857Y-60558628D01*
X162642857Y-60558628D02*
X162261905Y-60558628D01*
X163690476Y-60034819D02*
X163500000Y-60034819D01*
X163500000Y-60034819D02*
X163404762Y-60082438D01*
X163404762Y-60082438D02*
X163357143Y-60130057D01*
X163357143Y-60130057D02*
X163261905Y-60272914D01*
X163261905Y-60272914D02*
X163214286Y-60463390D01*
X163214286Y-60463390D02*
X163214286Y-60844342D01*
X163214286Y-60844342D02*
X163261905Y-60939580D01*
X163261905Y-60939580D02*
X163309524Y-60987200D01*
X163309524Y-60987200D02*
X163404762Y-61034819D01*
X163404762Y-61034819D02*
X163595238Y-61034819D01*
X163595238Y-61034819D02*
X163690476Y-60987200D01*
X163690476Y-60987200D02*
X163738095Y-60939580D01*
X163738095Y-60939580D02*
X163785714Y-60844342D01*
X163785714Y-60844342D02*
X163785714Y-60606247D01*
X163785714Y-60606247D02*
X163738095Y-60511009D01*
X163738095Y-60511009D02*
X163690476Y-60463390D01*
X163690476Y-60463390D02*
X163595238Y-60415771D01*
X163595238Y-60415771D02*
X163404762Y-60415771D01*
X163404762Y-60415771D02*
X163309524Y-60463390D01*
X163309524Y-60463390D02*
X163261905Y-60511009D01*
X163261905Y-60511009D02*
X163214286Y-60606247D01*
X151023809Y-69978628D02*
X151023809Y-70454819D01*
X150690476Y-69454819D02*
X151023809Y-69978628D01*
X151023809Y-69978628D02*
X151357142Y-69454819D01*
X151642857Y-69550057D02*
X151690476Y-69502438D01*
X151690476Y-69502438D02*
X151785714Y-69454819D01*
X151785714Y-69454819D02*
X152023809Y-69454819D01*
X152023809Y-69454819D02*
X152119047Y-69502438D01*
X152119047Y-69502438D02*
X152166666Y-69550057D01*
X152166666Y-69550057D02*
X152214285Y-69645295D01*
X152214285Y-69645295D02*
X152214285Y-69740533D01*
X152214285Y-69740533D02*
X152166666Y-69883390D01*
X152166666Y-69883390D02*
X151595238Y-70454819D01*
X151595238Y-70454819D02*
X152214285Y-70454819D01*
X188031905Y-102454819D02*
X188031905Y-101454819D01*
X188031905Y-101454819D02*
X188270000Y-101454819D01*
X188270000Y-101454819D02*
X188412857Y-101502438D01*
X188412857Y-101502438D02*
X188508095Y-101597676D01*
X188508095Y-101597676D02*
X188555714Y-101692914D01*
X188555714Y-101692914D02*
X188603333Y-101883390D01*
X188603333Y-101883390D02*
X188603333Y-102026247D01*
X188603333Y-102026247D02*
X188555714Y-102216723D01*
X188555714Y-102216723D02*
X188508095Y-102311961D01*
X188508095Y-102311961D02*
X188412857Y-102407200D01*
X188412857Y-102407200D02*
X188270000Y-102454819D01*
X188270000Y-102454819D02*
X188031905Y-102454819D01*
X188984286Y-101550057D02*
X189031905Y-101502438D01*
X189031905Y-101502438D02*
X189127143Y-101454819D01*
X189127143Y-101454819D02*
X189365238Y-101454819D01*
X189365238Y-101454819D02*
X189460476Y-101502438D01*
X189460476Y-101502438D02*
X189508095Y-101550057D01*
X189508095Y-101550057D02*
X189555714Y-101645295D01*
X189555714Y-101645295D02*
X189555714Y-101740533D01*
X189555714Y-101740533D02*
X189508095Y-101883390D01*
X189508095Y-101883390D02*
X188936667Y-102454819D01*
X188936667Y-102454819D02*
X189555714Y-102454819D01*
D13*
X106964285Y-80728295D02*
X106488095Y-80728295D01*
X107059523Y-80442580D02*
X106726190Y-81442580D01*
X106726190Y-81442580D02*
X106392857Y-80442580D01*
X105535714Y-80442580D02*
X106107142Y-80442580D01*
X105821428Y-80442580D02*
X105821428Y-81442580D01*
X105821428Y-81442580D02*
X105916666Y-81299723D01*
X105916666Y-81299723D02*
X106011904Y-81204485D01*
X106011904Y-81204485D02*
X106107142Y-81156866D01*
D12*
X107141904Y-63045180D02*
X107141904Y-62235657D01*
X107141904Y-62235657D02*
X107094285Y-62140419D01*
X107094285Y-62140419D02*
X107046666Y-62092800D01*
X107046666Y-62092800D02*
X106951428Y-62045180D01*
X106951428Y-62045180D02*
X106760952Y-62045180D01*
X106760952Y-62045180D02*
X106665714Y-62092800D01*
X106665714Y-62092800D02*
X106618095Y-62140419D01*
X106618095Y-62140419D02*
X106570476Y-62235657D01*
X106570476Y-62235657D02*
X106570476Y-63045180D01*
X106141904Y-62092800D02*
X105999047Y-62045180D01*
X105999047Y-62045180D02*
X105760952Y-62045180D01*
X105760952Y-62045180D02*
X105665714Y-62092800D01*
X105665714Y-62092800D02*
X105618095Y-62140419D01*
X105618095Y-62140419D02*
X105570476Y-62235657D01*
X105570476Y-62235657D02*
X105570476Y-62330895D01*
X105570476Y-62330895D02*
X105618095Y-62426133D01*
X105618095Y-62426133D02*
X105665714Y-62473752D01*
X105665714Y-62473752D02*
X105760952Y-62521371D01*
X105760952Y-62521371D02*
X105951428Y-62568990D01*
X105951428Y-62568990D02*
X106046666Y-62616609D01*
X106046666Y-62616609D02*
X106094285Y-62664228D01*
X106094285Y-62664228D02*
X106141904Y-62759466D01*
X106141904Y-62759466D02*
X106141904Y-62854704D01*
X106141904Y-62854704D02*
X106094285Y-62949942D01*
X106094285Y-62949942D02*
X106046666Y-62997561D01*
X106046666Y-62997561D02*
X105951428Y-63045180D01*
X105951428Y-63045180D02*
X105713333Y-63045180D01*
X105713333Y-63045180D02*
X105570476Y-62997561D01*
X104808571Y-62568990D02*
X104665714Y-62521371D01*
X104665714Y-62521371D02*
X104618095Y-62473752D01*
X104618095Y-62473752D02*
X104570476Y-62378514D01*
X104570476Y-62378514D02*
X104570476Y-62235657D01*
X104570476Y-62235657D02*
X104618095Y-62140419D01*
X104618095Y-62140419D02*
X104665714Y-62092800D01*
X104665714Y-62092800D02*
X104760952Y-62045180D01*
X104760952Y-62045180D02*
X105141904Y-62045180D01*
X105141904Y-62045180D02*
X105141904Y-63045180D01*
X105141904Y-63045180D02*
X104808571Y-63045180D01*
X104808571Y-63045180D02*
X104713333Y-62997561D01*
X104713333Y-62997561D02*
X104665714Y-62949942D01*
X104665714Y-62949942D02*
X104618095Y-62854704D01*
X104618095Y-62854704D02*
X104618095Y-62759466D01*
X104618095Y-62759466D02*
X104665714Y-62664228D01*
X104665714Y-62664228D02*
X104713333Y-62616609D01*
X104713333Y-62616609D02*
X104808571Y-62568990D01*
X104808571Y-62568990D02*
X105141904Y-62568990D01*
X161991905Y-71914819D02*
X161991905Y-70914819D01*
X161991905Y-70914819D02*
X162230000Y-70914819D01*
X162230000Y-70914819D02*
X162372857Y-70962438D01*
X162372857Y-70962438D02*
X162468095Y-71057676D01*
X162468095Y-71057676D02*
X162515714Y-71152914D01*
X162515714Y-71152914D02*
X162563333Y-71343390D01*
X162563333Y-71343390D02*
X162563333Y-71486247D01*
X162563333Y-71486247D02*
X162515714Y-71676723D01*
X162515714Y-71676723D02*
X162468095Y-71771961D01*
X162468095Y-71771961D02*
X162372857Y-71867200D01*
X162372857Y-71867200D02*
X162230000Y-71914819D01*
X162230000Y-71914819D02*
X161991905Y-71914819D01*
X162896667Y-70914819D02*
X163515714Y-70914819D01*
X163515714Y-70914819D02*
X163182381Y-71295771D01*
X163182381Y-71295771D02*
X163325238Y-71295771D01*
X163325238Y-71295771D02*
X163420476Y-71343390D01*
X163420476Y-71343390D02*
X163468095Y-71391009D01*
X163468095Y-71391009D02*
X163515714Y-71486247D01*
X163515714Y-71486247D02*
X163515714Y-71724342D01*
X163515714Y-71724342D02*
X163468095Y-71819580D01*
X163468095Y-71819580D02*
X163420476Y-71867200D01*
X163420476Y-71867200D02*
X163325238Y-71914819D01*
X163325238Y-71914819D02*
X163039524Y-71914819D01*
X163039524Y-71914819D02*
X162944286Y-71867200D01*
X162944286Y-71867200D02*
X162896667Y-71819580D01*
X119023333Y-112034819D02*
X118690000Y-111558628D01*
X118451905Y-112034819D02*
X118451905Y-111034819D01*
X118451905Y-111034819D02*
X118832857Y-111034819D01*
X118832857Y-111034819D02*
X118928095Y-111082438D01*
X118928095Y-111082438D02*
X118975714Y-111130057D01*
X118975714Y-111130057D02*
X119023333Y-111225295D01*
X119023333Y-111225295D02*
X119023333Y-111368152D01*
X119023333Y-111368152D02*
X118975714Y-111463390D01*
X118975714Y-111463390D02*
X118928095Y-111511009D01*
X118928095Y-111511009D02*
X118832857Y-111558628D01*
X118832857Y-111558628D02*
X118451905Y-111558628D01*
X119880476Y-111368152D02*
X119880476Y-112034819D01*
X119642381Y-110987200D02*
X119404286Y-111701485D01*
X119404286Y-111701485D02*
X120023333Y-111701485D01*
X181333333Y-70534819D02*
X181000000Y-70058628D01*
X180761905Y-70534819D02*
X180761905Y-69534819D01*
X180761905Y-69534819D02*
X181142857Y-69534819D01*
X181142857Y-69534819D02*
X181238095Y-69582438D01*
X181238095Y-69582438D02*
X181285714Y-69630057D01*
X181285714Y-69630057D02*
X181333333Y-69725295D01*
X181333333Y-69725295D02*
X181333333Y-69868152D01*
X181333333Y-69868152D02*
X181285714Y-69963390D01*
X181285714Y-69963390D02*
X181238095Y-70011009D01*
X181238095Y-70011009D02*
X181142857Y-70058628D01*
X181142857Y-70058628D02*
X180761905Y-70058628D01*
X181904762Y-69963390D02*
X181809524Y-69915771D01*
X181809524Y-69915771D02*
X181761905Y-69868152D01*
X181761905Y-69868152D02*
X181714286Y-69772914D01*
X181714286Y-69772914D02*
X181714286Y-69725295D01*
X181714286Y-69725295D02*
X181761905Y-69630057D01*
X181761905Y-69630057D02*
X181809524Y-69582438D01*
X181809524Y-69582438D02*
X181904762Y-69534819D01*
X181904762Y-69534819D02*
X182095238Y-69534819D01*
X182095238Y-69534819D02*
X182190476Y-69582438D01*
X182190476Y-69582438D02*
X182238095Y-69630057D01*
X182238095Y-69630057D02*
X182285714Y-69725295D01*
X182285714Y-69725295D02*
X182285714Y-69772914D01*
X182285714Y-69772914D02*
X182238095Y-69868152D01*
X182238095Y-69868152D02*
X182190476Y-69915771D01*
X182190476Y-69915771D02*
X182095238Y-69963390D01*
X182095238Y-69963390D02*
X181904762Y-69963390D01*
X181904762Y-69963390D02*
X181809524Y-70011009D01*
X181809524Y-70011009D02*
X181761905Y-70058628D01*
X181761905Y-70058628D02*
X181714286Y-70153866D01*
X181714286Y-70153866D02*
X181714286Y-70344342D01*
X181714286Y-70344342D02*
X181761905Y-70439580D01*
X181761905Y-70439580D02*
X181809524Y-70487200D01*
X181809524Y-70487200D02*
X181904762Y-70534819D01*
X181904762Y-70534819D02*
X182095238Y-70534819D01*
X182095238Y-70534819D02*
X182190476Y-70487200D01*
X182190476Y-70487200D02*
X182238095Y-70439580D01*
X182238095Y-70439580D02*
X182285714Y-70344342D01*
X182285714Y-70344342D02*
X182285714Y-70153866D01*
X182285714Y-70153866D02*
X182238095Y-70058628D01*
X182238095Y-70058628D02*
X182190476Y-70011009D01*
X182190476Y-70011009D02*
X182095238Y-69963390D01*
X182491905Y-80914819D02*
X182491905Y-79914819D01*
X182491905Y-79914819D02*
X182730000Y-79914819D01*
X182730000Y-79914819D02*
X182872857Y-79962438D01*
X182872857Y-79962438D02*
X182968095Y-80057676D01*
X182968095Y-80057676D02*
X183015714Y-80152914D01*
X183015714Y-80152914D02*
X183063333Y-80343390D01*
X183063333Y-80343390D02*
X183063333Y-80486247D01*
X183063333Y-80486247D02*
X183015714Y-80676723D01*
X183015714Y-80676723D02*
X182968095Y-80771961D01*
X182968095Y-80771961D02*
X182872857Y-80867200D01*
X182872857Y-80867200D02*
X182730000Y-80914819D01*
X182730000Y-80914819D02*
X182491905Y-80914819D01*
X183968095Y-79914819D02*
X183491905Y-79914819D01*
X183491905Y-79914819D02*
X183444286Y-80391009D01*
X183444286Y-80391009D02*
X183491905Y-80343390D01*
X183491905Y-80343390D02*
X183587143Y-80295771D01*
X183587143Y-80295771D02*
X183825238Y-80295771D01*
X183825238Y-80295771D02*
X183920476Y-80343390D01*
X183920476Y-80343390D02*
X183968095Y-80391009D01*
X183968095Y-80391009D02*
X184015714Y-80486247D01*
X184015714Y-80486247D02*
X184015714Y-80724342D01*
X184015714Y-80724342D02*
X183968095Y-80819580D01*
X183968095Y-80819580D02*
X183920476Y-80867200D01*
X183920476Y-80867200D02*
X183825238Y-80914819D01*
X183825238Y-80914819D02*
X183587143Y-80914819D01*
X183587143Y-80914819D02*
X183491905Y-80867200D01*
X183491905Y-80867200D02*
X183444286Y-80819580D01*
X186173809Y-69978628D02*
X186173809Y-70454819D01*
X185840476Y-69454819D02*
X186173809Y-69978628D01*
X186173809Y-69978628D02*
X186507142Y-69454819D01*
X187364285Y-70454819D02*
X186792857Y-70454819D01*
X187078571Y-70454819D02*
X187078571Y-69454819D01*
X187078571Y-69454819D02*
X186983333Y-69597676D01*
X186983333Y-69597676D02*
X186888095Y-69692914D01*
X186888095Y-69692914D02*
X186792857Y-69740533D01*
X186833333Y-113954819D02*
X186500000Y-113478628D01*
X186261905Y-113954819D02*
X186261905Y-112954819D01*
X186261905Y-112954819D02*
X186642857Y-112954819D01*
X186642857Y-112954819D02*
X186738095Y-113002438D01*
X186738095Y-113002438D02*
X186785714Y-113050057D01*
X186785714Y-113050057D02*
X186833333Y-113145295D01*
X186833333Y-113145295D02*
X186833333Y-113288152D01*
X186833333Y-113288152D02*
X186785714Y-113383390D01*
X186785714Y-113383390D02*
X186738095Y-113431009D01*
X186738095Y-113431009D02*
X186642857Y-113478628D01*
X186642857Y-113478628D02*
X186261905Y-113478628D01*
X187738095Y-112954819D02*
X187261905Y-112954819D01*
X187261905Y-112954819D02*
X187214286Y-113431009D01*
X187214286Y-113431009D02*
X187261905Y-113383390D01*
X187261905Y-113383390D02*
X187357143Y-113335771D01*
X187357143Y-113335771D02*
X187595238Y-113335771D01*
X187595238Y-113335771D02*
X187690476Y-113383390D01*
X187690476Y-113383390D02*
X187738095Y-113431009D01*
X187738095Y-113431009D02*
X187785714Y-113526247D01*
X187785714Y-113526247D02*
X187785714Y-113764342D01*
X187785714Y-113764342D02*
X187738095Y-113859580D01*
X187738095Y-113859580D02*
X187690476Y-113907200D01*
X187690476Y-113907200D02*
X187595238Y-113954819D01*
X187595238Y-113954819D02*
X187357143Y-113954819D01*
X187357143Y-113954819D02*
X187261905Y-113907200D01*
X187261905Y-113907200D02*
X187214286Y-113859580D01*
X146761905Y-93954819D02*
X146761905Y-92954819D01*
X146761905Y-92954819D02*
X147000000Y-92954819D01*
X147000000Y-92954819D02*
X147142857Y-93002438D01*
X147142857Y-93002438D02*
X147238095Y-93097676D01*
X147238095Y-93097676D02*
X147285714Y-93192914D01*
X147285714Y-93192914D02*
X147333333Y-93383390D01*
X147333333Y-93383390D02*
X147333333Y-93526247D01*
X147333333Y-93526247D02*
X147285714Y-93716723D01*
X147285714Y-93716723D02*
X147238095Y-93811961D01*
X147238095Y-93811961D02*
X147142857Y-93907200D01*
X147142857Y-93907200D02*
X147000000Y-93954819D01*
X147000000Y-93954819D02*
X146761905Y-93954819D01*
X148190476Y-93288152D02*
X148190476Y-93954819D01*
X147952381Y-92907200D02*
X147714286Y-93621485D01*
X147714286Y-93621485D02*
X148333333Y-93621485D01*
X114907200Y-109583332D02*
X114954819Y-109440475D01*
X114954819Y-109440475D02*
X114954819Y-109202380D01*
X114954819Y-109202380D02*
X114907200Y-109107142D01*
X114907200Y-109107142D02*
X114859580Y-109059523D01*
X114859580Y-109059523D02*
X114764342Y-109011904D01*
X114764342Y-109011904D02*
X114669104Y-109011904D01*
X114669104Y-109011904D02*
X114573866Y-109059523D01*
X114573866Y-109059523D02*
X114526247Y-109107142D01*
X114526247Y-109107142D02*
X114478628Y-109202380D01*
X114478628Y-109202380D02*
X114431009Y-109392856D01*
X114431009Y-109392856D02*
X114383390Y-109488094D01*
X114383390Y-109488094D02*
X114335771Y-109535713D01*
X114335771Y-109535713D02*
X114240533Y-109583332D01*
X114240533Y-109583332D02*
X114145295Y-109583332D01*
X114145295Y-109583332D02*
X114050057Y-109535713D01*
X114050057Y-109535713D02*
X114002438Y-109488094D01*
X114002438Y-109488094D02*
X113954819Y-109392856D01*
X113954819Y-109392856D02*
X113954819Y-109154761D01*
X113954819Y-109154761D02*
X114002438Y-109011904D01*
X113954819Y-108678570D02*
X114954819Y-108440475D01*
X114954819Y-108440475D02*
X114240533Y-108249999D01*
X114240533Y-108249999D02*
X114954819Y-108059523D01*
X114954819Y-108059523D02*
X113954819Y-107821428D01*
X114954819Y-106916666D02*
X114954819Y-107488094D01*
X114954819Y-107202380D02*
X113954819Y-107202380D01*
X113954819Y-107202380D02*
X114097676Y-107297618D01*
X114097676Y-107297618D02*
X114192914Y-107392856D01*
X114192914Y-107392856D02*
X114240533Y-107488094D01*
X100333333Y-112874819D02*
X100000000Y-112398628D01*
X99761905Y-112874819D02*
X99761905Y-111874819D01*
X99761905Y-111874819D02*
X100142857Y-111874819D01*
X100142857Y-111874819D02*
X100238095Y-111922438D01*
X100238095Y-111922438D02*
X100285714Y-111970057D01*
X100285714Y-111970057D02*
X100333333Y-112065295D01*
X100333333Y-112065295D02*
X100333333Y-112208152D01*
X100333333Y-112208152D02*
X100285714Y-112303390D01*
X100285714Y-112303390D02*
X100238095Y-112351009D01*
X100238095Y-112351009D02*
X100142857Y-112398628D01*
X100142857Y-112398628D02*
X99761905Y-112398628D01*
X100666667Y-111874819D02*
X101285714Y-111874819D01*
X101285714Y-111874819D02*
X100952381Y-112255771D01*
X100952381Y-112255771D02*
X101095238Y-112255771D01*
X101095238Y-112255771D02*
X101190476Y-112303390D01*
X101190476Y-112303390D02*
X101238095Y-112351009D01*
X101238095Y-112351009D02*
X101285714Y-112446247D01*
X101285714Y-112446247D02*
X101285714Y-112684342D01*
X101285714Y-112684342D02*
X101238095Y-112779580D01*
X101238095Y-112779580D02*
X101190476Y-112827200D01*
X101190476Y-112827200D02*
X101095238Y-112874819D01*
X101095238Y-112874819D02*
X100809524Y-112874819D01*
X100809524Y-112874819D02*
X100714286Y-112827200D01*
X100714286Y-112827200D02*
X100666667Y-112779580D01*
D14*
%TO.C,G\u002A\u002A\u002A*%
G36*
X127035670Y-71299236D02*
G01*
X127236326Y-71621487D01*
X127519612Y-71885002D01*
X127664421Y-71977901D01*
X127918191Y-72122836D01*
X127748172Y-72193260D01*
X127515028Y-72331639D01*
X127291671Y-72536420D01*
X127112657Y-72773553D01*
X127060918Y-72870462D01*
X126948661Y-73112207D01*
X126881779Y-72927246D01*
X126769374Y-72719918D01*
X126593627Y-72507535D01*
X126386926Y-72324278D01*
X126206991Y-72215081D01*
X125998304Y-72120976D01*
X126252117Y-71976017D01*
X126506669Y-71792276D01*
X126721905Y-71564130D01*
X126869967Y-71322282D01*
X126889649Y-71273371D01*
X126949660Y-71107842D01*
X127035670Y-71299236D01*
G37*
G36*
X130795843Y-74082985D02*
G01*
X130918805Y-74308883D01*
X131111582Y-74519244D01*
X131342307Y-74679432D01*
X131346613Y-74681643D01*
X131472925Y-74748638D01*
X131516618Y-74787192D01*
X131487559Y-74815233D01*
X131432181Y-74837113D01*
X131186135Y-74976247D01*
X130969406Y-75188713D01*
X130842654Y-75383859D01*
X130770332Y-75518077D01*
X130726840Y-75569242D01*
X130698675Y-75548706D01*
X130686207Y-75515372D01*
X130586586Y-75318197D01*
X130426205Y-75117635D01*
X130238891Y-74952230D01*
X130138271Y-74891010D01*
X129920337Y-74783185D01*
X130119741Y-74680944D01*
X130357753Y-74522170D01*
X130542240Y-74307439D01*
X130641638Y-74134020D01*
X130743278Y-73932196D01*
X130795843Y-74082985D01*
G37*
G36*
X127799954Y-77301935D02*
G01*
X127869974Y-77399171D01*
X127887780Y-77426844D01*
X128004876Y-77570383D01*
X128149835Y-77697603D01*
X128161053Y-77705352D01*
X128264023Y-77780041D01*
X128287610Y-77821040D01*
X128241049Y-77848054D01*
X128229675Y-77851773D01*
X128126128Y-77910713D01*
X128004353Y-78014131D01*
X127893317Y-78132647D01*
X127821991Y-78236878D01*
X127810183Y-78277234D01*
X127778790Y-78339521D01*
X127758452Y-78345010D01*
X127710911Y-78303879D01*
X127706721Y-78277234D01*
X127669302Y-78193201D01*
X127576356Y-78078843D01*
X127456854Y-77963541D01*
X127339764Y-77876675D01*
X127287229Y-77851773D01*
X127231745Y-77825140D01*
X127245139Y-77787233D01*
X127336646Y-77718345D01*
X127355852Y-77705352D01*
X127500273Y-77582364D01*
X127622066Y-77437722D01*
X127629124Y-77426844D01*
X127702286Y-77320554D01*
X127752613Y-77264990D01*
X127758452Y-77262641D01*
X127799954Y-77301935D01*
G37*
G36*
X126891066Y-68526625D02*
G01*
X126815303Y-68630841D01*
X126698823Y-68773219D01*
X126646935Y-68833267D01*
X126119819Y-69509020D01*
X125659058Y-70251869D01*
X125269124Y-71047773D01*
X124954491Y-71882691D01*
X124719634Y-72742581D01*
X124569025Y-73613403D01*
X124507139Y-74481115D01*
X124538449Y-75331677D01*
X124547625Y-75422199D01*
X124664471Y-76232631D01*
X124837410Y-76982792D01*
X125075694Y-77704665D01*
X125388576Y-78430231D01*
X125460520Y-78577800D01*
X125922624Y-79395193D01*
X126466251Y-80154891D01*
X127084380Y-80851021D01*
X127769988Y-81477704D01*
X128516054Y-82029064D01*
X129315554Y-82499227D01*
X130161468Y-82882315D01*
X130904024Y-83132880D01*
X131111709Y-83189859D01*
X131278926Y-83230900D01*
X131383149Y-83250738D01*
X131406112Y-83250235D01*
X131402761Y-83193808D01*
X131370857Y-83073901D01*
X131346067Y-82998794D01*
X131293771Y-82749358D01*
X131294206Y-82443230D01*
X131348364Y-82071816D01*
X131457237Y-81626520D01*
X131534131Y-81368262D01*
X131631881Y-81048551D01*
X131736467Y-80695109D01*
X131834307Y-80354411D01*
X131901626Y-80111011D01*
X132059897Y-79523245D01*
X131957710Y-79283313D01*
X131911645Y-79148834D01*
X131876362Y-78978300D01*
X131849157Y-78752259D01*
X131827326Y-78451260D01*
X131818249Y-78280346D01*
X131803547Y-77960125D01*
X131800279Y-77734317D01*
X131815413Y-77593968D01*
X131855919Y-77530124D01*
X131928768Y-77533834D01*
X132040928Y-77596142D01*
X132199370Y-77708095D01*
X132240440Y-77737995D01*
X132405579Y-77853536D01*
X132529249Y-77918934D01*
X132651654Y-77947558D01*
X132812999Y-77952776D01*
X132882876Y-77951614D01*
X133075114Y-77942086D01*
X133212974Y-77912762D01*
X133340775Y-77847903D01*
X133502838Y-77731768D01*
X133503650Y-77731152D01*
X133691811Y-77597529D01*
X133819173Y-77531847D01*
X133898972Y-77529774D01*
X133944400Y-77586870D01*
X133950912Y-77661705D01*
X133950278Y-77818764D01*
X133943021Y-78037095D01*
X133929665Y-78295743D01*
X133924683Y-78375962D01*
X133900191Y-78701136D01*
X133872803Y-78942264D01*
X133839349Y-79118765D01*
X133796655Y-79250053D01*
X133773930Y-79298883D01*
X133669586Y-79502270D01*
X133823692Y-80074658D01*
X133904857Y-80365864D01*
X134004406Y-80707858D01*
X134108336Y-81053165D01*
X134183252Y-81293686D01*
X134312665Y-81757939D01*
X134395401Y-82183204D01*
X134430127Y-82556358D01*
X134415512Y-82864274D01*
X134363061Y-83065478D01*
X134321775Y-83185356D01*
X134315538Y-83253529D01*
X134323188Y-83259470D01*
X134408122Y-83225146D01*
X134535401Y-83137478D01*
X134677495Y-83019426D01*
X134806875Y-82893946D01*
X134896009Y-82783998D01*
X134898871Y-82779392D01*
X134991039Y-82533521D01*
X134996854Y-82258488D01*
X134917776Y-81979845D01*
X134845456Y-81844934D01*
X134648236Y-81475539D01*
X134547979Y-81142217D01*
X134544684Y-80844974D01*
X134638351Y-80583815D01*
X134828982Y-80358744D01*
X134840939Y-80348537D01*
X135096310Y-80193291D01*
X135367190Y-80131185D01*
X135636132Y-80157285D01*
X135885686Y-80266659D01*
X136098403Y-80454376D01*
X136256834Y-80715502D01*
X136271951Y-80753056D01*
X136321984Y-80904113D01*
X136327322Y-80996947D01*
X136292497Y-81062819D01*
X136186490Y-81128591D01*
X136075116Y-81105645D01*
X135986545Y-81003140D01*
X135968372Y-80957433D01*
X135855411Y-80736368D01*
X135691694Y-80586856D01*
X135497100Y-80514952D01*
X135291507Y-80526709D01*
X135094794Y-80628180D01*
X135042117Y-80675382D01*
X134942634Y-80789493D01*
X134903950Y-80895004D01*
X134908301Y-81044093D01*
X134910318Y-81062513D01*
X134963329Y-81266145D01*
X135075465Y-81514271D01*
X135149558Y-81645128D01*
X135259588Y-81835822D01*
X135323681Y-81980913D01*
X135354000Y-82120403D01*
X135362708Y-82294296D01*
X135362933Y-82346921D01*
X135341482Y-82641775D01*
X135267434Y-82878210D01*
X135126244Y-83094016D01*
X135036607Y-83194806D01*
X134954008Y-83293690D01*
X134925190Y-83354128D01*
X134935440Y-83362932D01*
X135021695Y-83349311D01*
X135183116Y-83312747D01*
X135395670Y-83259695D01*
X135635324Y-83196607D01*
X135878046Y-83129937D01*
X136099802Y-83066136D01*
X136276561Y-83011659D01*
X136378338Y-82975505D01*
X136502849Y-82929933D01*
X136580144Y-82913724D01*
X136588843Y-82916201D01*
X136562629Y-82958036D01*
X136469379Y-83050826D01*
X136323848Y-83182158D01*
X136140787Y-83339620D01*
X135934950Y-83510801D01*
X135721088Y-83683289D01*
X135513955Y-83844673D01*
X135328304Y-83982540D01*
X135284235Y-84013800D01*
X134738901Y-84355817D01*
X134120030Y-84675137D01*
X133456984Y-84959842D01*
X132779123Y-85198012D01*
X132115810Y-85377730D01*
X131741752Y-85451757D01*
X131368067Y-85500625D01*
X130930295Y-85536266D01*
X130464755Y-85557376D01*
X130007764Y-85562649D01*
X129595640Y-85550779D01*
X129396684Y-85536033D01*
X128485239Y-85397890D01*
X127588313Y-85160213D01*
X126700475Y-84821414D01*
X126284114Y-84626461D01*
X125459901Y-84161109D01*
X124698772Y-83615965D01*
X124004575Y-82996065D01*
X123381157Y-82306445D01*
X122832367Y-81552140D01*
X122362051Y-80738186D01*
X121974060Y-79869617D01*
X121672239Y-78951470D01*
X121543380Y-78422606D01*
X121502393Y-78220921D01*
X121471703Y-78037084D01*
X121449902Y-77850761D01*
X121435582Y-77641617D01*
X121427336Y-77389316D01*
X121423757Y-77073525D01*
X121423407Y-76689613D01*
X121425325Y-76289399D01*
X121430461Y-75972548D01*
X121440223Y-75718976D01*
X121456019Y-75508598D01*
X121479258Y-75321330D01*
X121511348Y-75137088D01*
X121542979Y-74984632D01*
X121802692Y-74015174D01*
X122147586Y-73103041D01*
X122576519Y-72249920D01*
X123088349Y-71457498D01*
X123681935Y-70727462D01*
X124356135Y-70061497D01*
X125109807Y-69461291D01*
X125430550Y-69241782D01*
X125639057Y-69111353D01*
X125875402Y-68973428D01*
X126122361Y-68836870D01*
X126362704Y-68710541D01*
X126579207Y-68603304D01*
X126754640Y-68524022D01*
X126871779Y-68481555D01*
X126911707Y-68479799D01*
X126891066Y-68526625D01*
G37*
D15*
%TO.C,D6*%
X127290000Y-62045000D02*
X127290000Y-58955000D01*
X121740000Y-60500462D02*
G75*
G02*
X127290000Y-58955170I2990000J462D01*
G01*
X127290000Y-62044830D02*
G75*
G02*
X121740000Y-60499538I-2560000J1544830D01*
G01*
X127230000Y-60500000D02*
G75*
G02*
X122230000Y-60500000I-2500000J0D01*
G01*
X122230000Y-60500000D02*
G75*
G02*
X127230000Y-60500000I2500000J0D01*
G01*
%TO.C,D1*%
X125170000Y-111955000D02*
X125170000Y-115045000D01*
X125170000Y-111955170D02*
G75*
G02*
X130720000Y-113500462I2560000J-1544830D01*
G01*
X130720000Y-113499538D02*
G75*
G02*
X125170000Y-115044830I-2990000J-462D01*
G01*
X130230000Y-113500000D02*
G75*
G02*
X125230000Y-113500000I-2500000J0D01*
G01*
X125230000Y-113500000D02*
G75*
G02*
X130230000Y-113500000I2500000J0D01*
G01*
%TO.C,R9*%
X120320000Y-65500000D02*
X121270000Y-65500000D01*
X121270000Y-64580000D02*
X121270000Y-66420000D01*
X121270000Y-66420000D02*
X125110000Y-66420000D01*
X125110000Y-64580000D02*
X121270000Y-64580000D01*
X125110000Y-66420000D02*
X125110000Y-64580000D01*
X126060000Y-65500000D02*
X125110000Y-65500000D01*
%TO.C,R1*%
X149130000Y-57000000D02*
X150080000Y-57000000D01*
X150080000Y-56080000D02*
X150080000Y-57920000D01*
X150080000Y-57920000D02*
X153920000Y-57920000D01*
X153920000Y-56080000D02*
X150080000Y-56080000D01*
X153920000Y-57920000D02*
X153920000Y-56080000D01*
X154870000Y-57000000D02*
X153920000Y-57000000D01*
D14*
%TO.C,G\u002A\u002A\u002A*%
G36*
X168604142Y-113416568D02*
G01*
X168604142Y-114618935D01*
X166500000Y-114618935D01*
X164395858Y-114618935D01*
X164395858Y-113416568D01*
X164395858Y-112214201D01*
X166500000Y-112214201D01*
X168604142Y-112214201D01*
X168604142Y-113416568D01*
G37*
G36*
X166577154Y-115255281D02*
G01*
X167814713Y-115268558D01*
X168785528Y-115283478D01*
X169523445Y-115302406D01*
X170062311Y-115327705D01*
X170435972Y-115361737D01*
X170678276Y-115406867D01*
X170823068Y-115465458D01*
X170904194Y-115539873D01*
X170916659Y-115558284D01*
X171002162Y-115881363D01*
X170916657Y-116084320D01*
X170845053Y-116162268D01*
X170717266Y-116223963D01*
X170499549Y-116271749D01*
X170158156Y-116307968D01*
X169659339Y-116334961D01*
X168969353Y-116355073D01*
X168054451Y-116370646D01*
X166880886Y-116384022D01*
X166553617Y-116387197D01*
X165222319Y-116396232D01*
X164166757Y-116394737D01*
X163362234Y-116381909D01*
X162784050Y-116356942D01*
X162407508Y-116319031D01*
X162207910Y-116267370D01*
X162173765Y-116244416D01*
X162003502Y-115896900D01*
X162075213Y-115530808D01*
X162197300Y-115386406D01*
X162377627Y-115330916D01*
X162778340Y-115289781D01*
X163416162Y-115262501D01*
X164307820Y-115248574D01*
X165470038Y-115247500D01*
X166577154Y-115255281D01*
G37*
G36*
X178755944Y-94547607D02*
G01*
X179124852Y-94916515D01*
X179124852Y-102895858D01*
X179124852Y-110875202D01*
X178755944Y-111244110D01*
X178387036Y-111613018D01*
X166500000Y-111613018D01*
X154612964Y-111613018D01*
X154244056Y-111244110D01*
X153875148Y-110875202D01*
X153875148Y-107697685D01*
X164167989Y-107697685D01*
X164375617Y-107934659D01*
X164707821Y-108006686D01*
X165027149Y-107896111D01*
X165105117Y-107818048D01*
X165193188Y-107637458D01*
X165376714Y-107211013D01*
X165641751Y-106572834D01*
X165974356Y-105757043D01*
X166360585Y-104797762D01*
X166786495Y-103729112D01*
X167099383Y-102937787D01*
X167610257Y-101635572D01*
X168016434Y-100584397D01*
X168301074Y-99826322D01*
X170131526Y-99826322D01*
X170144805Y-100072005D01*
X170299355Y-100214967D01*
X170673950Y-100471308D01*
X171223496Y-100812792D01*
X171902896Y-101211180D01*
X172498310Y-101545660D01*
X173239236Y-101959618D01*
X173878732Y-102327127D01*
X174374099Y-102622810D01*
X174682634Y-102821290D01*
X174766272Y-102893502D01*
X174641381Y-102994324D01*
X174294975Y-103213713D01*
X173769461Y-103526353D01*
X173107243Y-103906929D01*
X172475825Y-104260889D01*
X171579876Y-104771728D01*
X170879924Y-105200246D01*
X170398243Y-105531815D01*
X170157108Y-105751808D01*
X170133828Y-105798840D01*
X170183853Y-106137655D01*
X170397880Y-106414384D01*
X170630278Y-106502959D01*
X170810782Y-106432653D01*
X171212748Y-106235799D01*
X171795807Y-105933494D01*
X172519587Y-105546836D01*
X173343719Y-105096921D01*
X173730514Y-104882805D01*
X174691079Y-104345354D01*
X175417942Y-103928246D01*
X175942482Y-103610088D01*
X176296076Y-103369488D01*
X176510101Y-103185055D01*
X176615936Y-103035396D01*
X176644958Y-102899120D01*
X176644971Y-102895858D01*
X176617432Y-102759832D01*
X176513931Y-102610901D01*
X176303137Y-102427719D01*
X175953723Y-102188941D01*
X175434359Y-101873221D01*
X174713717Y-101459211D01*
X173760466Y-100925566D01*
X173721261Y-100903768D01*
X172862715Y-100433554D01*
X172084263Y-100020565D01*
X171426620Y-99685319D01*
X170930503Y-99448339D01*
X170636628Y-99330143D01*
X170581157Y-99321188D01*
X170293274Y-99503857D01*
X170131526Y-99826322D01*
X168301074Y-99826322D01*
X168327065Y-99757102D01*
X168551303Y-99126531D01*
X168698299Y-98665524D01*
X168777205Y-98346924D01*
X168797172Y-98143572D01*
X168767352Y-98028310D01*
X168758052Y-98015598D01*
X168439825Y-97813382D01*
X168088021Y-97829742D01*
X167894439Y-97973669D01*
X167805477Y-98154363D01*
X167620226Y-98580243D01*
X167352888Y-99216946D01*
X167017668Y-100030113D01*
X166628769Y-100985380D01*
X166200393Y-102048386D01*
X165909637Y-102775495D01*
X165325741Y-104256083D01*
X164862255Y-105467028D01*
X164517410Y-106413328D01*
X164289438Y-107099980D01*
X164176570Y-107531984D01*
X164167989Y-107697685D01*
X153875148Y-107697685D01*
X153875148Y-102896253D01*
X156355030Y-102896253D01*
X156383099Y-103034082D01*
X156488319Y-103185416D01*
X156702205Y-103372059D01*
X157056273Y-103615811D01*
X157582039Y-103938474D01*
X158311020Y-104361850D01*
X159210651Y-104871661D01*
X160062741Y-105343259D01*
X160839969Y-105757811D01*
X161500033Y-106094009D01*
X162000631Y-106330543D01*
X162299460Y-106446103D01*
X162351515Y-106453847D01*
X162671684Y-106312123D01*
X162788748Y-106185222D01*
X162877388Y-105869946D01*
X162855195Y-105719712D01*
X162700646Y-105576749D01*
X162326051Y-105320408D01*
X161776505Y-104978925D01*
X161097104Y-104580536D01*
X160501690Y-104246057D01*
X159760731Y-103831950D01*
X159121213Y-103464067D01*
X158625843Y-103167834D01*
X158317328Y-102968675D01*
X158233728Y-102895858D01*
X158358760Y-102794410D01*
X158705386Y-102575206D01*
X159230897Y-102263672D01*
X159892587Y-101885234D01*
X160501690Y-101545660D01*
X161251472Y-101122372D01*
X161906825Y-100733808D01*
X162422652Y-100408204D01*
X162753859Y-100173798D01*
X162855195Y-100072005D01*
X162844853Y-99741527D01*
X162643916Y-99439932D01*
X162418843Y-99321188D01*
X162229468Y-99379116D01*
X161819493Y-99565081D01*
X161229635Y-99858563D01*
X160500610Y-100239042D01*
X159673135Y-100685995D01*
X159278739Y-100903768D01*
X158316603Y-101442067D01*
X157588188Y-101859954D01*
X157062156Y-102178786D01*
X156707166Y-102419920D01*
X156491881Y-102604715D01*
X156384961Y-102754526D01*
X156355067Y-102890711D01*
X156355030Y-102896253D01*
X153875148Y-102896253D01*
X153875148Y-102895858D01*
X153875148Y-94916515D01*
X154244056Y-94547607D01*
X154612964Y-94178699D01*
X166500000Y-94178699D01*
X178387036Y-94178699D01*
X178755944Y-94547607D01*
G37*
D15*
%TO.C,R2*%
X184320000Y-57000000D02*
X185270000Y-57000000D01*
X185270000Y-56080000D02*
X185270000Y-57920000D01*
X185270000Y-57920000D02*
X189110000Y-57920000D01*
X189110000Y-56080000D02*
X185270000Y-56080000D01*
X189110000Y-57920000D02*
X189110000Y-56080000D01*
X190060000Y-57000000D02*
X189110000Y-57000000D01*
D14*
%TO.C,G\u002A\u002A\u002A*%
G36*
X136241168Y-104749593D02*
G01*
X136262706Y-104755242D01*
X136278911Y-104766384D01*
X136284182Y-104771430D01*
X136304763Y-104797521D01*
X136308278Y-104822744D01*
X136294576Y-104854705D01*
X136282127Y-104874246D01*
X136244503Y-104914224D01*
X136188904Y-104953336D01*
X136121410Y-104989135D01*
X136048101Y-105019176D01*
X135975058Y-105041013D01*
X135908360Y-105052200D01*
X135854088Y-105050290D01*
X135848023Y-105048889D01*
X135822760Y-105036253D01*
X135814250Y-105013808D01*
X135822261Y-104978223D01*
X135840367Y-104938139D01*
X135891154Y-104862949D01*
X135957737Y-104806918D01*
X136040402Y-104769874D01*
X136139437Y-104751648D01*
X136155994Y-104750511D01*
X136207772Y-104748371D01*
X136241168Y-104749593D01*
G37*
G36*
X136139449Y-105881400D02*
G01*
X136180550Y-105904791D01*
X136209599Y-105946067D01*
X136227095Y-106001477D01*
X136233536Y-106067270D01*
X136229419Y-106139694D01*
X136215243Y-106214998D01*
X136191506Y-106289432D01*
X136158706Y-106359243D01*
X136117340Y-106420680D01*
X136067908Y-106469994D01*
X136060562Y-106475577D01*
X136008862Y-106502739D01*
X135961126Y-106505322D01*
X135916800Y-106483344D01*
X135913993Y-106481040D01*
X135879207Y-106437674D01*
X135858840Y-106381362D01*
X135851558Y-106315652D01*
X135856027Y-106244093D01*
X135870913Y-106170233D01*
X135894882Y-106097619D01*
X135926599Y-106029801D01*
X135964731Y-105970326D01*
X136007944Y-105922742D01*
X136054904Y-105890598D01*
X136104276Y-105877442D01*
X136139449Y-105881400D01*
G37*
G36*
X137025654Y-105770195D02*
G01*
X137067498Y-105797682D01*
X137095272Y-105832468D01*
X137109381Y-105870084D01*
X137116795Y-105924783D01*
X137117678Y-105989597D01*
X137112198Y-106057558D01*
X137100521Y-106121696D01*
X137087348Y-106164256D01*
X137057499Y-106226147D01*
X137019010Y-106285230D01*
X136976611Y-106335504D01*
X136935033Y-106370967D01*
X136916447Y-106381095D01*
X136877842Y-106394669D01*
X136848276Y-106396216D01*
X136815167Y-106386285D01*
X136813430Y-106385592D01*
X136789956Y-106366296D01*
X136766209Y-106330774D01*
X136758653Y-106315248D01*
X136739849Y-106245274D01*
X136737567Y-106163871D01*
X136750371Y-106077026D01*
X136776829Y-105990721D01*
X136815503Y-105910941D01*
X136864960Y-105843671D01*
X136873988Y-105834258D01*
X136929335Y-105788480D01*
X136979745Y-105767127D01*
X137025654Y-105770195D01*
G37*
G36*
X138301014Y-106567185D02*
G01*
X138401799Y-106585137D01*
X138493265Y-106617297D01*
X138571350Y-106662496D01*
X138631991Y-106719562D01*
X138646782Y-106739733D01*
X138676016Y-106805085D01*
X138686512Y-106879733D01*
X138677875Y-106955967D01*
X138660404Y-107005785D01*
X138621652Y-107067720D01*
X138565816Y-107129703D01*
X138499830Y-107184792D01*
X138450449Y-107216007D01*
X138363183Y-107253488D01*
X138262866Y-107280172D01*
X138156850Y-107295243D01*
X138052490Y-107297890D01*
X137957140Y-107287298D01*
X137911472Y-107275622D01*
X137843874Y-107251201D01*
X137793039Y-107225445D01*
X137750974Y-107193476D01*
X137713647Y-107154957D01*
X137668602Y-107087722D01*
X137646592Y-107016921D01*
X137646279Y-106944612D01*
X137666327Y-106872855D01*
X137705400Y-106803709D01*
X137762160Y-106739235D01*
X137835270Y-106681491D01*
X137923395Y-106632537D01*
X138025198Y-106594433D01*
X138087735Y-106578590D01*
X138194972Y-106564612D01*
X138301014Y-106567185D01*
G37*
G36*
X146714872Y-111258493D02*
G01*
X146858478Y-111262180D01*
X146983184Y-111268190D01*
X147090199Y-111276625D01*
X147180731Y-111287584D01*
X147255990Y-111301169D01*
X147317185Y-111317479D01*
X147365525Y-111336617D01*
X147402219Y-111358682D01*
X147428477Y-111383775D01*
X147433488Y-111390442D01*
X147445396Y-111414944D01*
X147441977Y-111435944D01*
X147421010Y-111455336D01*
X147380273Y-111475014D01*
X147317546Y-111496872D01*
X147303526Y-111501252D01*
X147230652Y-111525246D01*
X147178594Y-111547331D01*
X147143720Y-111570885D01*
X147122398Y-111599287D01*
X147110997Y-111635912D01*
X147105885Y-111684140D01*
X147105830Y-111685115D01*
X147111408Y-111802342D01*
X147140277Y-111919141D01*
X147190949Y-112031683D01*
X147261935Y-112136138D01*
X147296494Y-112175661D01*
X147332073Y-112215551D01*
X147359886Y-112250554D01*
X147376077Y-112275617D01*
X147378631Y-112283333D01*
X147367141Y-112313131D01*
X147335721Y-112344469D01*
X147288946Y-112373879D01*
X147231392Y-112397893D01*
X147224646Y-112400042D01*
X147166037Y-112414281D01*
X147082825Y-112428444D01*
X146975422Y-112442479D01*
X146844238Y-112456336D01*
X146689682Y-112469964D01*
X146603250Y-112476715D01*
X146521999Y-112483621D01*
X146461591Y-112491398D01*
X146417864Y-112501627D01*
X146386657Y-112515883D01*
X146363811Y-112535744D01*
X146345166Y-112562789D01*
X146337075Y-112577649D01*
X146320649Y-112631989D01*
X146322196Y-112664304D01*
X146348373Y-112750751D01*
X146396228Y-112838917D01*
X146462835Y-112926011D01*
X146545270Y-113009238D01*
X146640608Y-113085808D01*
X146745925Y-113152926D01*
X146858295Y-113207802D01*
X146913440Y-113228821D01*
X146959507Y-113244428D01*
X146997168Y-113255618D01*
X147032215Y-113263151D01*
X147070438Y-113267788D01*
X147117629Y-113270287D01*
X147179576Y-113271409D01*
X147241064Y-113271813D01*
X147334954Y-113273297D01*
X147406132Y-113276682D01*
X147453816Y-113281914D01*
X147475554Y-113287912D01*
X147498802Y-113312338D01*
X147502251Y-113348124D01*
X147487046Y-113392956D01*
X147454334Y-113444523D01*
X147405260Y-113500512D01*
X147341749Y-113557974D01*
X147295660Y-113596829D01*
X147266124Y-113625801D01*
X147249568Y-113649857D01*
X147242417Y-113673963D01*
X147241064Y-113697906D01*
X147244175Y-113725209D01*
X147255410Y-113753863D01*
X147277627Y-113789082D01*
X147313679Y-113836076D01*
X147323227Y-113847870D01*
X147368526Y-113913582D01*
X147392128Y-113972159D01*
X147393889Y-114022389D01*
X147373665Y-114063059D01*
X147351051Y-114082283D01*
X147326645Y-114095152D01*
X147294599Y-114106079D01*
X147251854Y-114115553D01*
X147195349Y-114124063D01*
X147122025Y-114132099D01*
X147028820Y-114140147D01*
X146953422Y-114145813D01*
X146867042Y-114152043D01*
X146762841Y-114159565D01*
X146647944Y-114167865D01*
X146529476Y-114176428D01*
X146414564Y-114184739D01*
X146346874Y-114189638D01*
X146141672Y-114204362D01*
X145958639Y-114217178D01*
X145795014Y-114228221D01*
X145648038Y-114237630D01*
X145514949Y-114245541D01*
X145392989Y-114252091D01*
X145279397Y-114257419D01*
X145171413Y-114261659D01*
X145066277Y-114264951D01*
X144961230Y-114267431D01*
X144853510Y-114269236D01*
X144740357Y-114270503D01*
X144714821Y-114270720D01*
X144603037Y-114271487D01*
X144496577Y-114271955D01*
X144398621Y-114272129D01*
X144312351Y-114272015D01*
X144240947Y-114271618D01*
X144187592Y-114270944D01*
X144155465Y-114269996D01*
X144152044Y-114269788D01*
X144072563Y-114263026D01*
X143976523Y-114253208D01*
X143872048Y-114241301D01*
X143767266Y-114228275D01*
X143670302Y-114215096D01*
X143589282Y-114202734D01*
X143589267Y-114202732D01*
X143468584Y-114187655D01*
X143338677Y-114179930D01*
X143282866Y-114179157D01*
X143225584Y-114177631D01*
X143146156Y-114173113D01*
X143047234Y-114165863D01*
X142931472Y-114156141D01*
X142801523Y-114144209D01*
X142660041Y-114130327D01*
X142509678Y-114114757D01*
X142353088Y-114097757D01*
X142192924Y-114079591D01*
X142031840Y-114060518D01*
X141872487Y-114040798D01*
X141863417Y-114039648D01*
X141730204Y-114022424D01*
X141619217Y-114007156D01*
X141527812Y-113993145D01*
X141453343Y-113979693D01*
X141393167Y-113966102D01*
X141344637Y-113951672D01*
X141305111Y-113935703D01*
X141271943Y-113917499D01*
X141242487Y-113896359D01*
X141214101Y-113871584D01*
X141208911Y-113866695D01*
X141151180Y-113795373D01*
X141115116Y-113712969D01*
X141103246Y-113634245D01*
X141344121Y-113634245D01*
X141351601Y-113685976D01*
X141380965Y-113732951D01*
X141430646Y-113772860D01*
X141499082Y-113803396D01*
X141514660Y-113808113D01*
X141642164Y-113839318D01*
X141752126Y-113856239D01*
X141843761Y-113858836D01*
X141916284Y-113847068D01*
X141953989Y-113831010D01*
X141988727Y-113804712D01*
X142010724Y-113770996D01*
X142022308Y-113724245D01*
X142022451Y-113721583D01*
X142383643Y-113721583D01*
X142392009Y-113788255D01*
X142418810Y-113842826D01*
X142465466Y-113886635D01*
X142533393Y-113921023D01*
X142622001Y-113946882D01*
X142723301Y-113968599D01*
X142806174Y-113983904D01*
X142876158Y-113993548D01*
X142938790Y-113998285D01*
X142999609Y-113998867D01*
X143003708Y-113998777D01*
X143061337Y-113996240D01*
X143100683Y-113990998D01*
X143128439Y-113981709D01*
X143147529Y-113969919D01*
X143162700Y-113957431D01*
X143173211Y-113943366D01*
X143180396Y-113922709D01*
X143185589Y-113890447D01*
X143190126Y-113841564D01*
X143191651Y-113821207D01*
X143578465Y-113821207D01*
X143588541Y-113876021D01*
X143597147Y-113897823D01*
X143628739Y-113939118D01*
X143679838Y-113976268D01*
X143744941Y-114005650D01*
X143774339Y-114014591D01*
X143838612Y-114028097D01*
X143912250Y-114038063D01*
X143989638Y-114044320D01*
X144065164Y-114046699D01*
X144133215Y-114045029D01*
X144188179Y-114039141D01*
X144224441Y-114028865D01*
X144225653Y-114028239D01*
X144257515Y-114002840D01*
X144269984Y-113968719D01*
X144264158Y-113921676D01*
X144258470Y-113902785D01*
X144246551Y-113851107D01*
X144241057Y-113795020D01*
X144241076Y-113792101D01*
X144532790Y-113792101D01*
X144547803Y-113851798D01*
X144582658Y-113908222D01*
X144634895Y-113957953D01*
X144702057Y-113997573D01*
X144741665Y-114012915D01*
X144784954Y-114026419D01*
X144824243Y-114036736D01*
X144863139Y-114043962D01*
X144905249Y-114048196D01*
X144954182Y-114049535D01*
X145013542Y-114048077D01*
X145086939Y-114043918D01*
X145177978Y-114037157D01*
X145290268Y-114027891D01*
X145291621Y-114027776D01*
X145395155Y-114019006D01*
X145509409Y-114009293D01*
X145625612Y-113999386D01*
X145734998Y-113990032D01*
X145828795Y-113981979D01*
X145834121Y-113981520D01*
X145933803Y-113974081D01*
X146042581Y-113968281D01*
X146163946Y-113964015D01*
X146301386Y-113961173D01*
X146458391Y-113959649D01*
X146555037Y-113959332D01*
X146676304Y-113959108D01*
X146775044Y-113958717D01*
X146853740Y-113958038D01*
X146914877Y-113956947D01*
X146960940Y-113955323D01*
X146994413Y-113953044D01*
X147017780Y-113949986D01*
X147033526Y-113946029D01*
X147044135Y-113941049D01*
X147052092Y-113934925D01*
X147052156Y-113934866D01*
X147071071Y-113912779D01*
X147076353Y-113889035D01*
X147067301Y-113858191D01*
X147043215Y-113814805D01*
X147035032Y-113801784D01*
X147003482Y-113741643D01*
X146992555Y-113688850D01*
X147001883Y-113637149D01*
X147022836Y-113593809D01*
X147039597Y-113559973D01*
X147047109Y-113533790D01*
X147046124Y-113525457D01*
X147032669Y-113519659D01*
X147000083Y-113516847D01*
X146946477Y-113516964D01*
X146869962Y-113519953D01*
X146867281Y-113520088D01*
X146796465Y-113523995D01*
X146704937Y-113529580D01*
X146596923Y-113536545D01*
X146476645Y-113544590D01*
X146348327Y-113553415D01*
X146216191Y-113562724D01*
X146084463Y-113572215D01*
X145957364Y-113581591D01*
X145839119Y-113590552D01*
X145733950Y-113598800D01*
X145646082Y-113606036D01*
X145615264Y-113608708D01*
X145537458Y-113614352D01*
X145442410Y-113619303D01*
X145337890Y-113623272D01*
X145231664Y-113625970D01*
X145131500Y-113627106D01*
X145120942Y-113627124D01*
X144971977Y-113628553D01*
X144847278Y-113632703D01*
X144746244Y-113639622D01*
X144668273Y-113649363D01*
X144612762Y-113661974D01*
X144588986Y-113671449D01*
X144557813Y-113699161D01*
X144540075Y-113732548D01*
X144532790Y-113792101D01*
X144241076Y-113792101D01*
X144241168Y-113778121D01*
X144240692Y-113739284D01*
X144236258Y-113710726D01*
X144232334Y-113702565D01*
X144210538Y-113692454D01*
X144168371Y-113682502D01*
X144110475Y-113673089D01*
X144041488Y-113664593D01*
X143966053Y-113657394D01*
X143888809Y-113651873D01*
X143814397Y-113648408D01*
X143747458Y-113647380D01*
X143692632Y-113649167D01*
X143654559Y-113654150D01*
X143651173Y-113655027D01*
X143618813Y-113676170D01*
X143594985Y-113715061D01*
X143581074Y-113765480D01*
X143578465Y-113821207D01*
X143191651Y-113821207D01*
X143193430Y-113797472D01*
X143198133Y-113719429D01*
X143198913Y-113662768D01*
X143195352Y-113624107D01*
X143187033Y-113600064D01*
X143173538Y-113587257D01*
X143167155Y-113584690D01*
X143129955Y-113576376D01*
X143073258Y-113567587D01*
X143002558Y-113558864D01*
X142923349Y-113550749D01*
X142841126Y-113543785D01*
X142761382Y-113538512D01*
X142689612Y-113535474D01*
X142663337Y-113534996D01*
X142591932Y-113534849D01*
X142540836Y-113536212D01*
X142505367Y-113539556D01*
X142480842Y-113545354D01*
X142462579Y-113554079D01*
X142460372Y-113555485D01*
X142418612Y-113597205D01*
X142392350Y-113655549D01*
X142383643Y-113721583D01*
X142022451Y-113721583D01*
X142025810Y-113658839D01*
X142025813Y-113657807D01*
X142024969Y-113605880D01*
X142019677Y-113569199D01*
X142006178Y-113544793D01*
X141980714Y-113529693D01*
X141939524Y-113520931D01*
X141878851Y-113515536D01*
X141842913Y-113513341D01*
X141779862Y-113508721D01*
X141721836Y-113502782D01*
X141675791Y-113496335D01*
X141650895Y-113490945D01*
X141575355Y-113477039D01*
X141503072Y-113481884D01*
X141438833Y-113504013D01*
X141387423Y-113541961D01*
X141360087Y-113580065D01*
X141344121Y-113634245D01*
X141103246Y-113634245D01*
X141101403Y-113622020D01*
X141110728Y-113525060D01*
X141113376Y-113513355D01*
X141125325Y-113474306D01*
X141143105Y-113441455D01*
X141171839Y-113406926D01*
X141202522Y-113376281D01*
X141239313Y-113339771D01*
X141261185Y-113313375D01*
X141271952Y-113290634D01*
X141275426Y-113265088D01*
X141275628Y-113252425D01*
X141271441Y-113216473D01*
X141260246Y-113165865D01*
X141244091Y-113109259D01*
X141235961Y-113084744D01*
X141216339Y-113024621D01*
X141204416Y-112975390D01*
X141198382Y-112926119D01*
X141196425Y-112865878D01*
X141196411Y-112861351D01*
X141401982Y-112861351D01*
X141407535Y-112923217D01*
X141419511Y-112969278D01*
X141430926Y-112988326D01*
X141465300Y-113011201D01*
X141516423Y-113027433D01*
X141576734Y-113036274D01*
X141638673Y-113036973D01*
X141694680Y-113028780D01*
X141725850Y-113017583D01*
X141770254Y-112982151D01*
X141803244Y-112928547D01*
X141822240Y-112862002D01*
X141825862Y-112814854D01*
X141826233Y-112801451D01*
X142140100Y-112801451D01*
X142145254Y-112862984D01*
X142149973Y-112885762D01*
X142177370Y-112953606D01*
X142220986Y-113011094D01*
X142282753Y-113059619D01*
X142364604Y-113100575D01*
X142468469Y-113135353D01*
X142511718Y-113146653D01*
X142645277Y-113177002D01*
X142759671Y-113197830D01*
X142854090Y-113209067D01*
X142927722Y-113210639D01*
X142979757Y-113202473D01*
X143003218Y-113190667D01*
X143032743Y-113166759D01*
X142988971Y-113081393D01*
X142969777Y-113042910D01*
X142957314Y-113012400D01*
X142950245Y-112982677D01*
X142947236Y-112946553D01*
X142946951Y-112896843D01*
X142947519Y-112858304D01*
X142951852Y-112783112D01*
X143198842Y-112783112D01*
X143202736Y-112872847D01*
X143212948Y-112955774D01*
X143228496Y-113027184D01*
X143248394Y-113082368D01*
X143267709Y-113112693D01*
X143300430Y-113140337D01*
X143332890Y-113159402D01*
X143365856Y-113167800D01*
X143415549Y-113173437D01*
X143473818Y-113176157D01*
X143532517Y-113175807D01*
X143583494Y-113172229D01*
X143618600Y-113165270D01*
X143619718Y-113164859D01*
X143644725Y-113147629D01*
X143651797Y-113117364D01*
X143651797Y-113117062D01*
X143641658Y-113053803D01*
X143613432Y-112985079D01*
X143570406Y-112918418D01*
X143558932Y-112904369D01*
X143527566Y-112862177D01*
X143504727Y-112821082D01*
X143496607Y-112797279D01*
X143495697Y-112737893D01*
X143499970Y-112718389D01*
X143783576Y-112718389D01*
X143790087Y-112780841D01*
X143812184Y-112861852D01*
X143847090Y-112941071D01*
X143891246Y-113012741D01*
X143941091Y-113071109D01*
X143993064Y-113110419D01*
X143994447Y-113111153D01*
X144022938Y-113124523D01*
X144054633Y-113135736D01*
X144091594Y-113144885D01*
X144135882Y-113152059D01*
X144189559Y-113157347D01*
X144254685Y-113160840D01*
X144333324Y-113162628D01*
X144427535Y-113162802D01*
X144539381Y-113161450D01*
X144670924Y-113158664D01*
X144824224Y-113154533D01*
X144921172Y-113151641D01*
X145192704Y-113146130D01*
X145458202Y-113146737D01*
X145727819Y-113153316D01*
X145851709Y-113157303D01*
X145953088Y-113159819D01*
X146034425Y-113160668D01*
X146098188Y-113159656D01*
X146146848Y-113156587D01*
X146182872Y-113151266D01*
X146208729Y-113143500D01*
X146226888Y-113133092D01*
X146239818Y-113119847D01*
X146244857Y-113112482D01*
X146249121Y-113099587D01*
X146245856Y-113082433D01*
X146233188Y-113057712D01*
X146209244Y-113022121D01*
X146172149Y-112972351D01*
X146146783Y-112939439D01*
X146105726Y-112870500D01*
X146078153Y-112790709D01*
X146065284Y-112707337D01*
X146068341Y-112627659D01*
X146084448Y-112568091D01*
X146096454Y-112523839D01*
X146092444Y-112490692D01*
X146074389Y-112473689D01*
X146059632Y-112472971D01*
X146021929Y-112472631D01*
X145963342Y-112472653D01*
X145885934Y-112473021D01*
X145791767Y-112473717D01*
X145682906Y-112474726D01*
X145561412Y-112476030D01*
X145429347Y-112477614D01*
X145288776Y-112479459D01*
X145196308Y-112480756D01*
X145009482Y-112483308D01*
X144845774Y-112485239D01*
X144703294Y-112486545D01*
X144580157Y-112487221D01*
X144474472Y-112487262D01*
X144384354Y-112486663D01*
X144307914Y-112485419D01*
X144243264Y-112483525D01*
X144188516Y-112480975D01*
X144144020Y-112477946D01*
X144068020Y-112472235D01*
X144012341Y-112469222D01*
X143972431Y-112468958D01*
X143943739Y-112471492D01*
X143921714Y-112476876D01*
X143912072Y-112480529D01*
X143856333Y-112516708D01*
X143815438Y-112570625D01*
X143790736Y-112638959D01*
X143783576Y-112718389D01*
X143499970Y-112718389D01*
X143511459Y-112665950D01*
X143542668Y-112586366D01*
X143555985Y-112559573D01*
X143594409Y-112486108D01*
X143565440Y-112462650D01*
X143531658Y-112447568D01*
X143482041Y-112439921D01*
X143424669Y-112439820D01*
X143367623Y-112447376D01*
X143326729Y-112459374D01*
X143279435Y-112486665D01*
X143243979Y-112527326D01*
X143219395Y-112583800D01*
X143204718Y-112658530D01*
X143198984Y-112753958D01*
X143198842Y-112783112D01*
X142951852Y-112783112D01*
X142954106Y-112744002D01*
X142970271Y-112645727D01*
X142976513Y-112620532D01*
X142993722Y-112555030D01*
X143004714Y-112509377D01*
X143009995Y-112479330D01*
X143010073Y-112460645D01*
X143005457Y-112449081D01*
X142997937Y-112441444D01*
X142979042Y-112434291D01*
X142940690Y-112425731D01*
X142888316Y-112416801D01*
X142827355Y-112408537D01*
X142822381Y-112407949D01*
X142723065Y-112393717D01*
X142643448Y-112376205D01*
X142579990Y-112354962D01*
X142486819Y-112325566D01*
X142405169Y-112318284D01*
X142334270Y-112333444D01*
X142273352Y-112371375D01*
X142221648Y-112432405D01*
X142178388Y-112516863D01*
X142173755Y-112528517D01*
X142158350Y-112583499D01*
X142147223Y-112653072D01*
X142140948Y-112728601D01*
X142140100Y-112801451D01*
X141826233Y-112801451D01*
X141826952Y-112775425D01*
X141829949Y-112718555D01*
X141834403Y-112651705D01*
X141839861Y-112582336D01*
X141840147Y-112578986D01*
X141846549Y-112502381D01*
X141848615Y-112447248D01*
X141843461Y-112410088D01*
X141828202Y-112387402D01*
X141799953Y-112375692D01*
X141755830Y-112371460D01*
X141692948Y-112371207D01*
X141668977Y-112371391D01*
X141605921Y-112372255D01*
X141562661Y-112374394D01*
X141533986Y-112378660D01*
X141514682Y-112385907D01*
X141499537Y-112396986D01*
X141496717Y-112399578D01*
X141472722Y-112434137D01*
X141451296Y-112487377D01*
X141432991Y-112554369D01*
X141418356Y-112630190D01*
X141407943Y-112709911D01*
X141402301Y-112788607D01*
X141401982Y-112861351D01*
X141196411Y-112861351D01*
X141196361Y-112845643D01*
X141200024Y-112750954D01*
X141212264Y-112666436D01*
X141235121Y-112584116D01*
X141270636Y-112496020D01*
X141302957Y-112428942D01*
X141339049Y-112352060D01*
X141360466Y-112292224D01*
X141367790Y-112246657D01*
X141361602Y-112212586D01*
X141351707Y-112196578D01*
X141333190Y-112184600D01*
X141296633Y-112168375D01*
X141248077Y-112150414D01*
X141213997Y-112139323D01*
X141145133Y-112115548D01*
X141094208Y-112092581D01*
X141064610Y-112071950D01*
X141034489Y-112024351D01*
X141013265Y-111957152D01*
X141002028Y-111874514D01*
X141001169Y-111847949D01*
X141271288Y-111847949D01*
X141272249Y-111890455D01*
X141280426Y-111918665D01*
X141299088Y-111942983D01*
X141302146Y-111946093D01*
X141319020Y-111960619D01*
X141339350Y-111971374D01*
X141368317Y-111979805D01*
X141411102Y-111987360D01*
X141472885Y-111995486D01*
X141483485Y-111996769D01*
X141546425Y-112004807D01*
X141604393Y-112013054D01*
X141650492Y-112020481D01*
X141675825Y-112025532D01*
X141742302Y-112036634D01*
X141794875Y-112032255D01*
X141824758Y-112020826D01*
X141855853Y-111995258D01*
X141878370Y-111953199D01*
X141882263Y-111938049D01*
X142051819Y-111938049D01*
X142055785Y-111959143D01*
X142070030Y-111973026D01*
X142083806Y-111980982D01*
X142120797Y-111993170D01*
X142169858Y-111999668D01*
X142220626Y-112000065D01*
X142262739Y-111993953D01*
X142276813Y-111988600D01*
X142305267Y-111961820D01*
X142321164Y-111932064D01*
X142560702Y-111932064D01*
X142566843Y-111973116D01*
X142582505Y-112001499D01*
X142610782Y-112023273D01*
X142647149Y-112041158D01*
X142671592Y-112048510D01*
X142716538Y-112058742D01*
X142777742Y-112071114D01*
X142850958Y-112084883D01*
X142931942Y-112099308D01*
X143016447Y-112113649D01*
X143100228Y-112127163D01*
X143179040Y-112139109D01*
X143248637Y-112148746D01*
X143295372Y-112154354D01*
X143333986Y-112157006D01*
X143389765Y-112158850D01*
X143458176Y-112159928D01*
X143534683Y-112160283D01*
X143614752Y-112159956D01*
X143693851Y-112158991D01*
X143767444Y-112157429D01*
X143830998Y-112155313D01*
X143879978Y-112152686D01*
X143909851Y-112149589D01*
X143914427Y-112148570D01*
X143975986Y-112123742D01*
X144026496Y-112087580D01*
X144070286Y-112035851D01*
X144111685Y-111964324D01*
X144119846Y-111947712D01*
X144143206Y-111896886D01*
X144411652Y-111896886D01*
X144423804Y-111988366D01*
X144456243Y-112069263D01*
X144507090Y-112136509D01*
X144574464Y-112187036D01*
X144596012Y-112197760D01*
X144614554Y-112204233D01*
X144640546Y-112209966D01*
X144675328Y-112214993D01*
X144720238Y-112219343D01*
X144776615Y-112223051D01*
X144845799Y-112226148D01*
X144929127Y-112228667D01*
X145027938Y-112230639D01*
X145143572Y-112232098D01*
X145277367Y-112233074D01*
X145430662Y-112233601D01*
X145604795Y-112233711D01*
X145801106Y-112233435D01*
X146020933Y-112232806D01*
X146048017Y-112232712D01*
X146239737Y-112231908D01*
X146407432Y-112230926D01*
X146552087Y-112229749D01*
X146674688Y-112228358D01*
X146776223Y-112226736D01*
X146857677Y-112224863D01*
X146920037Y-112222723D01*
X146964288Y-112220295D01*
X146991417Y-112217563D01*
X147001611Y-112215064D01*
X147021314Y-112200098D01*
X147026201Y-112180943D01*
X147015557Y-112153074D01*
X146988667Y-112111962D01*
X146984383Y-112106019D01*
X146921819Y-112008590D01*
X146880594Y-111917070D01*
X146859086Y-111827450D01*
X146855449Y-111787547D01*
X146854222Y-111734475D01*
X146858033Y-111693942D01*
X146869039Y-111654499D01*
X146889393Y-111604697D01*
X146890220Y-111602810D01*
X146907916Y-111558965D01*
X146919371Y-111523522D01*
X146922588Y-111502883D01*
X146921990Y-111500961D01*
X146908022Y-111498541D01*
X146869691Y-111496368D01*
X146807645Y-111494449D01*
X146722532Y-111492793D01*
X146614999Y-111491408D01*
X146485696Y-111490301D01*
X146335269Y-111489481D01*
X146164367Y-111488956D01*
X145973638Y-111488733D01*
X145928783Y-111488725D01*
X144943139Y-111488725D01*
X144824340Y-111518861D01*
X144709581Y-111553173D01*
X144615824Y-111593111D01*
X144539357Y-111640445D01*
X144499753Y-111673578D01*
X144454164Y-111724284D01*
X144426383Y-111777619D01*
X144413446Y-111841095D01*
X144411652Y-111896886D01*
X144143206Y-111896886D01*
X144162508Y-111854889D01*
X144191980Y-111780329D01*
X144208779Y-111721369D01*
X144213421Y-111675349D01*
X144206424Y-111639607D01*
X144188303Y-111611483D01*
X144185655Y-111608742D01*
X144176250Y-111600567D01*
X144164284Y-111593521D01*
X144147760Y-111587448D01*
X144124677Y-111582195D01*
X144093039Y-111577606D01*
X144050846Y-111573529D01*
X143996101Y-111569807D01*
X143926803Y-111566287D01*
X143840956Y-111562814D01*
X143736561Y-111559233D01*
X143611618Y-111555391D01*
X143464131Y-111551132D01*
X143426687Y-111550074D01*
X143286148Y-111546323D01*
X143168166Y-111543733D01*
X143070304Y-111542395D01*
X142990130Y-111542396D01*
X142925209Y-111543828D01*
X142873108Y-111546779D01*
X142831392Y-111551340D01*
X142797627Y-111557601D01*
X142769380Y-111565650D01*
X142745101Y-111575184D01*
X142672498Y-111616188D01*
X142619623Y-111667669D01*
X142584596Y-111732658D01*
X142565540Y-111814187D01*
X142560991Y-111872283D01*
X142560702Y-111932064D01*
X142321164Y-111932064D01*
X142327467Y-111920265D01*
X142338299Y-111874146D01*
X142338651Y-111865166D01*
X142340996Y-111837451D01*
X142347329Y-111792227D01*
X142356596Y-111736480D01*
X142364508Y-111693674D01*
X142377339Y-111620284D01*
X142382839Y-111567159D01*
X142380600Y-111530525D01*
X142370216Y-111506613D01*
X142351278Y-111491652D01*
X142342255Y-111487718D01*
X142296753Y-111483455D01*
X142247776Y-111503632D01*
X142201118Y-111542606D01*
X142178411Y-111574051D01*
X142151935Y-111623309D01*
X142124291Y-111684007D01*
X142098077Y-111749771D01*
X142075893Y-111814225D01*
X142060337Y-111870997D01*
X142054982Y-111901003D01*
X142051819Y-111938049D01*
X141882263Y-111938049D01*
X141894450Y-111890616D01*
X141894758Y-111888922D01*
X141901733Y-111856957D01*
X141913542Y-111809398D01*
X141928060Y-111754676D01*
X141933870Y-111733672D01*
X141948118Y-111677669D01*
X141959129Y-111624680D01*
X141965154Y-111583514D01*
X141965769Y-111573029D01*
X141965230Y-111544481D01*
X141960718Y-111522713D01*
X141949226Y-111506721D01*
X141927748Y-111495502D01*
X141893279Y-111488050D01*
X141842811Y-111483363D01*
X141773340Y-111480436D01*
X141682048Y-111478269D01*
X141438230Y-111473255D01*
X141389669Y-111521815D01*
X141360341Y-111556231D01*
X141336773Y-111597444D01*
X141314876Y-111653125D01*
X141307154Y-111676498D01*
X141290979Y-111734054D01*
X141278452Y-111791778D01*
X141271778Y-111839131D01*
X141271288Y-111847949D01*
X141001169Y-111847949D01*
X141000493Y-111827031D01*
X141010535Y-111705177D01*
X141039824Y-111592710D01*
X141087107Y-111492841D01*
X141151129Y-111408781D01*
X141171742Y-111388643D01*
X141185365Y-111375537D01*
X141197001Y-111363615D01*
X141207830Y-111352818D01*
X141219030Y-111343089D01*
X141231780Y-111334371D01*
X141247260Y-111326605D01*
X141266647Y-111319734D01*
X141291121Y-111313701D01*
X141321861Y-111308446D01*
X141360046Y-111303914D01*
X141406853Y-111300045D01*
X141463464Y-111296782D01*
X141531055Y-111294068D01*
X141610806Y-111291844D01*
X141703897Y-111290054D01*
X141811505Y-111288638D01*
X141934809Y-111287540D01*
X142074990Y-111286702D01*
X142233224Y-111286066D01*
X142410692Y-111285573D01*
X142608572Y-111285168D01*
X142828043Y-111284791D01*
X143070283Y-111284385D01*
X143309270Y-111283946D01*
X143541270Y-111283397D01*
X143774508Y-111282663D01*
X144006956Y-111281761D01*
X144236586Y-111280703D01*
X144461370Y-111279506D01*
X144679279Y-111278183D01*
X144888286Y-111276750D01*
X145086362Y-111275221D01*
X145271480Y-111273611D01*
X145441611Y-111271935D01*
X145594727Y-111270207D01*
X145728800Y-111268442D01*
X145841802Y-111266654D01*
X145927260Y-111264961D01*
X146158559Y-111260363D01*
X146366122Y-111257685D01*
X146551156Y-111257028D01*
X146714872Y-111258493D01*
G37*
G36*
X135398205Y-103389513D02*
G01*
X135563410Y-103414472D01*
X135719599Y-103461781D01*
X135867564Y-103531567D01*
X136008098Y-103623956D01*
X136024542Y-103636600D01*
X136049447Y-103657890D01*
X136089459Y-103694357D01*
X136141966Y-103743518D01*
X136204357Y-103802895D01*
X136274021Y-103870007D01*
X136348347Y-103942373D01*
X136404481Y-103997520D01*
X136532956Y-104122690D01*
X136648112Y-104230807D01*
X136753056Y-104323679D01*
X136850894Y-104403116D01*
X136944733Y-104470927D01*
X137037680Y-104528920D01*
X137132843Y-104578904D01*
X137233329Y-104622689D01*
X137342243Y-104662084D01*
X137462694Y-104698896D01*
X137597788Y-104734936D01*
X137723880Y-104765705D01*
X137862287Y-104798647D01*
X137979635Y-104826962D01*
X138079263Y-104851535D01*
X138164509Y-104873251D01*
X138238711Y-104892993D01*
X138305209Y-104911647D01*
X138367340Y-104930097D01*
X138428444Y-104949227D01*
X138480502Y-104966167D01*
X138702931Y-105048249D01*
X138904229Y-105141267D01*
X139086388Y-105246610D01*
X139251398Y-105365668D01*
X139401247Y-105499830D01*
X139537925Y-105650487D01*
X139627298Y-105767159D01*
X139709724Y-105893432D01*
X139789345Y-106036346D01*
X139862453Y-106188058D01*
X139925339Y-106340727D01*
X139974295Y-106486510D01*
X139984143Y-106521788D01*
X140003154Y-106616362D01*
X140014699Y-106724176D01*
X140018698Y-106837446D01*
X140015074Y-106948390D01*
X140003749Y-107049225D01*
X139990091Y-107113765D01*
X139929355Y-107291164D01*
X139846205Y-107461512D01*
X139822270Y-107502211D01*
X139784767Y-107564082D01*
X139758695Y-107608325D01*
X139742273Y-107638548D01*
X139733719Y-107658362D01*
X139731252Y-107671376D01*
X139733089Y-107681199D01*
X139733446Y-107682157D01*
X139742354Y-107696268D01*
X139756049Y-107700608D01*
X139776346Y-107693845D01*
X139805058Y-107674648D01*
X139844001Y-107641684D01*
X139894988Y-107593622D01*
X139959833Y-107529129D01*
X140006253Y-107481885D01*
X140109744Y-107377388D01*
X140198723Y-107291105D01*
X140274792Y-107222118D01*
X140339551Y-107169508D01*
X140394603Y-107132357D01*
X140441547Y-107109748D01*
X140481985Y-107100762D01*
X140517518Y-107104481D01*
X140549747Y-107119988D01*
X140580272Y-107146364D01*
X140584159Y-107150500D01*
X140631561Y-107201936D01*
X140715898Y-107194192D01*
X140762714Y-107190899D01*
X140792160Y-107192442D01*
X140811609Y-107199991D01*
X140825327Y-107211540D01*
X140842920Y-107239842D01*
X140851456Y-107281458D01*
X140850676Y-107337562D01*
X140840322Y-107409328D01*
X140820136Y-107497932D01*
X140789859Y-107604547D01*
X140749235Y-107730349D01*
X140698004Y-107876512D01*
X140651526Y-108002713D01*
X140621966Y-108082359D01*
X140595123Y-108156066D01*
X140572361Y-108219974D01*
X140555044Y-108270225D01*
X140544537Y-108302961D01*
X140542218Y-108311781D01*
X140538626Y-108351537D01*
X140547301Y-108386229D01*
X140571051Y-108420853D01*
X140612684Y-108460406D01*
X140636867Y-108480239D01*
X140689030Y-108525416D01*
X140721982Y-108563082D01*
X140738183Y-108594518D01*
X140749479Y-108652251D01*
X140751915Y-108722285D01*
X140745758Y-108793631D01*
X140731870Y-108853581D01*
X140721723Y-108887561D01*
X140718397Y-108916350D01*
X140723060Y-108946465D01*
X140736879Y-108984420D01*
X140761021Y-109036732D01*
X140766833Y-109048753D01*
X140786914Y-109094096D01*
X140799462Y-109135297D01*
X140806663Y-109182080D01*
X140810690Y-109243918D01*
X140808955Y-109347519D01*
X140792386Y-109440144D01*
X140758713Y-109532440D01*
X140741536Y-109568496D01*
X140707944Y-109627166D01*
X140670588Y-109678969D01*
X140633568Y-109719036D01*
X140600986Y-109742499D01*
X140592322Y-109745666D01*
X140561340Y-109765769D01*
X140543014Y-109806942D01*
X140537616Y-109860613D01*
X140528493Y-109945301D01*
X140503470Y-110025302D01*
X140465245Y-110096130D01*
X140416512Y-110153297D01*
X140359968Y-110192318D01*
X140331857Y-110203001D01*
X140297720Y-110214074D01*
X140274189Y-110224222D01*
X140270637Y-110226583D01*
X140267783Y-110241837D01*
X140267478Y-110277306D01*
X140269593Y-110328333D01*
X140274000Y-110390264D01*
X140275702Y-110409744D01*
X140280930Y-110475817D01*
X140284203Y-110535354D01*
X140285313Y-110582720D01*
X140284052Y-110612275D01*
X140283331Y-110616260D01*
X140260720Y-110663346D01*
X140215415Y-110713255D01*
X140146605Y-110766821D01*
X140121032Y-110783876D01*
X140037309Y-110840313D01*
X139957265Y-110898531D01*
X139883525Y-110956241D01*
X139818713Y-111011155D01*
X139765453Y-111060984D01*
X139726369Y-111103441D01*
X139704086Y-111136237D01*
X139699853Y-111151136D01*
X139707354Y-111169235D01*
X139732970Y-111182728D01*
X139753004Y-111188515D01*
X139918880Y-111243072D01*
X140077808Y-111320639D01*
X140227592Y-111419666D01*
X140366035Y-111538608D01*
X140490938Y-111675915D01*
X140543817Y-111745621D01*
X140618745Y-111863619D01*
X140688580Y-111998736D01*
X140750051Y-112143142D01*
X140799881Y-112289009D01*
X140834798Y-112428510D01*
X140839134Y-112451699D01*
X140848610Y-112528968D01*
X140853694Y-112622681D01*
X140854479Y-112724676D01*
X140851058Y-112826791D01*
X140843524Y-112920863D01*
X140832945Y-112993791D01*
X140788155Y-113175594D01*
X140726008Y-113350120D01*
X140648120Y-113515292D01*
X140556108Y-113669036D01*
X140451587Y-113809276D01*
X140336174Y-113933937D01*
X140211484Y-114040943D01*
X140079135Y-114128218D01*
X139940743Y-114193688D01*
X139883001Y-114213631D01*
X139799995Y-114231441D01*
X139704218Y-114239603D01*
X139606056Y-114237922D01*
X139515895Y-114226202D01*
X139493002Y-114220968D01*
X139390204Y-114185709D01*
X139278951Y-114131766D01*
X139163303Y-114062110D01*
X139047319Y-113979713D01*
X138935057Y-113887548D01*
X138830577Y-113788586D01*
X138737938Y-113685801D01*
X138704743Y-113643800D01*
X138670845Y-113600262D01*
X138645373Y-113572474D01*
X138622327Y-113555753D01*
X138595707Y-113545414D01*
X138570854Y-113539270D01*
X138526249Y-113531433D01*
X138493436Y-113532543D01*
X138460698Y-113543005D01*
X138460530Y-113543076D01*
X138444328Y-113551288D01*
X138429160Y-113563461D01*
X138412967Y-113582711D01*
X138393693Y-113612157D01*
X138369280Y-113654917D01*
X138337669Y-113714109D01*
X138300763Y-113785174D01*
X138258974Y-113863769D01*
X138214182Y-113943946D01*
X138170008Y-114019492D01*
X138130074Y-114084197D01*
X138101592Y-114126845D01*
X137988127Y-114270621D01*
X137868053Y-114391714D01*
X137742006Y-114489644D01*
X137610621Y-114563932D01*
X137474533Y-114614099D01*
X137445524Y-114621499D01*
X137377142Y-114632480D01*
X137292432Y-114638375D01*
X137199535Y-114639291D01*
X137106591Y-114635330D01*
X137021741Y-114626600D01*
X136961005Y-114615247D01*
X136817257Y-114571306D01*
X136683619Y-114512227D01*
X136556002Y-114435608D01*
X136430320Y-114339046D01*
X136322552Y-114240079D01*
X136271774Y-114189589D01*
X136226289Y-114143234D01*
X136189603Y-114104671D01*
X136165218Y-114077558D01*
X136157797Y-114068079D01*
X136145154Y-114052076D01*
X136129633Y-114045594D01*
X136103316Y-114047164D01*
X136073409Y-114052422D01*
X136038581Y-114061562D01*
X135986591Y-114078406D01*
X135923312Y-114100906D01*
X135854615Y-114127016D01*
X135821065Y-114140382D01*
X135746273Y-114169580D01*
X135668624Y-114198040D01*
X135595855Y-114223043D01*
X135535701Y-114241870D01*
X135519371Y-114246414D01*
X135419913Y-114267289D01*
X135300376Y-114283329D01*
X135165205Y-114294610D01*
X135018848Y-114301207D01*
X134865750Y-114303195D01*
X134710357Y-114300649D01*
X134557116Y-114293644D01*
X134410474Y-114282256D01*
X134274875Y-114266560D01*
X134154767Y-114246630D01*
X134054596Y-114222543D01*
X134051436Y-114221605D01*
X133971578Y-114187776D01*
X133897669Y-114138161D01*
X133838398Y-114078799D01*
X133830041Y-114067667D01*
X133799405Y-114005856D01*
X133785029Y-113934415D01*
X133785911Y-113911542D01*
X134185393Y-113911542D01*
X134197186Y-113957004D01*
X134229239Y-113999997D01*
X134280668Y-114037974D01*
X134350591Y-114068387D01*
X134381416Y-114077327D01*
X134407673Y-114080526D01*
X134455408Y-114082828D01*
X134521102Y-114084278D01*
X134601239Y-114084922D01*
X134692301Y-114084806D01*
X134790772Y-114083975D01*
X134893133Y-114082475D01*
X134995868Y-114080353D01*
X135095459Y-114077653D01*
X135188389Y-114074421D01*
X135271141Y-114070703D01*
X135340197Y-114066545D01*
X135365961Y-114064534D01*
X135430946Y-114057944D01*
X135490307Y-114050079D01*
X135537748Y-114041893D01*
X135566972Y-114034343D01*
X135568179Y-114033860D01*
X135608933Y-114008813D01*
X135625740Y-113977519D01*
X135618609Y-113939653D01*
X135587549Y-113894893D01*
X135572654Y-113879157D01*
X135529223Y-113837494D01*
X135492280Y-113808338D01*
X135454935Y-113788531D01*
X135410300Y-113774913D01*
X135351486Y-113764323D01*
X135309626Y-113758517D01*
X135136324Y-113738648D01*
X134971120Y-113725577D01*
X134816318Y-113719245D01*
X134674225Y-113719589D01*
X134547148Y-113726550D01*
X134437392Y-113740065D01*
X134347265Y-113760073D01*
X134280397Y-113785823D01*
X134226116Y-113823405D01*
X134194742Y-113866160D01*
X134185393Y-113911542D01*
X133785911Y-113911542D01*
X133787803Y-113862474D01*
X133804612Y-113807107D01*
X133851235Y-113735396D01*
X133919462Y-113668838D01*
X134006124Y-113609131D01*
X134108051Y-113557973D01*
X134222075Y-113517061D01*
X134345026Y-113488092D01*
X134420304Y-113477308D01*
X134476222Y-113472112D01*
X134530363Y-113469375D01*
X134586986Y-113469307D01*
X134650353Y-113472114D01*
X134724722Y-113478005D01*
X134814353Y-113487187D01*
X134923506Y-113499868D01*
X134950863Y-113503185D01*
X135069784Y-113516443D01*
X135165614Y-113524304D01*
X135239685Y-113526783D01*
X135293325Y-113523895D01*
X135327864Y-113515656D01*
X135340564Y-113507576D01*
X135352220Y-113491890D01*
X135357870Y-113471361D01*
X135357052Y-113442262D01*
X135349306Y-113400868D01*
X135334169Y-113343456D01*
X135311181Y-113266300D01*
X135310331Y-113263529D01*
X135276332Y-113149231D01*
X135250371Y-113052030D01*
X135231437Y-112965706D01*
X135218516Y-112884038D01*
X135210598Y-112800807D01*
X135209786Y-112781989D01*
X135455191Y-112781989D01*
X135455251Y-112807623D01*
X135464217Y-112972537D01*
X135487868Y-113125529D01*
X135525525Y-113263880D01*
X135576511Y-113384868D01*
X135615876Y-113452011D01*
X135658235Y-113510788D01*
X135706014Y-113569444D01*
X135755762Y-113624509D01*
X135804027Y-113672514D01*
X135847361Y-113709988D01*
X135882311Y-113733463D01*
X135902134Y-113739833D01*
X135929742Y-113732839D01*
X135942769Y-113708971D01*
X135944452Y-113684079D01*
X135942903Y-113641105D01*
X135938492Y-113586721D01*
X135933628Y-113543265D01*
X135927599Y-113478946D01*
X135922812Y-113394419D01*
X135919443Y-113294467D01*
X135917672Y-113183871D01*
X135917461Y-113108272D01*
X135917858Y-113048778D01*
X136161664Y-113048778D01*
X136165626Y-113226623D01*
X136186633Y-113399339D01*
X136224863Y-113562255D01*
X136263230Y-113671049D01*
X136334248Y-113818080D01*
X136420072Y-113951661D01*
X136518657Y-114069998D01*
X136627957Y-114171301D01*
X136745927Y-114253777D01*
X136870521Y-114315633D01*
X136999692Y-114355078D01*
X137054801Y-114364529D01*
X137093666Y-114369109D01*
X137126532Y-114371014D01*
X137161065Y-114370018D01*
X137204931Y-114365897D01*
X137265797Y-114358425D01*
X137266639Y-114358317D01*
X137332615Y-114344691D01*
X137410122Y-114320690D01*
X137489781Y-114289664D01*
X137562213Y-114254962D01*
X137573416Y-114248778D01*
X137641833Y-114202341D01*
X137714714Y-114139749D01*
X137785697Y-114067393D01*
X137848416Y-113991664D01*
X137889063Y-113931787D01*
X137920958Y-113872781D01*
X137953870Y-113802403D01*
X137981979Y-113733340D01*
X137988589Y-113714821D01*
X138004193Y-113667964D01*
X138015208Y-113629502D01*
X138022444Y-113593267D01*
X138026713Y-113553095D01*
X138028825Y-113502819D01*
X138029592Y-113436274D01*
X138029707Y-113402167D01*
X138029134Y-113316211D01*
X138026492Y-113247668D01*
X138021114Y-113188976D01*
X138012328Y-113132574D01*
X138000948Y-113077495D01*
X137949006Y-112886778D01*
X137881005Y-112704749D01*
X137798505Y-112533953D01*
X137703063Y-112376932D01*
X137596238Y-112236233D01*
X137479588Y-112114397D01*
X137354671Y-112013971D01*
X137345981Y-112008027D01*
X137245098Y-111954373D01*
X137136359Y-111924060D01*
X137020958Y-111917112D01*
X136900091Y-111933555D01*
X136774950Y-111973412D01*
X136724857Y-111995491D01*
X136596097Y-112066279D01*
X136488954Y-112146752D01*
X136401225Y-112238964D01*
X136330707Y-112344966D01*
X136312689Y-112379537D01*
X136250260Y-112531185D01*
X136204160Y-112696389D01*
X136174568Y-112870477D01*
X136161664Y-113048778D01*
X135917858Y-113048778D01*
X135918185Y-112999764D01*
X135920225Y-112910786D01*
X135924253Y-112835864D01*
X135930938Y-112769524D01*
X135940949Y-112706290D01*
X135954956Y-112640691D01*
X135973628Y-112567250D01*
X135991660Y-112501724D01*
X136004249Y-112438866D01*
X136001530Y-112386772D01*
X135981432Y-112340997D01*
X135941884Y-112297096D01*
X135880813Y-112250624D01*
X135871854Y-112244606D01*
X135805932Y-112195676D01*
X135760962Y-112150812D01*
X135738139Y-112111325D01*
X135735402Y-112094656D01*
X135737755Y-112083682D01*
X135748262Y-112078358D01*
X135772098Y-112078043D01*
X135814435Y-112082096D01*
X135826071Y-112083432D01*
X135888740Y-112089052D01*
X135959140Y-112092908D01*
X136010537Y-112094057D01*
X136062842Y-112092050D01*
X136108549Y-112084472D01*
X136151018Y-112069132D01*
X136193610Y-112043837D01*
X136239686Y-112006396D01*
X136292604Y-111954618D01*
X136355726Y-111886312D01*
X136392395Y-111845013D01*
X136457507Y-111770402D01*
X136508090Y-111710724D01*
X136546716Y-111662658D01*
X136575961Y-111622885D01*
X136598396Y-111588085D01*
X136601012Y-111583349D01*
X137115485Y-111583349D01*
X137118123Y-111587660D01*
X137134470Y-111597211D01*
X137167905Y-111613093D01*
X137212260Y-111632432D01*
X137229887Y-111639757D01*
X137394934Y-111720623D01*
X137551852Y-111823614D01*
X137698741Y-111946633D01*
X137833699Y-112087579D01*
X137954827Y-112244355D01*
X138060223Y-112414862D01*
X138147988Y-112597001D01*
X138186011Y-112695569D01*
X138225849Y-112819702D01*
X138258430Y-112944655D01*
X138282025Y-113062941D01*
X138294906Y-113167072D01*
X138294952Y-113167701D01*
X138300022Y-113218204D01*
X138306731Y-113259184D01*
X138313920Y-113284198D01*
X138316670Y-113288290D01*
X138353931Y-113305509D01*
X138404371Y-113312358D01*
X138458077Y-113308078D01*
X138484250Y-113301117D01*
X138503864Y-113292664D01*
X138519123Y-113280751D01*
X138530335Y-113262645D01*
X138537807Y-113235614D01*
X138541850Y-113196927D01*
X138542772Y-113143851D01*
X138540881Y-113073655D01*
X138536487Y-112983606D01*
X138530929Y-112888022D01*
X138524314Y-112764948D01*
X138519155Y-112641127D01*
X138515472Y-112519792D01*
X138515435Y-112517842D01*
X138866621Y-112517842D01*
X138879548Y-112727285D01*
X138907467Y-112945067D01*
X138942440Y-113132242D01*
X138984476Y-113295130D01*
X139036876Y-113436197D01*
X139100605Y-113556803D01*
X139176628Y-113658304D01*
X139265910Y-113742061D01*
X139369417Y-113809431D01*
X139450543Y-113847443D01*
X139559374Y-113882986D01*
X139664211Y-113897920D01*
X139773601Y-113893276D01*
X139799902Y-113889610D01*
X139876144Y-113870386D01*
X139960429Y-113837089D01*
X140043855Y-113794041D01*
X140117520Y-113745566D01*
X140147979Y-113720582D01*
X140244093Y-113618358D01*
X140329098Y-113495277D01*
X140402080Y-113353322D01*
X140462125Y-113194476D01*
X140508319Y-113020723D01*
X140532703Y-112886054D01*
X140548782Y-112709392D01*
X140545292Y-112535453D01*
X140523192Y-112366439D01*
X140483445Y-112204553D01*
X140427011Y-112051996D01*
X140354851Y-111910972D01*
X140267926Y-111783680D01*
X140167197Y-111672325D01*
X140053625Y-111579108D01*
X139931216Y-111507679D01*
X139851041Y-111471736D01*
X139783278Y-111447712D01*
X139719607Y-111433539D01*
X139651702Y-111427152D01*
X139603146Y-111426194D01*
X139476475Y-111436668D01*
X139359823Y-111468769D01*
X139250730Y-111523511D01*
X139146739Y-111601912D01*
X139121119Y-111625453D01*
X139049535Y-111699999D01*
X138996170Y-111772275D01*
X138956378Y-111850140D01*
X138925509Y-111941457D01*
X138918388Y-111968305D01*
X138885981Y-112135477D01*
X138868745Y-112319615D01*
X138866621Y-112517842D01*
X138515435Y-112517842D01*
X138513288Y-112404177D01*
X138512623Y-112297516D01*
X138513499Y-112203045D01*
X138515937Y-112123995D01*
X138519959Y-112063603D01*
X138525258Y-112026490D01*
X138535381Y-111993314D01*
X138553564Y-111944009D01*
X138577274Y-111885103D01*
X138603978Y-111823126D01*
X138605313Y-111820138D01*
X138638366Y-111745264D01*
X138661532Y-111689667D01*
X138675768Y-111650085D01*
X138682029Y-111623256D01*
X138681274Y-111605919D01*
X138674458Y-111594810D01*
X138672025Y-111592706D01*
X138655765Y-111588260D01*
X138617867Y-111582056D01*
X138561613Y-111574501D01*
X138490285Y-111566002D01*
X138407163Y-111556967D01*
X138315529Y-111547803D01*
X138292910Y-111545656D01*
X138177710Y-111534590D01*
X138050251Y-111521936D01*
X137918571Y-111508520D01*
X137790707Y-111495168D01*
X137674696Y-111482703D01*
X137611808Y-111475733D01*
X137293383Y-111439890D01*
X137230092Y-111476101D01*
X137181885Y-111507006D01*
X137144457Y-111537432D01*
X137121195Y-111564004D01*
X137115485Y-111583349D01*
X136601012Y-111583349D01*
X136615285Y-111557509D01*
X136637333Y-111511296D01*
X136654374Y-111466467D01*
X136666990Y-111418922D01*
X136675765Y-111364563D01*
X136681283Y-111299290D01*
X136684127Y-111219004D01*
X136684587Y-111158325D01*
X136947152Y-111158325D01*
X136951649Y-111181183D01*
X136968643Y-111200456D01*
X136980136Y-111208731D01*
X137002580Y-111219833D01*
X137030020Y-111224029D01*
X137070353Y-111222032D01*
X137095818Y-111219180D01*
X137173891Y-111213091D01*
X137270168Y-111211109D01*
X137378196Y-111213137D01*
X137491523Y-111219079D01*
X137580059Y-111226428D01*
X137648018Y-111233524D01*
X137735196Y-111243326D01*
X137836833Y-111255240D01*
X137948173Y-111268671D01*
X138064456Y-111283023D01*
X138180925Y-111297701D01*
X138292821Y-111312110D01*
X138395386Y-111325656D01*
X138483862Y-111337742D01*
X138553490Y-111347774D01*
X138568046Y-111349993D01*
X138656560Y-111362913D01*
X138724755Y-111370774D01*
X138776783Y-111373697D01*
X138816794Y-111371802D01*
X138848939Y-111365214D01*
X138866903Y-111358756D01*
X138900105Y-111336628D01*
X138921923Y-111300795D01*
X138933743Y-111247754D01*
X138936977Y-111181399D01*
X138938524Y-111140920D01*
X138943177Y-111077265D01*
X138949994Y-111000996D01*
X139176319Y-111000996D01*
X139178356Y-111059502D01*
X139185598Y-111098227D01*
X139198495Y-111119599D01*
X139217131Y-111126047D01*
X139229860Y-111115399D01*
X139248339Y-111087240D01*
X139268941Y-111047246D01*
X139272539Y-111039356D01*
X139294181Y-110983960D01*
X139314163Y-110917335D01*
X139333021Y-110836852D01*
X139351292Y-110739880D01*
X139369514Y-110623789D01*
X139388222Y-110485951D01*
X139392673Y-110450714D01*
X139406081Y-110338763D01*
X139421013Y-110206173D01*
X139437043Y-110057242D01*
X139453743Y-109896268D01*
X139454971Y-109884039D01*
X140078311Y-109884039D01*
X140080557Y-109930332D01*
X140102595Y-109976449D01*
X140118749Y-109995317D01*
X140155228Y-110020224D01*
X140195367Y-110022714D01*
X140236749Y-110007195D01*
X140283349Y-109972364D01*
X140325099Y-109921998D01*
X140349825Y-109876270D01*
X140359544Y-109847006D01*
X140356372Y-109828490D01*
X140345300Y-109815205D01*
X140318780Y-109802434D01*
X140276254Y-109795619D01*
X140226026Y-109794827D01*
X140176397Y-109800126D01*
X140135672Y-109811583D01*
X140131606Y-109813459D01*
X140095460Y-109843204D01*
X140078311Y-109884039D01*
X139454971Y-109884039D01*
X139470689Y-109727547D01*
X139487454Y-109555377D01*
X139501665Y-109404714D01*
X140137568Y-109404714D01*
X140146940Y-109460450D01*
X140174033Y-109499600D01*
X140217316Y-109521544D01*
X140275253Y-109525662D01*
X140346314Y-109511332D01*
X140375790Y-109501167D01*
X140458744Y-109460571D01*
X140520114Y-109410427D01*
X140559103Y-109351646D01*
X140574911Y-109285138D01*
X140575237Y-109273696D01*
X140566051Y-109214298D01*
X140538900Y-109171935D01*
X140494556Y-109147071D01*
X140433791Y-109140175D01*
X140368671Y-109149039D01*
X140286052Y-109177806D01*
X140219632Y-109222274D01*
X140171503Y-109280129D01*
X140143754Y-109349059D01*
X140137568Y-109404714D01*
X139501665Y-109404714D01*
X139503613Y-109384056D01*
X139518740Y-109217882D01*
X139532408Y-109061151D01*
X139542650Y-108937469D01*
X139550345Y-108840824D01*
X140214790Y-108840824D01*
X140224263Y-108884730D01*
X140243689Y-108918208D01*
X140272946Y-108935850D01*
X140285014Y-108937278D01*
X140305240Y-108932092D01*
X140337697Y-108918765D01*
X140353797Y-108911049D01*
X140411931Y-108877780D01*
X140466381Y-108839317D01*
X140511635Y-108800159D01*
X140542184Y-108764807D01*
X140549794Y-108751028D01*
X140559062Y-108720267D01*
X140553953Y-108696078D01*
X140544851Y-108680609D01*
X140513731Y-108647636D01*
X140472248Y-108631408D01*
X140416168Y-108630748D01*
X140383117Y-108635561D01*
X140337293Y-108646326D01*
X140297272Y-108659919D01*
X140278896Y-108669070D01*
X140247323Y-108700611D01*
X140226197Y-108743356D01*
X140215393Y-108791896D01*
X140214790Y-108840824D01*
X139550345Y-108840824D01*
X139551089Y-108831481D01*
X139557490Y-108747492D01*
X139561913Y-108682575D01*
X139564417Y-108633807D01*
X139565063Y-108598262D01*
X139563910Y-108573014D01*
X139561018Y-108555137D01*
X139556447Y-108541707D01*
X139550955Y-108531019D01*
X139525548Y-108500748D01*
X139499224Y-108495171D01*
X139474030Y-108514146D01*
X139460303Y-108537273D01*
X139454551Y-108558838D01*
X139446432Y-108603129D01*
X139436201Y-108667997D01*
X139424112Y-108751293D01*
X139410417Y-108850867D01*
X139395370Y-108964571D01*
X139379225Y-109090256D01*
X139362236Y-109225773D01*
X139344657Y-109368972D01*
X139326740Y-109517705D01*
X139308740Y-109669823D01*
X139290910Y-109823177D01*
X139273504Y-109975617D01*
X139256776Y-110124995D01*
X139240979Y-110269162D01*
X139226367Y-110405969D01*
X139213193Y-110533267D01*
X139201711Y-110648906D01*
X139192175Y-110750738D01*
X139184838Y-110836614D01*
X139179955Y-110904385D01*
X139179037Y-110920278D01*
X139176319Y-111000996D01*
X138949994Y-111000996D01*
X138950951Y-110990290D01*
X138961862Y-110879848D01*
X138975927Y-110745795D01*
X138993161Y-110587986D01*
X139013582Y-110406275D01*
X139037205Y-110200517D01*
X139064045Y-109970568D01*
X139094121Y-109716281D01*
X139127446Y-109437512D01*
X139164038Y-109134115D01*
X139170134Y-109083795D01*
X139241080Y-108498511D01*
X139216444Y-108465513D01*
X139190909Y-108435817D01*
X139161036Y-108411439D01*
X139123824Y-108391533D01*
X139076275Y-108375259D01*
X139015390Y-108361773D01*
X138938168Y-108350232D01*
X138841609Y-108339793D01*
X138736879Y-108330738D01*
X138651668Y-108323496D01*
X138565472Y-108315245D01*
X138475307Y-108305607D01*
X138378189Y-108294206D01*
X138271135Y-108280665D01*
X138151161Y-108264607D01*
X138015282Y-108245656D01*
X137860515Y-108223434D01*
X137694321Y-108199106D01*
X137602541Y-108185869D01*
X137516213Y-108173966D01*
X137439232Y-108163892D01*
X137375495Y-108156141D01*
X137328897Y-108151208D01*
X137304092Y-108149582D01*
X137242155Y-108156448D01*
X137199779Y-108177572D01*
X137175448Y-108213742D01*
X137174309Y-108217082D01*
X137164335Y-108253673D01*
X137151001Y-108311004D01*
X137135030Y-108385220D01*
X137117145Y-108472467D01*
X137098069Y-108568891D01*
X137078525Y-108670635D01*
X137059236Y-108773847D01*
X137040926Y-108874670D01*
X137024316Y-108969251D01*
X137010131Y-109053735D01*
X136999092Y-109124267D01*
X136991925Y-109176992D01*
X136989549Y-109202068D01*
X136982784Y-109322846D01*
X137023885Y-109344100D01*
X137066787Y-109372188D01*
X137114647Y-109412472D01*
X137160231Y-109457957D01*
X137196308Y-109501645D01*
X137210825Y-109524951D01*
X137225656Y-109563764D01*
X137238210Y-109612823D01*
X137242506Y-109637781D01*
X137257473Y-109697158D01*
X137288368Y-109773927D01*
X137319504Y-109837880D01*
X137351929Y-109903436D01*
X137373817Y-109955383D01*
X137387839Y-110001352D01*
X137396666Y-110048975D01*
X137398587Y-110063780D01*
X137402749Y-110181214D01*
X137388043Y-110297187D01*
X137355766Y-110405495D01*
X137307665Y-110499246D01*
X137288543Y-110537513D01*
X137271326Y-110587159D01*
X137263424Y-110619547D01*
X137239119Y-110703301D01*
X137199230Y-110793755D01*
X137148134Y-110882534D01*
X137090207Y-110961265D01*
X137076806Y-110976600D01*
X137019979Y-111041019D01*
X136980184Y-111090965D01*
X136956286Y-111129160D01*
X136947152Y-111158325D01*
X136684587Y-111158325D01*
X136684881Y-111119606D01*
X136684706Y-111069769D01*
X136684601Y-110967981D01*
X136685817Y-110888281D01*
X136688695Y-110827767D01*
X136693573Y-110783533D01*
X136700789Y-110752675D01*
X136710684Y-110732289D01*
X136723595Y-110719472D01*
X136725743Y-110718066D01*
X136746232Y-110711469D01*
X136783094Y-110704549D01*
X136821569Y-110699576D01*
X136892747Y-110685204D01*
X136948654Y-110660004D01*
X136987354Y-110626416D01*
X137006908Y-110586879D01*
X137005378Y-110543834D01*
X136980825Y-110499720D01*
X136980579Y-110499426D01*
X136946913Y-110446139D01*
X136936595Y-110392403D01*
X136938082Y-110373823D01*
X136949236Y-110350783D01*
X136978432Y-110328229D01*
X137006932Y-110313146D01*
X137071455Y-110276966D01*
X137114148Y-110240603D01*
X137137845Y-110202066D01*
X137144769Y-110167854D01*
X137134534Y-110139593D01*
X137104614Y-110113802D01*
X137055193Y-110088212D01*
X136991266Y-110053193D01*
X136951801Y-110016294D01*
X136936286Y-109977007D01*
X136935992Y-109970524D01*
X136941372Y-109948893D01*
X136955766Y-109911611D01*
X136976560Y-109865173D01*
X136987521Y-109842591D01*
X137017443Y-109775557D01*
X137031406Y-109722895D01*
X137029091Y-109679458D01*
X137010180Y-109640099D01*
X136974353Y-109599672D01*
X136972351Y-109597757D01*
X136911460Y-109552766D01*
X136850175Y-109532341D01*
X136789947Y-109536466D01*
X136732222Y-109565126D01*
X136693314Y-109600623D01*
X136671896Y-109626178D01*
X136651387Y-109655278D01*
X136630600Y-109690525D01*
X136608348Y-109734520D01*
X136583442Y-109789865D01*
X136554695Y-109859162D01*
X136520919Y-109945011D01*
X136480927Y-110050016D01*
X136447944Y-110138060D01*
X136394947Y-110279027D01*
X136349136Y-110398012D01*
X136309662Y-110496723D01*
X136275674Y-110576865D01*
X136246324Y-110640144D01*
X136220763Y-110688266D01*
X136198140Y-110722936D01*
X136177607Y-110745861D01*
X136158315Y-110758747D01*
X136139414Y-110763299D01*
X136136623Y-110763368D01*
X136091067Y-110751943D01*
X136043809Y-110720926D01*
X135998277Y-110675209D01*
X135957898Y-110619682D01*
X135926099Y-110559234D01*
X135906306Y-110498756D01*
X135901947Y-110443138D01*
X135903613Y-110430872D01*
X135915912Y-110397369D01*
X135938086Y-110360675D01*
X135964684Y-110327815D01*
X135990257Y-110305816D01*
X136004620Y-110300640D01*
X136024299Y-110308180D01*
X136052015Y-110326819D01*
X136058281Y-110331906D01*
X136098161Y-110357388D01*
X136132332Y-110359409D01*
X136164781Y-110337562D01*
X136180143Y-110319498D01*
X136199161Y-110286937D01*
X136222055Y-110236258D01*
X136246665Y-110173619D01*
X136270831Y-110105176D01*
X136292395Y-110037085D01*
X136309197Y-109975503D01*
X136319077Y-109926586D01*
X136319738Y-109921498D01*
X136322581Y-109881370D01*
X136318063Y-109857749D01*
X136305100Y-109843108D01*
X136274155Y-109835220D01*
X136233139Y-109846836D01*
X136184346Y-109875717D01*
X136130075Y-109919628D01*
X136072623Y-109976332D01*
X136014286Y-110043592D01*
X135957362Y-110119171D01*
X135904148Y-110200833D01*
X135863857Y-110272760D01*
X135825787Y-110350081D01*
X135795005Y-110422443D01*
X135769100Y-110496937D01*
X135745659Y-110580657D01*
X135722270Y-110680694D01*
X135717310Y-110703640D01*
X135670067Y-110937161D01*
X135632654Y-111151610D01*
X135604777Y-111350785D01*
X135586137Y-111538485D01*
X135576441Y-111718508D01*
X135575391Y-111894653D01*
X135582691Y-112070719D01*
X135597301Y-112243387D01*
X135604679Y-112319956D01*
X135610364Y-112390175D01*
X135614063Y-112449384D01*
X135615484Y-112492923D01*
X135614408Y-112515778D01*
X135594982Y-112556156D01*
X135559715Y-112582449D01*
X135526556Y-112589267D01*
X135498916Y-112595263D01*
X135478798Y-112614965D01*
X135465364Y-112650941D01*
X135457774Y-112705759D01*
X135455191Y-112781989D01*
X135209786Y-112781989D01*
X135206669Y-112709792D01*
X135205710Y-112620532D01*
X135206512Y-112533822D01*
X135209320Y-112449840D01*
X135214533Y-112362905D01*
X135222553Y-112267336D01*
X135233778Y-112157455D01*
X135245795Y-112051502D01*
X135281321Y-111762569D01*
X135317536Y-111497521D01*
X135354675Y-111255231D01*
X135392971Y-111034577D01*
X135432658Y-110834433D01*
X135473971Y-110653676D01*
X135517144Y-110491181D01*
X135562411Y-110345823D01*
X135610005Y-110216478D01*
X135644993Y-110134510D01*
X135689245Y-110037164D01*
X135657574Y-110003196D01*
X135612736Y-109939308D01*
X135592304Y-109870146D01*
X135596286Y-109795929D01*
X135624686Y-109716879D01*
X135648914Y-109674238D01*
X135669615Y-109637151D01*
X135682827Y-109604808D01*
X135685377Y-109591501D01*
X135679972Y-109568801D01*
X135665626Y-109531178D01*
X135645146Y-109485793D01*
X135639254Y-109473788D01*
X135598197Y-109406742D01*
X135539918Y-109332477D01*
X135469116Y-109255818D01*
X135390490Y-109181590D01*
X135308739Y-109114617D01*
X135247662Y-109071702D01*
X135156090Y-109016233D01*
X135050695Y-108958496D01*
X134941496Y-108903773D01*
X134850832Y-108862568D01*
X134785415Y-108834547D01*
X134681998Y-108885252D01*
X134605645Y-108920260D01*
X134536216Y-108945762D01*
X134466496Y-108963417D01*
X134389267Y-108974883D01*
X134297315Y-108981819D01*
X134253422Y-108983748D01*
X134101783Y-108982873D01*
X133959057Y-108967495D01*
X133819527Y-108936276D01*
X133677473Y-108887882D01*
X133527177Y-108820975D01*
X133500731Y-108807832D01*
X133323038Y-108705956D01*
X133163654Y-108588203D01*
X133021686Y-108453596D01*
X132896241Y-108301155D01*
X132786425Y-108129902D01*
X132691346Y-107938858D01*
X132677157Y-107905712D01*
X132608442Y-107718333D01*
X132557041Y-107524084D01*
X132522127Y-107318887D01*
X132506809Y-107143656D01*
X132746676Y-107143656D01*
X132746678Y-107148260D01*
X132750092Y-107287377D01*
X132760829Y-107409993D01*
X132780291Y-107523908D01*
X132809880Y-107636924D01*
X132850999Y-107756839D01*
X132860567Y-107781915D01*
X132931872Y-107932950D01*
X133025241Y-108077483D01*
X133138086Y-108213227D01*
X133267817Y-108337897D01*
X133411844Y-108449207D01*
X133567577Y-108544869D01*
X133732428Y-108622598D01*
X133865731Y-108669324D01*
X133956009Y-108690558D01*
X134056249Y-108704660D01*
X134158899Y-108711265D01*
X134256408Y-108710002D01*
X134341223Y-108700506D01*
X134371338Y-108693949D01*
X134494359Y-108650382D01*
X134600572Y-108588784D01*
X134689002Y-108510319D01*
X134758674Y-108416148D01*
X134808613Y-108307435D01*
X134837844Y-108185342D01*
X134843687Y-108130688D01*
X134845327Y-108061305D01*
X134840082Y-107989138D01*
X134827235Y-107912286D01*
X134806069Y-107828848D01*
X134775866Y-107736924D01*
X134735911Y-107634613D01*
X134685484Y-107520014D01*
X134623870Y-107391226D01*
X134550351Y-107246349D01*
X134464210Y-107083483D01*
X134412522Y-106987989D01*
X134354741Y-106880680D01*
X134308690Y-106792046D01*
X134273155Y-106719359D01*
X134246919Y-106659892D01*
X134228766Y-106610919D01*
X134217478Y-106569714D01*
X134212449Y-106539414D01*
X134210116Y-106505826D01*
X134214762Y-106490281D01*
X134228554Y-106486279D01*
X134230187Y-106486263D01*
X134255843Y-106493904D01*
X134290554Y-106517619D01*
X134335648Y-106558594D01*
X134392453Y-106618018D01*
X134449831Y-106682644D01*
X134613785Y-106886298D01*
X134752989Y-107090754D01*
X134867707Y-107296537D01*
X134958199Y-107504171D01*
X135024727Y-107714181D01*
X135066248Y-107918218D01*
X135080232Y-108030755D01*
X135085810Y-108131917D01*
X135082488Y-108228878D01*
X135069769Y-108328812D01*
X135047159Y-108438895D01*
X135023997Y-108530256D01*
X135012349Y-108579236D01*
X135005157Y-108620832D01*
X135003614Y-108647711D01*
X135004291Y-108651402D01*
X135017560Y-108665524D01*
X135048556Y-108687806D01*
X135092650Y-108715185D01*
X135145078Y-108744528D01*
X135291270Y-108827692D01*
X135417785Y-108911661D01*
X135529789Y-109000142D01*
X135622846Y-109087087D01*
X135699302Y-109168689D01*
X135758762Y-109243590D01*
X135805563Y-109318140D01*
X135844047Y-109398691D01*
X135855778Y-109427976D01*
X135879654Y-109488102D01*
X135898625Y-109529462D01*
X135915840Y-109556966D01*
X135934449Y-109575529D01*
X135957602Y-109590063D01*
X135960766Y-109591733D01*
X136009740Y-109606835D01*
X136073787Y-109608202D01*
X136154601Y-109595673D01*
X136253881Y-109569084D01*
X136279300Y-109561029D01*
X136414495Y-109505123D01*
X136533976Y-109430577D01*
X136636493Y-109338212D01*
X136661095Y-109310332D01*
X136713949Y-109241224D01*
X136756789Y-109172857D01*
X136786957Y-109110158D01*
X136801795Y-109058055D01*
X136802777Y-109047743D01*
X136802419Y-109021050D01*
X136793178Y-109010420D01*
X136767930Y-109009874D01*
X136758516Y-109010594D01*
X136703821Y-109009563D01*
X136632313Y-109000350D01*
X136550260Y-108984407D01*
X136463932Y-108963184D01*
X136379595Y-108938136D01*
X136303521Y-108910712D01*
X136275088Y-108898631D01*
X136157039Y-108835027D01*
X136061396Y-108760457D01*
X135987965Y-108674680D01*
X135936556Y-108577454D01*
X135906974Y-108468536D01*
X135901792Y-108428135D01*
X135898631Y-108384495D01*
X135900279Y-108359367D01*
X135907819Y-108346531D01*
X135916849Y-108341655D01*
X135925940Y-108339187D01*
X135935583Y-108340794D01*
X135948319Y-108348870D01*
X135966686Y-108365808D01*
X135993225Y-108394004D01*
X136030473Y-108435850D01*
X136080972Y-108493742D01*
X136093634Y-108508319D01*
X136176456Y-108584833D01*
X136275473Y-108642805D01*
X136389634Y-108681804D01*
X136517886Y-108701403D01*
X136573314Y-108703720D01*
X136644672Y-108702854D01*
X136712273Y-108698885D01*
X136770484Y-108692402D01*
X136813668Y-108683993D01*
X136833125Y-108676582D01*
X136840725Y-108660974D01*
X136850657Y-108624201D01*
X136862106Y-108569912D01*
X136874258Y-108501757D01*
X136879725Y-108467627D01*
X136898788Y-108349986D01*
X136917647Y-108243784D01*
X136935746Y-108151688D01*
X136952528Y-108076365D01*
X136967438Y-108020483D01*
X136979918Y-107986709D01*
X136980153Y-107986249D01*
X137000208Y-107954900D01*
X137025919Y-107933295D01*
X137063818Y-107917537D01*
X137117356Y-107904372D01*
X137204187Y-107875982D01*
X137262414Y-107843486D01*
X137334002Y-107802592D01*
X137410786Y-107776689D01*
X137499484Y-107763962D01*
X137563972Y-107761891D01*
X137640118Y-107758950D01*
X137699346Y-107748587D01*
X137749222Y-107728494D01*
X137797313Y-107696361D01*
X137808690Y-107687212D01*
X137854132Y-107658867D01*
X137901289Y-107650288D01*
X137956039Y-107661063D01*
X137990115Y-107674465D01*
X138048405Y-107697868D01*
X138124060Y-107724605D01*
X138213475Y-107753703D01*
X138313040Y-107784191D01*
X138419149Y-107815094D01*
X138528193Y-107845441D01*
X138636565Y-107874259D01*
X138740657Y-107900574D01*
X138836862Y-107923416D01*
X138921572Y-107941810D01*
X138991179Y-107954783D01*
X139042075Y-107961365D01*
X139056533Y-107961989D01*
X139166396Y-107949993D01*
X139269536Y-107914646D01*
X139365102Y-107856911D01*
X139452241Y-107777750D01*
X139530103Y-107678127D01*
X139597835Y-107559005D01*
X139654585Y-107421345D01*
X139699502Y-107266111D01*
X139708751Y-107224818D01*
X139723256Y-107140238D01*
X139734844Y-107040702D01*
X139743252Y-106932566D01*
X139748216Y-106822188D01*
X139749472Y-106715925D01*
X139746759Y-106620135D01*
X139739811Y-106541176D01*
X139737677Y-106526620D01*
X139694984Y-106339010D01*
X139628741Y-106158734D01*
X139539571Y-105986712D01*
X139428098Y-105823859D01*
X139294948Y-105671093D01*
X139140742Y-105529332D01*
X138974496Y-105405132D01*
X138905300Y-105359865D01*
X138838528Y-105319847D01*
X138771704Y-105284356D01*
X138702351Y-105252666D01*
X138627996Y-105224054D01*
X138546161Y-105197795D01*
X138454373Y-105173166D01*
X138350155Y-105149442D01*
X138231033Y-105125900D01*
X138094530Y-105101815D01*
X137938171Y-105076463D01*
X137759481Y-105049121D01*
X137755146Y-105048471D01*
X137615897Y-105027160D01*
X137499061Y-105008192D01*
X137402201Y-104991050D01*
X137322880Y-104975219D01*
X137258662Y-104960186D01*
X137207110Y-104945433D01*
X137165789Y-104930446D01*
X137138813Y-104918120D01*
X137100652Y-104896841D01*
X137057876Y-104868961D01*
X137008731Y-104833025D01*
X136951468Y-104787578D01*
X136884335Y-104731167D01*
X136805581Y-104662336D01*
X136713454Y-104579630D01*
X136606205Y-104481595D01*
X136542049Y-104422384D01*
X136422725Y-104312539D01*
X136318481Y-104217911D01*
X136226595Y-104136144D01*
X136144347Y-104064882D01*
X136069014Y-104001772D01*
X135997876Y-103944458D01*
X135928212Y-103890584D01*
X135922994Y-103886635D01*
X135817842Y-103809832D01*
X135725635Y-103749266D01*
X135641921Y-103703207D01*
X135562246Y-103669922D01*
X135482154Y-103647681D01*
X135397193Y-103634753D01*
X135302909Y-103629405D01*
X135260168Y-103629003D01*
X135163690Y-103631135D01*
X135076469Y-103638079D01*
X134991704Y-103651058D01*
X134902594Y-103671293D01*
X134802339Y-103700008D01*
X134722403Y-103725636D01*
X134563049Y-103785213D01*
X134410438Y-103855665D01*
X134268888Y-103934537D01*
X134142719Y-104019370D01*
X134036249Y-104107706D01*
X134015050Y-104128211D01*
X133916207Y-104234491D01*
X133814635Y-104357523D01*
X133713611Y-104492383D01*
X133616413Y-104634148D01*
X133526315Y-104777896D01*
X133446597Y-104918704D01*
X133380532Y-105051650D01*
X133345362Y-105134329D01*
X133283805Y-105286178D01*
X133210356Y-105457387D01*
X133125933Y-105645831D01*
X133089593Y-105724920D01*
X133052105Y-105807941D01*
X133025434Y-105872535D01*
X133008604Y-105922336D01*
X133000637Y-105960974D01*
X133000557Y-105992081D01*
X133007386Y-106019289D01*
X133009189Y-106023848D01*
X133024101Y-106048488D01*
X133048892Y-106065658D01*
X133090882Y-106080506D01*
X133173377Y-106114240D01*
X133258075Y-106168623D01*
X133346742Y-106244921D01*
X133409447Y-106309149D01*
X133450434Y-106352803D01*
X133485616Y-106388798D01*
X133511436Y-106413598D01*
X133524339Y-106423669D01*
X133524718Y-106423732D01*
X133533083Y-106413292D01*
X133532196Y-106381554D01*
X133521976Y-106327897D01*
X133503208Y-106254811D01*
X133485324Y-106187073D01*
X133475320Y-106139702D01*
X133473087Y-106109362D01*
X133478516Y-106092718D01*
X133491498Y-106086435D01*
X133497673Y-106086066D01*
X133529365Y-106094648D01*
X133572273Y-106120871D01*
X133627304Y-106165451D01*
X133695365Y-106229104D01*
X133753657Y-106287877D01*
X133856062Y-106398546D01*
X133945841Y-106507229D01*
X134029371Y-106622220D01*
X134113025Y-106751811D01*
X134123752Y-106769357D01*
X134171031Y-106850140D01*
X134223199Y-106944573D01*
X134278771Y-107049528D01*
X134336266Y-107161875D01*
X134394199Y-107278485D01*
X134451089Y-107396229D01*
X134505452Y-107511977D01*
X134555804Y-107622601D01*
X134600664Y-107724969D01*
X134638547Y-107815954D01*
X134667971Y-107892427D01*
X134687454Y-107951256D01*
X134691920Y-107968243D01*
X134707094Y-108076341D01*
X134701285Y-108178060D01*
X134675144Y-108270482D01*
X134629322Y-108350691D01*
X134598638Y-108385902D01*
X134529499Y-108442468D01*
X134448853Y-108484091D01*
X134353839Y-108511676D01*
X134241597Y-108526131D01*
X134147120Y-108528912D01*
X134007412Y-108519892D01*
X133875902Y-108493045D01*
X133750003Y-108447135D01*
X133627129Y-108380927D01*
X133504694Y-108293184D01*
X133380111Y-108182671D01*
X133340473Y-108143416D01*
X133232537Y-108025303D01*
X133134389Y-107900625D01*
X133048858Y-107773689D01*
X132978771Y-107648798D01*
X132926956Y-107530257D01*
X132915212Y-107495995D01*
X132894956Y-107419130D01*
X132876815Y-107325535D01*
X132861948Y-107223470D01*
X132851516Y-107121200D01*
X132846679Y-107026987D01*
X132846480Y-107006515D01*
X132845452Y-106938505D01*
X132842635Y-106871933D01*
X132838430Y-106811380D01*
X132833239Y-106761426D01*
X132827462Y-106726652D01*
X132821500Y-106711639D01*
X132820637Y-106711374D01*
X132810829Y-106722768D01*
X132798080Y-106753370D01*
X132784087Y-106797810D01*
X132770551Y-106850719D01*
X132759580Y-106904390D01*
X132754571Y-106945733D01*
X132750482Y-107004468D01*
X132747716Y-107072980D01*
X132746676Y-107143656D01*
X132506809Y-107143656D01*
X132502876Y-107098658D01*
X132500070Y-107030281D01*
X132503257Y-106770625D01*
X132529648Y-106518003D01*
X132579657Y-106269141D01*
X132610758Y-106154850D01*
X132639577Y-106065589D01*
X132676910Y-105963194D01*
X132720893Y-105851790D01*
X132769663Y-105735503D01*
X132821355Y-105618459D01*
X132874106Y-105504782D01*
X132926052Y-105398600D01*
X132975328Y-105304036D01*
X133020072Y-105225217D01*
X133055591Y-105170213D01*
X133092020Y-105118900D01*
X133130594Y-105064568D01*
X133163098Y-105018787D01*
X133163724Y-105017905D01*
X133187945Y-104981594D01*
X133203521Y-104949993D01*
X133213332Y-104914450D01*
X133220255Y-104866313D01*
X133223072Y-104839470D01*
X133244150Y-104704815D01*
X133280551Y-104580006D01*
X133334050Y-104461725D01*
X133406425Y-104346654D01*
X133499452Y-104231475D01*
X133609324Y-104118215D01*
X133728618Y-104014225D01*
X133868044Y-103910611D01*
X134022820Y-103809977D01*
X134188166Y-103714929D01*
X134359300Y-103628070D01*
X134531442Y-103552006D01*
X134699809Y-103489341D01*
X134840576Y-103447471D01*
X135037581Y-103406139D01*
X135223193Y-103386777D01*
X135398205Y-103389513D01*
G37*
D15*
%TO.C,R7*%
X141820000Y-102500000D02*
X142770000Y-102500000D01*
X142770000Y-101580000D02*
X142770000Y-103420000D01*
X142770000Y-103420000D02*
X146610000Y-103420000D01*
X146610000Y-101580000D02*
X142770000Y-101580000D01*
X146610000Y-103420000D02*
X146610000Y-101580000D01*
X147560000Y-102500000D02*
X146610000Y-102500000D01*
%TO.C,R6*%
X160130000Y-62500000D02*
X161080000Y-62500000D01*
X161080000Y-61580000D02*
X161080000Y-63420000D01*
X161080000Y-63420000D02*
X164920000Y-63420000D01*
X164920000Y-61580000D02*
X161080000Y-61580000D01*
X164920000Y-63420000D02*
X164920000Y-61580000D01*
X165870000Y-62500000D02*
X164920000Y-62500000D01*
%TO.C,Y2*%
X146890000Y-59890000D02*
X156110000Y-59890000D01*
X146890000Y-62540000D02*
X146890000Y-59890000D01*
X146890000Y-69110000D02*
X146890000Y-66460000D01*
X156110000Y-59890000D02*
X156110000Y-62540000D01*
X156110000Y-66460000D02*
X156110000Y-69110000D01*
X156110000Y-66460000D02*
X156440000Y-66460000D01*
X156110000Y-69110000D02*
X146890000Y-69110000D01*
%TO.C,D2*%
X191330000Y-108045000D02*
X191330000Y-104955000D01*
X185780000Y-106500462D02*
G75*
G02*
X191330000Y-104955170I2990000J462D01*
G01*
X191330000Y-108044830D02*
G75*
G02*
X185780000Y-106499538I-2560000J1544830D01*
G01*
X191270000Y-106500000D02*
G75*
G02*
X186270000Y-106500000I-2500000J0D01*
G01*
X186270000Y-106500000D02*
G75*
G02*
X191270000Y-106500000I2500000J0D01*
G01*
%TO.C,A1*%
X96860000Y-58560000D02*
X96860000Y-102000000D01*
X96860000Y-58560000D02*
X101940000Y-58560000D01*
X96860000Y-102000000D02*
X114900000Y-102000000D01*
X99530000Y-61230000D02*
X96860000Y-61230000D01*
X99530000Y-99330000D02*
X96860000Y-99330000D01*
X99530000Y-99330000D02*
X99530000Y-61230000D01*
X101940000Y-56020000D02*
X109820000Y-56020000D01*
X101940000Y-66440000D02*
X101940000Y-56020000D01*
X109820000Y-56020000D02*
X109820000Y-66440000D01*
X109820000Y-66440000D02*
X101940000Y-66440000D01*
X112230000Y-61230000D02*
X114900000Y-61230000D01*
X112230000Y-96790000D02*
X112230000Y-61230000D01*
X112230000Y-96790000D02*
X112230000Y-99330000D01*
X112230000Y-96790000D02*
X114900000Y-96790000D01*
X112230000Y-99330000D02*
X114900000Y-99330000D01*
X114900000Y-58560000D02*
X109820000Y-58560000D01*
X114900000Y-96790000D02*
X114900000Y-58560000D01*
X114900000Y-102000000D02*
X114900000Y-99330000D01*
%TO.C,D3*%
X165290000Y-69045000D02*
X165290000Y-65955000D01*
X159740000Y-67500462D02*
G75*
G02*
X165290000Y-65955170I2990000J462D01*
G01*
X165290000Y-69044830D02*
G75*
G02*
X159740000Y-67499538I-2560000J1544830D01*
G01*
X165230000Y-67500000D02*
G75*
G02*
X160230000Y-67500000I-2500000J0D01*
G01*
X160230000Y-67500000D02*
G75*
G02*
X165230000Y-67500000I2500000J0D01*
G01*
%TO.C,R4*%
X116320000Y-113500000D02*
X117270000Y-113500000D01*
X117270000Y-112580000D02*
X117270000Y-114420000D01*
X117270000Y-114420000D02*
X121110000Y-114420000D01*
X121110000Y-112580000D02*
X117270000Y-112580000D01*
X121110000Y-114420000D02*
X121110000Y-112580000D01*
X122060000Y-113500000D02*
X121110000Y-113500000D01*
%TO.C,R8*%
X178630000Y-72000000D02*
X179580000Y-72000000D01*
X179580000Y-71080000D02*
X179580000Y-72920000D01*
X179580000Y-72920000D02*
X183420000Y-72920000D01*
X183420000Y-71080000D02*
X179580000Y-71080000D01*
X183420000Y-72920000D02*
X183420000Y-71080000D01*
X184370000Y-72000000D02*
X183420000Y-72000000D01*
D14*
%TO.C,G\u002A\u002A\u002A*%
G36*
X140427017Y-55919334D02*
G01*
X140427669Y-55990044D01*
X140428312Y-56104311D01*
X140428941Y-56259557D01*
X140429552Y-56453209D01*
X140430140Y-56682691D01*
X140430699Y-56945429D01*
X140431226Y-57238846D01*
X140431716Y-57560369D01*
X140432164Y-57907421D01*
X140432565Y-58277428D01*
X140432915Y-58667815D01*
X140433208Y-59076007D01*
X140433440Y-59499428D01*
X140433570Y-59820155D01*
X140433699Y-60341394D01*
X140433701Y-60816089D01*
X140433557Y-61246403D01*
X140433249Y-61634499D01*
X140432761Y-61982538D01*
X140432072Y-62292683D01*
X140431167Y-62567097D01*
X140430025Y-62807941D01*
X140428631Y-63017379D01*
X140426965Y-63197571D01*
X140425010Y-63350681D01*
X140422748Y-63478871D01*
X140420160Y-63584304D01*
X140417230Y-63669140D01*
X140413938Y-63735544D01*
X140410267Y-63785677D01*
X140406199Y-63821701D01*
X140401716Y-63845779D01*
X140400071Y-63851702D01*
X140322683Y-64044980D01*
X140214432Y-64237700D01*
X140085233Y-64414809D01*
X139945002Y-64561257D01*
X139916756Y-64585336D01*
X139695244Y-64736530D01*
X139446400Y-64852905D01*
X139178734Y-64932621D01*
X138900757Y-64973837D01*
X138620978Y-64974713D01*
X138347907Y-64933409D01*
X138328690Y-64928748D01*
X138179408Y-64882950D01*
X138056728Y-64822522D01*
X137942037Y-64736802D01*
X137861726Y-64661242D01*
X137721876Y-64488381D01*
X137621835Y-64293088D01*
X137561697Y-64081125D01*
X137541556Y-63858255D01*
X137561507Y-63630239D01*
X137621644Y-63402841D01*
X137722060Y-63181822D01*
X137834737Y-63009108D01*
X137856911Y-62984755D01*
X140336338Y-62984755D01*
X140348514Y-62996932D01*
X140360691Y-62984755D01*
X140348514Y-62972579D01*
X140336338Y-62984755D01*
X137856911Y-62984755D01*
X137901258Y-62936050D01*
X140311985Y-62936050D01*
X140324161Y-62948226D01*
X140336338Y-62936050D01*
X140324161Y-62923873D01*
X140311985Y-62936050D01*
X137901258Y-62936050D01*
X138007021Y-62819895D01*
X138213565Y-62659828D01*
X138447584Y-62531828D01*
X138702296Y-62438814D01*
X138970918Y-62383708D01*
X139246666Y-62369430D01*
X139313519Y-62372427D01*
X139550643Y-62399094D01*
X139750467Y-62448322D01*
X139920515Y-62523615D01*
X140068311Y-62628480D01*
X140201379Y-62766422D01*
X140226530Y-62797828D01*
X140311985Y-62907514D01*
X140311985Y-59753716D01*
X140311985Y-56599918D01*
X139502253Y-56718552D01*
X139330563Y-56743710D01*
X139117725Y-56774902D01*
X138870782Y-56811096D01*
X138596777Y-56851259D01*
X138302754Y-56894360D01*
X137995754Y-56939365D01*
X137682821Y-56985243D01*
X137370998Y-57030960D01*
X137073059Y-57074645D01*
X135453596Y-57312102D01*
X135448733Y-60891190D01*
X135448031Y-61382276D01*
X135447305Y-61827046D01*
X135446527Y-62227889D01*
X135445666Y-62587194D01*
X135444695Y-62907351D01*
X135443583Y-63190750D01*
X135442301Y-63439779D01*
X135440821Y-63656829D01*
X135439113Y-63844288D01*
X135437149Y-64004546D01*
X135434898Y-64139992D01*
X135432332Y-64253016D01*
X135429421Y-64346007D01*
X135426138Y-64421354D01*
X135422451Y-64481448D01*
X135418332Y-64528677D01*
X135413753Y-64565430D01*
X135408684Y-64594098D01*
X135403283Y-64616395D01*
X135310502Y-64861462D01*
X135176098Y-65084992D01*
X135003916Y-65282906D01*
X134797800Y-65451124D01*
X134561596Y-65585568D01*
X134442698Y-65635397D01*
X134346418Y-65666185D01*
X134225479Y-65697223D01*
X134093719Y-65725789D01*
X133964979Y-65749162D01*
X133853100Y-65764622D01*
X133771923Y-65769447D01*
X133762871Y-65769060D01*
X133696207Y-65764341D01*
X133614599Y-65758114D01*
X133602781Y-65757175D01*
X133371342Y-65722611D01*
X133172836Y-65657017D01*
X133000443Y-65557502D01*
X132873239Y-65448016D01*
X132723896Y-65265707D01*
X132619118Y-65064546D01*
X132559341Y-64846292D01*
X132545000Y-64612702D01*
X132576528Y-64365532D01*
X132590638Y-64305674D01*
X132679227Y-64051271D01*
X132807030Y-63825160D01*
X132972883Y-63628395D01*
X133175623Y-63462033D01*
X133414084Y-63327129D01*
X133687103Y-63224738D01*
X133821956Y-63189313D01*
X134091263Y-63147277D01*
X134349922Y-63146544D01*
X134593530Y-63185832D01*
X134817684Y-63263860D01*
X135017981Y-63379348D01*
X135190019Y-63531015D01*
X135253221Y-63605753D01*
X135319115Y-63690987D01*
X135319385Y-60179195D01*
X135319655Y-56667403D01*
X135398802Y-56652876D01*
X135444156Y-56645320D01*
X135532003Y-56631417D01*
X135658491Y-56611748D01*
X135819767Y-56586894D01*
X136011982Y-56557436D01*
X136231281Y-56523955D01*
X136473815Y-56487031D01*
X136735730Y-56447245D01*
X137013176Y-56405179D01*
X137302300Y-56361412D01*
X137599250Y-56316526D01*
X137900176Y-56271102D01*
X138201224Y-56225720D01*
X138498544Y-56180962D01*
X138788283Y-56137407D01*
X139066590Y-56095637D01*
X139329613Y-56056233D01*
X139573500Y-56019776D01*
X139794399Y-55986845D01*
X139988459Y-55958023D01*
X140151827Y-55933890D01*
X140280653Y-55915027D01*
X140371083Y-55902014D01*
X140419267Y-55895433D01*
X140426361Y-55894753D01*
X140427017Y-55919334D01*
G37*
D15*
%TO.C,D5*%
X185790000Y-78045000D02*
X185790000Y-74955000D01*
X180240000Y-76500462D02*
G75*
G02*
X185790000Y-74955170I2990000J462D01*
G01*
X185790000Y-78044830D02*
G75*
G02*
X180240000Y-76499538I-2560000J1544830D01*
G01*
X185730000Y-76500000D02*
G75*
G02*
X180730000Y-76500000I-2500000J0D01*
G01*
X180730000Y-76500000D02*
G75*
G02*
X185730000Y-76500000I2500000J0D01*
G01*
%TO.C,Y1*%
X182040000Y-59890000D02*
X191260000Y-59890000D01*
X182040000Y-62540000D02*
X182040000Y-59890000D01*
X182040000Y-69110000D02*
X182040000Y-66460000D01*
X191260000Y-59890000D02*
X191260000Y-62540000D01*
X191260000Y-66460000D02*
X191260000Y-69110000D01*
X191260000Y-66460000D02*
X191590000Y-66460000D01*
X191260000Y-69110000D02*
X182040000Y-69110000D01*
D14*
%TO.C,G\u002A\u002A\u002A*%
G36*
X174367010Y-59996359D02*
G01*
X174420604Y-60010844D01*
X174470276Y-60038615D01*
X174592772Y-60140584D01*
X174694489Y-60269472D01*
X174773644Y-60422379D01*
X174828454Y-60596408D01*
X174836281Y-60633207D01*
X174849502Y-60732135D01*
X174856672Y-60857088D01*
X174858030Y-60999303D01*
X174853817Y-61150017D01*
X174844273Y-61300467D01*
X174829638Y-61441891D01*
X174810823Y-61562074D01*
X174752235Y-61790495D01*
X174662076Y-62032563D01*
X174540936Y-62287251D01*
X174389407Y-62553532D01*
X174208079Y-62830378D01*
X173997543Y-63116764D01*
X173758390Y-63411660D01*
X173722823Y-63453375D01*
X173647469Y-63544830D01*
X173597957Y-63613445D01*
X173573784Y-63659952D01*
X173571033Y-63674321D01*
X173573308Y-63702272D01*
X173579719Y-63757980D01*
X173589486Y-63835820D01*
X173601830Y-63930167D01*
X173615969Y-64035396D01*
X173631124Y-64145882D01*
X173646515Y-64256001D01*
X173661361Y-64360126D01*
X173674883Y-64452634D01*
X173686301Y-64527899D01*
X173694834Y-64580296D01*
X173699702Y-64604201D01*
X173700102Y-64605019D01*
X173718814Y-64605019D01*
X173762651Y-64599913D01*
X173819199Y-64591278D01*
X173980880Y-64578249D01*
X174156548Y-64588316D01*
X174335079Y-64619690D01*
X174505346Y-64670588D01*
X174619379Y-64719720D01*
X174816038Y-64836676D01*
X174986281Y-64977053D01*
X175129754Y-65140443D01*
X175246099Y-65326436D01*
X175334961Y-65534622D01*
X175338971Y-65546490D01*
X175390911Y-65757277D01*
X175408253Y-65973536D01*
X175391152Y-66194269D01*
X175339763Y-66418476D01*
X175254241Y-66645158D01*
X175134742Y-66873316D01*
X175132045Y-66877823D01*
X175036711Y-67021062D01*
X174932075Y-67145450D01*
X174812935Y-67255205D01*
X174674089Y-67354544D01*
X174510336Y-67447687D01*
X174317597Y-67538365D01*
X174241369Y-67572890D01*
X174178647Y-67603884D01*
X174135700Y-67628063D01*
X174118795Y-67642143D01*
X174118745Y-67642553D01*
X174120928Y-67663694D01*
X174127173Y-67715721D01*
X174136954Y-67794469D01*
X174149747Y-67895771D01*
X174165025Y-68015461D01*
X174182263Y-68149373D01*
X174196757Y-68261203D01*
X174218067Y-68426590D01*
X174234888Y-68561388D01*
X174247582Y-68670023D01*
X174256512Y-68756924D01*
X174262041Y-68826517D01*
X174264532Y-68883231D01*
X174264346Y-68931491D01*
X174261848Y-68975727D01*
X174258296Y-69012387D01*
X174236954Y-69157665D01*
X174205242Y-69283271D01*
X174158648Y-69404397D01*
X174115364Y-69493494D01*
X174028933Y-69627948D01*
X173918815Y-69748813D01*
X173791604Y-69850958D01*
X173653892Y-69929255D01*
X173512275Y-69978573D01*
X173484331Y-69984458D01*
X173403930Y-69994257D01*
X173301304Y-69999363D01*
X173188341Y-69999909D01*
X173076927Y-69996031D01*
X172978947Y-69987864D01*
X172916702Y-69978004D01*
X172788560Y-69934453D01*
X172659291Y-69862496D01*
X172536166Y-69768065D01*
X172426459Y-69657093D01*
X172337441Y-69535512D01*
X172306890Y-69480558D01*
X172281380Y-69426087D01*
X172265630Y-69379095D01*
X172257341Y-69327704D01*
X172254215Y-69260034D01*
X172253863Y-69206404D01*
X172254920Y-69123755D01*
X172259757Y-69064112D01*
X172270872Y-69015151D01*
X172290762Y-68964549D01*
X172311849Y-68920326D01*
X172392402Y-68792173D01*
X172492922Y-68692041D01*
X172611031Y-68621380D01*
X172744348Y-68581636D01*
X172881350Y-68573760D01*
X173023308Y-68597067D01*
X173150158Y-68651864D01*
X173260115Y-68736896D01*
X173351396Y-68850911D01*
X173398726Y-68937516D01*
X173427565Y-69004053D01*
X173444451Y-69060386D01*
X173452497Y-69121439D01*
X173454815Y-69202137D01*
X173454835Y-69206625D01*
X173453746Y-69285186D01*
X173447973Y-69341157D01*
X173434833Y-69387243D01*
X173411644Y-69436150D01*
X173403041Y-69451977D01*
X173343680Y-69537150D01*
X173262114Y-69624027D01*
X173169322Y-69702133D01*
X173082531Y-69757742D01*
X173022425Y-69797953D01*
X172993809Y-69837073D01*
X172997898Y-69872712D01*
X173015130Y-69890407D01*
X173038724Y-69903637D01*
X173069047Y-69910786D01*
X173111893Y-69911645D01*
X173173053Y-69906009D01*
X173258320Y-69893670D01*
X173350034Y-69878449D01*
X173502527Y-69845705D01*
X173626475Y-69803282D01*
X173728021Y-69748312D01*
X173813309Y-69677931D01*
X173839678Y-69650000D01*
X173920822Y-69537100D01*
X173988954Y-69398387D01*
X174041326Y-69241878D01*
X174075191Y-69075589D01*
X174087515Y-68926951D01*
X174086964Y-68875631D01*
X174083921Y-68794606D01*
X174078693Y-68689412D01*
X174071588Y-68565584D01*
X174062914Y-68428658D01*
X174052977Y-68284169D01*
X174048088Y-68216980D01*
X174005541Y-67642519D01*
X173615784Y-67641493D01*
X173485690Y-67640893D01*
X173384408Y-67639498D01*
X173305398Y-67636755D01*
X173242123Y-67632113D01*
X173188042Y-67625019D01*
X173136617Y-67614921D01*
X173081309Y-67601267D01*
X173054470Y-67594101D01*
X172805872Y-67508919D01*
X172571425Y-67392297D01*
X172354650Y-67246277D01*
X172164389Y-67078272D01*
X171988783Y-66877620D01*
X171844477Y-66660683D01*
X171731770Y-66428043D01*
X171650961Y-66180281D01*
X171615368Y-66009505D01*
X171598348Y-65830740D01*
X172070267Y-65830740D01*
X172073885Y-65908850D01*
X172082177Y-66009963D01*
X172104149Y-66196114D01*
X172135278Y-66357904D01*
X172178249Y-66505725D01*
X172235743Y-66649968D01*
X172261813Y-66705706D01*
X172367975Y-66888189D01*
X172497940Y-67046099D01*
X172652410Y-67179906D01*
X172832086Y-67290076D01*
X173037673Y-67377078D01*
X173269870Y-67441380D01*
X173402784Y-67466228D01*
X173528338Y-67481715D01*
X173653942Y-67489117D01*
X173769636Y-67488312D01*
X173865459Y-67479178D01*
X173899455Y-67472315D01*
X173978725Y-67452354D01*
X173968286Y-67379517D01*
X173963963Y-67348812D01*
X173955255Y-67286491D01*
X173942635Y-67195954D01*
X173926576Y-67080600D01*
X173907551Y-66943829D01*
X173886033Y-66789041D01*
X173862494Y-66619636D01*
X173837408Y-66439013D01*
X173818341Y-66301677D01*
X173792620Y-66117350D01*
X173768118Y-65943632D01*
X173745294Y-65783656D01*
X173724609Y-65640555D01*
X173706522Y-65517462D01*
X173691492Y-65417510D01*
X173679978Y-65343831D01*
X173672441Y-65299560D01*
X173669594Y-65287432D01*
X173646403Y-65286813D01*
X173601247Y-65301820D01*
X173541768Y-65328757D01*
X173475607Y-65363931D01*
X173410406Y-65403648D01*
X173368084Y-65433180D01*
X173234276Y-65553072D01*
X173131456Y-65689382D01*
X173059251Y-65842879D01*
X173017292Y-66014331D01*
X173005080Y-66186124D01*
X173016166Y-66346781D01*
X173050521Y-66482422D01*
X173109796Y-66596002D01*
X173195641Y-66690475D01*
X173309704Y-66768795D01*
X173339139Y-66784348D01*
X173405525Y-66822586D01*
X173440398Y-66853646D01*
X173443281Y-66876202D01*
X173413694Y-66888928D01*
X173377736Y-66891301D01*
X173286195Y-66876423D01*
X173179154Y-66832628D01*
X173059526Y-66761175D01*
X173031871Y-66741914D01*
X172889135Y-66623113D01*
X172777017Y-66490844D01*
X172691879Y-66340374D01*
X172657632Y-66254975D01*
X172626396Y-66124884D01*
X172615308Y-65974998D01*
X172623782Y-65814154D01*
X172651229Y-65651187D01*
X172697064Y-65494936D01*
X172710422Y-65460192D01*
X172801446Y-65277714D01*
X172822554Y-65247460D01*
X173780003Y-65247460D01*
X173789756Y-65296068D01*
X173793595Y-65320455D01*
X173801659Y-65375654D01*
X173813432Y-65457931D01*
X173828394Y-65563551D01*
X173846028Y-65688778D01*
X173865813Y-65829878D01*
X173887232Y-65983115D01*
X173909767Y-66144755D01*
X173932898Y-66311062D01*
X173956107Y-66478303D01*
X173978876Y-66642740D01*
X174000686Y-66800640D01*
X174021018Y-66948268D01*
X174039355Y-67081888D01*
X174055176Y-67197765D01*
X174067965Y-67292165D01*
X174077201Y-67361353D01*
X174082367Y-67401592D01*
X174083299Y-67410375D01*
X174097472Y-67413143D01*
X174134886Y-67402098D01*
X174187881Y-67380603D01*
X174248798Y-67352017D01*
X174309976Y-67319702D01*
X174362458Y-67287883D01*
X174503128Y-67176442D01*
X174617140Y-67045698D01*
X174705862Y-66893364D01*
X174770659Y-66717154D01*
X174808926Y-66540827D01*
X174818559Y-66457904D01*
X174824715Y-66357730D01*
X174827404Y-66249618D01*
X174826639Y-66142880D01*
X174822429Y-66046828D01*
X174814787Y-65970775D01*
X174808203Y-65937280D01*
X174745405Y-65769412D01*
X174654605Y-65620431D01*
X174539144Y-65492877D01*
X174402365Y-65389290D01*
X174247608Y-65312208D01*
X174078217Y-65264172D01*
X173900718Y-65247721D01*
X173780003Y-65247460D01*
X172822554Y-65247460D01*
X172920161Y-65107563D01*
X173061559Y-64954840D01*
X173220633Y-64824648D01*
X173392375Y-64722086D01*
X173468607Y-64687857D01*
X173524907Y-64664773D01*
X173566210Y-64647281D01*
X173583643Y-64639141D01*
X173583664Y-64639123D01*
X173582858Y-64621021D01*
X173577567Y-64573754D01*
X173568615Y-64503106D01*
X173556830Y-64414860D01*
X173543036Y-64314802D01*
X173528060Y-64208715D01*
X173512727Y-64102385D01*
X173497864Y-64001594D01*
X173484297Y-63912129D01*
X173472850Y-63839772D01*
X173464352Y-63790310D01*
X173459626Y-63769524D01*
X173459469Y-63769303D01*
X173445630Y-63779299D01*
X173411614Y-63812327D01*
X173360606Y-63864894D01*
X173295795Y-63933504D01*
X173220368Y-64014662D01*
X173137513Y-64104874D01*
X173050417Y-64200645D01*
X172962269Y-64298479D01*
X172876255Y-64394881D01*
X172795564Y-64486358D01*
X172723383Y-64569413D01*
X172662899Y-64640553D01*
X172643294Y-64664161D01*
X172474268Y-64880279D01*
X172335856Y-65081010D01*
X172227417Y-65267480D01*
X172148309Y-65440818D01*
X172097890Y-65602153D01*
X172090675Y-65635688D01*
X172078418Y-65704899D01*
X172071696Y-65766336D01*
X172070267Y-65830740D01*
X171598348Y-65830740D01*
X171596934Y-65815894D01*
X171600789Y-65603140D01*
X171626058Y-65378800D01*
X171671862Y-65150432D01*
X171737323Y-64925595D01*
X171743232Y-64908421D01*
X171810036Y-64734228D01*
X171887377Y-64567844D01*
X171977866Y-64405687D01*
X172084118Y-64244178D01*
X172208744Y-64079735D01*
X172354357Y-63908777D01*
X172523569Y-63727724D01*
X172718995Y-63532995D01*
X172811344Y-63444537D01*
X172904632Y-63356035D01*
X172995658Y-63269588D01*
X173079195Y-63190168D01*
X173150015Y-63122746D01*
X173202888Y-63072295D01*
X173220249Y-63055671D01*
X173321560Y-62958455D01*
X173259850Y-62746872D01*
X173209224Y-62566808D01*
X173170262Y-62411283D01*
X173154425Y-62334246D01*
X173351169Y-62334246D01*
X173370281Y-62510527D01*
X173404884Y-62688415D01*
X173432390Y-62809350D01*
X173647371Y-62602979D01*
X173734086Y-62518403D01*
X173825701Y-62426794D01*
X173913093Y-62337413D01*
X173987142Y-62259520D01*
X174009175Y-62235638D01*
X174140590Y-62081055D01*
X174253859Y-61926412D01*
X174344753Y-61777936D01*
X174404012Y-61654520D01*
X174430795Y-61589683D01*
X174454088Y-61535381D01*
X174469451Y-61501926D01*
X174470900Y-61499155D01*
X174492880Y-61438830D01*
X174510549Y-61351204D01*
X174523609Y-61244098D01*
X174531763Y-61125334D01*
X174534713Y-61002734D01*
X174532161Y-60884120D01*
X174523809Y-60777312D01*
X174509362Y-60690133D01*
X174502626Y-60665110D01*
X174479236Y-60607028D01*
X174446437Y-60546789D01*
X174410082Y-60493047D01*
X174376027Y-60454454D01*
X174350124Y-60439666D01*
X174350122Y-60439666D01*
X174332139Y-60450398D01*
X174293982Y-60479220D01*
X174242194Y-60521072D01*
X174209801Y-60548208D01*
X174057696Y-60694374D01*
X173912964Y-60869144D01*
X173774274Y-61074400D01*
X173640294Y-61312026D01*
X173570701Y-61451815D01*
X173481675Y-61651610D01*
X173416141Y-61832799D01*
X173373166Y-62002334D01*
X173351820Y-62167166D01*
X173351169Y-62334246D01*
X173154425Y-62334246D01*
X173141621Y-62271964D01*
X173121960Y-62140519D01*
X173109938Y-62008613D01*
X173104213Y-61867913D01*
X173103239Y-61774182D01*
X173103210Y-61660769D01*
X173104112Y-61575622D01*
X173106816Y-61511656D01*
X173112194Y-61461784D01*
X173121116Y-61418922D01*
X173134455Y-61375984D01*
X173153082Y-61325885D01*
X173160846Y-61305776D01*
X173264190Y-61060057D01*
X173375463Y-60835452D01*
X173493212Y-60633639D01*
X173615987Y-60456297D01*
X173742336Y-60305106D01*
X173870807Y-60181742D01*
X173999949Y-60087886D01*
X174128311Y-60025216D01*
X174254441Y-59995410D01*
X174295900Y-59993066D01*
X174367010Y-59996359D01*
G37*
D15*
%TO.C,R5*%
X184130000Y-111500000D02*
X185080000Y-111500000D01*
X185080000Y-110580000D02*
X185080000Y-112420000D01*
X185080000Y-112420000D02*
X188920000Y-112420000D01*
X188920000Y-110580000D02*
X185080000Y-110580000D01*
X188920000Y-112420000D02*
X188920000Y-110580000D01*
X189870000Y-111500000D02*
X188920000Y-111500000D01*
%TO.C,D4*%
X149790000Y-99045000D02*
X149790000Y-95955000D01*
X144240000Y-97500462D02*
G75*
G02*
X149790000Y-95955170I2990000J462D01*
G01*
X149790000Y-99044830D02*
G75*
G02*
X144240000Y-97499538I-2560000J1544830D01*
G01*
X149730000Y-97500000D02*
G75*
G02*
X144730000Y-97500000I-2500000J0D01*
G01*
X144730000Y-97500000D02*
G75*
G02*
X149730000Y-97500000I2500000J0D01*
G01*
%TO.C,SW1*%
X107000000Y-106000000D02*
X107000000Y-110500000D01*
X109500000Y-111750000D02*
X111000000Y-111750000D01*
X111000000Y-104750000D02*
X109500000Y-104750000D01*
X113500000Y-110500000D02*
X113500000Y-106000000D01*
%TO.C,R3*%
X97630000Y-110500000D02*
X98580000Y-110500000D01*
X98580000Y-109580000D02*
X98580000Y-111420000D01*
X98580000Y-111420000D02*
X102420000Y-111420000D01*
X102420000Y-109580000D02*
X98580000Y-109580000D01*
X102420000Y-111420000D02*
X102420000Y-109580000D01*
X103370000Y-110500000D02*
X102420000Y-110500000D01*
%TD*%
M02*
