%TF.GenerationSoftware,KiCad,Pcbnew,8.0.6*%
%TF.CreationDate,2025-02-06T10:41:56-08:00*%
%TF.ProjectId,Decorative PCB for Amaia,4465636f-7261-4746-9976-652050434220,V2*%
%TF.SameCoordinates,Original*%
%TF.FileFunction,Soldermask,Top*%
%TF.FilePolarity,Negative*%
%FSLAX46Y46*%
G04 Gerber Fmt 4.6, Leading zero omitted, Abs format (unit mm)*
G04 Created by KiCad (PCBNEW 8.0.6) date 2025-02-06 10:41:56*
%MOMM*%
%LPD*%
G01*
G04 APERTURE LIST*
G04 Aperture macros list*
%AMRoundRect*
0 Rectangle with rounded corners*
0 $1 Rounding radius*
0 $2 $3 $4 $5 $6 $7 $8 $9 X,Y pos of 4 corners*
0 Add a 4 corners polygon primitive as box body*
4,1,4,$2,$3,$4,$5,$6,$7,$8,$9,$2,$3,0*
0 Add four circle primitives for the rounded corners*
1,1,$1+$1,$2,$3*
1,1,$1+$1,$4,$5*
1,1,$1+$1,$6,$7*
1,1,$1+$1,$8,$9*
0 Add four rect primitives between the rounded corners*
20,1,$1+$1,$2,$3,$4,$5,0*
20,1,$1+$1,$4,$5,$6,$7,0*
20,1,$1+$1,$6,$7,$8,$9,0*
20,1,$1+$1,$8,$9,$2,$3,0*%
G04 Aperture macros list end*
%ADD10R,1.800000X1.800000*%
%ADD11C,1.800000*%
%ADD12RoundRect,0.250001X-0.799999X-0.799999X0.799999X-0.799999X0.799999X0.799999X-0.799999X0.799999X0*%
%ADD13C,2.100000*%
%ADD14C,1.400000*%
%ADD15O,1.400000X1.400000*%
%ADD16R,1.300000X3.400000*%
%ADD17R,3.500000X1.600000*%
%ADD18C,2.000000*%
G04 APERTURE END LIST*
D10*
%TO.C,D6*%
X126000000Y-60500000D03*
D11*
X123460000Y-60500000D03*
%TD*%
D10*
%TO.C,D1*%
X126460000Y-113500000D03*
D11*
X129000000Y-113500000D03*
%TD*%
D12*
%TO.C,J1*%
X98650000Y-105360000D03*
D13*
X103250000Y-105360000D03*
%TD*%
D14*
%TO.C,R9*%
X119380000Y-65500000D03*
D15*
X127000000Y-65500000D03*
%TD*%
D14*
%TO.C,R1*%
X148190000Y-57000000D03*
D15*
X155810000Y-57000000D03*
%TD*%
D14*
%TO.C,R2*%
X183380000Y-57000000D03*
D15*
X191000000Y-57000000D03*
%TD*%
D14*
%TO.C,R7*%
X140880000Y-102500000D03*
D15*
X148500000Y-102500000D03*
%TD*%
D14*
%TO.C,R6*%
X159190000Y-62500000D03*
D15*
X166810000Y-62500000D03*
%TD*%
D16*
%TO.C,Y2*%
X155850000Y-64500000D03*
X147150000Y-64500000D03*
%TD*%
D10*
%TO.C,D2*%
X190040000Y-106500000D03*
D11*
X187500000Y-106500000D03*
%TD*%
D17*
%TO.C,A1*%
X114500000Y-98060000D03*
X114500000Y-95520000D03*
X114500000Y-92980000D03*
X114500000Y-90440000D03*
X114500000Y-87900000D03*
X114500000Y-85360000D03*
X114500000Y-82820000D03*
X114500000Y-80280000D03*
X114500000Y-77740000D03*
X114500000Y-75200000D03*
X114500000Y-72660000D03*
X114500000Y-70120000D03*
X114500000Y-67580000D03*
X114500000Y-65040000D03*
X114500000Y-62500000D03*
X97500000Y-62500000D03*
X97500000Y-65040000D03*
X97500000Y-67580000D03*
X97500000Y-70120000D03*
X97500000Y-72660000D03*
X97500000Y-75200000D03*
X97500000Y-77740000D03*
X97500000Y-80280000D03*
X97500000Y-82820000D03*
X97500000Y-85360000D03*
X97500000Y-87900000D03*
X97500000Y-90440000D03*
X97500000Y-92980000D03*
X97500000Y-95560000D03*
X97500000Y-98060000D03*
%TD*%
D10*
%TO.C,D3*%
X164000000Y-67500000D03*
D11*
X161460000Y-67500000D03*
%TD*%
D14*
%TO.C,R4*%
X115380000Y-113500000D03*
D15*
X123000000Y-113500000D03*
%TD*%
D14*
%TO.C,R8*%
X177690000Y-72000000D03*
D15*
X185310000Y-72000000D03*
%TD*%
D10*
%TO.C,D5*%
X184500000Y-76500000D03*
D11*
X181960000Y-76500000D03*
%TD*%
D16*
%TO.C,Y1*%
X191000000Y-64500000D03*
X182300000Y-64500000D03*
%TD*%
D14*
%TO.C,R5*%
X183190000Y-111500000D03*
D15*
X190810000Y-111500000D03*
%TD*%
D10*
%TO.C,D4*%
X148500000Y-97500000D03*
D11*
X145960000Y-97500000D03*
%TD*%
D18*
%TO.C,SW1*%
X112500000Y-105000000D03*
X112500000Y-111500000D03*
X108000000Y-105000000D03*
X108000000Y-111500000D03*
%TD*%
D14*
%TO.C,R3*%
X104310000Y-110500000D03*
D15*
X96690000Y-110500000D03*
%TD*%
M02*
